<svg width="155" height="64" viewBox="0 0 155 64" fill="none" xmlns="http://www.w3.org/2000/svg">
<rect y="-0.00195312" width="154.937" height="64" rx="16" fill="#3D544D"/>
<path d="M35.4876 30.8675C35.455 27.3351 38.4541 25.6166 38.5913 25.5366C36.8927 23.1221 34.2601 22.7922 33.3349 22.7659C31.1238 22.539 28.979 24.0559 27.8527 24.0559C26.7038 24.0559 24.9693 22.7878 23.1 22.825C20.6944 22.8612 18.4439 24.2192 17.2096 26.3279C14.6624 30.6275 16.5622 36.9459 19.0026 40.4214C20.2234 42.1235 21.6499 44.0239 23.517 43.9571C25.3437 43.8836 26.026 42.8216 28.2304 42.8216C30.4145 42.8216 31.0552 43.9571 32.9595 43.9143C34.9199 43.8836 36.1542 42.2046 37.3323 40.4871C38.743 38.5362 39.3096 36.615 39.332 36.5163C39.2859 36.501 35.5247 35.1014 35.4876 30.8675Z" fill="white"/>
<path d="M31.8905 20.4796C32.8729 19.2817 33.5451 17.6519 33.3585 15.998C31.9365 16.0594 30.1582 16.957 29.1342 18.1287C28.2281 19.1611 27.4188 20.8533 27.6279 22.4447C29.2252 22.5609 30.8653 21.6589 31.8905 20.4796Z" fill="white"/>
<path d="M56.7579 20.1541C56.7579 21.4441 56.3611 22.4152 55.5686 23.0673C54.8346 23.669 53.7914 23.9704 52.4402 23.9704C51.7703 23.9704 51.197 23.9419 50.717 23.8849V16.8365C51.3431 16.7379 52.0176 16.6874 52.746 16.6874C54.0331 16.6874 55.0032 16.9603 55.6574 17.5062C56.3903 18.1232 56.7579 19.0055 56.7579 20.1541ZM55.5158 20.1859C55.5158 19.3496 55.2887 18.7085 54.8346 18.2613C54.3804 17.8152 53.7172 17.5916 52.8438 17.5916C52.4728 17.5916 52.157 17.6158 51.895 17.6662V23.0245C52.0401 23.0465 52.3053 23.0563 52.6909 23.0563C53.5924 23.0563 54.2883 22.8119 54.7784 22.3231C55.2685 21.8343 55.5158 21.1219 55.5158 20.1859Z" fill="white"/>
<path d="M63.3441 21.2808C63.3441 22.0754 63.1114 22.7264 62.646 23.2372C62.1581 23.7621 61.5118 24.0241 60.7047 24.0241C59.9268 24.0241 59.3074 23.7731 58.8454 23.2689C58.3845 22.7659 58.1541 22.1313 58.1541 21.3663C58.1541 20.5662 58.3912 19.9097 58.8679 19.4C59.3445 18.8904 59.9852 18.635 60.7923 18.635C61.5702 18.635 62.1952 18.886 62.6685 19.3891C63.1181 19.8779 63.3441 20.5092 63.3441 21.2808ZM62.1222 21.3181C62.1222 20.8413 62.0165 20.4325 61.8063 20.0916C61.559 19.6795 61.2071 19.4735 60.7496 19.4735C60.2764 19.4735 59.9167 19.6795 59.6694 20.0916C59.458 20.4325 59.3535 20.8479 59.3535 21.3389C59.3535 21.8156 59.4591 22.2244 59.6694 22.5653C59.9245 22.9774 60.2797 23.1834 60.7384 23.1834C61.188 23.1834 61.541 22.9741 61.795 22.5543C62.0131 22.2069 62.1222 21.7948 62.1222 21.3181Z" fill="white"/>
<path d="M72.175 18.7403L70.517 23.9068H69.4378L68.751 21.6633C68.5768 21.1032 68.4351 20.5465 68.325 19.9941H68.3036C68.2013 20.5618 68.0597 21.1175 67.8776 21.6633L67.148 23.9068H66.0565L64.4974 18.7403H65.708L66.3072 21.1964C66.4522 21.7773 66.5714 22.3308 66.6669 22.8546H66.6883C66.776 22.4228 66.921 21.8726 67.1255 21.2074L67.8776 18.7413H68.8376L69.5581 21.1547C69.7323 21.7433 69.874 22.3099 69.983 22.8557H70.0156C70.0954 22.3242 70.2157 21.7575 70.3753 21.1547L71.0183 18.7413H72.175V18.7403Z" fill="white"/>
<path d="M78.2823 23.9068H77.1042V20.9476C77.1042 20.0357 76.749 19.5798 76.0363 19.5798C75.6867 19.5798 75.4046 19.7047 75.1854 19.9557C74.9684 20.2067 74.8583 20.5026 74.8583 20.8413V23.9057H73.6802V20.2166C73.6802 19.7628 73.6656 19.2707 73.6375 18.7381H74.6728L74.7279 19.5458H74.7605C74.8976 19.2948 75.1022 19.0877 75.3709 18.9222C75.6901 18.7293 76.0476 18.6318 76.4388 18.6318C76.9334 18.6318 77.3448 18.7874 77.6719 19.0997C78.0788 19.4823 78.2823 20.0533 78.2823 20.8117V23.9068Z" fill="white"/>
<path d="M81.531 23.9068H80.354V16.3696H81.531V23.9068Z" fill="white"/>
<path d="M88.4667 21.2808C88.4667 22.0754 88.234 22.7264 87.7686 23.2372C87.2808 23.7621 86.6333 24.0241 85.8273 24.0241C85.0483 24.0241 84.4289 23.7731 83.968 23.2689C83.5071 22.7659 83.2767 22.1313 83.2767 21.3663C83.2767 20.5662 83.5139 19.9097 83.9905 19.4C84.4671 18.8904 85.1079 18.635 85.9138 18.635C86.6929 18.635 87.3167 18.886 87.7911 19.3891C88.2408 19.8779 88.4667 20.5092 88.4667 21.2808ZM87.2437 21.3181C87.2437 20.8413 87.138 20.4325 86.9278 20.0916C86.6816 19.6795 86.3286 19.4735 85.8723 19.4735C85.3979 19.4735 85.0382 19.6795 84.792 20.0916C84.5807 20.4325 84.4761 20.8479 84.4761 21.3389C84.4761 21.8156 84.5818 22.2244 84.792 22.5653C85.0472 22.9774 85.4024 23.1834 85.861 23.1834C86.3107 23.1834 86.6625 22.9741 86.9165 22.5543C87.1357 22.2069 87.2437 21.7948 87.2437 21.3181Z" fill="white"/>
<path d="M94.1682 23.9068H93.1104L93.0227 23.3117H92.9901C92.6281 23.7862 92.1122 24.0241 91.4422 24.0241C90.942 24.0241 90.5373 23.8674 90.2327 23.5561C89.9561 23.2733 89.8179 22.9215 89.8179 22.5039C89.8179 21.8726 90.0877 21.3915 90.6306 21.0583C91.1724 20.7251 91.9346 20.5618 92.9159 20.5695V20.473C92.9159 19.7924 92.5494 19.4527 91.8154 19.4527C91.2927 19.4527 90.8318 19.5809 90.4339 19.8352L90.1944 19.0811C90.6868 18.7841 91.2949 18.635 92.0121 18.635C93.397 18.635 94.0917 19.3474 94.0917 20.7722V22.6749C94.0917 23.1911 94.1176 23.6021 94.1682 23.9068ZM92.9451 22.1313V21.3345C91.6457 21.3126 90.9959 21.66 90.9959 22.3757C90.9959 22.6453 91.0701 22.847 91.2219 22.9818C91.3736 23.1166 91.567 23.1834 91.7974 23.1834C92.056 23.1834 92.2976 23.1034 92.518 22.9445C92.7394 22.7845 92.8754 22.5817 92.926 22.3329C92.9384 22.2771 92.9451 22.2091 92.9451 22.1313Z" fill="white"/>
<path d="M100.862 23.9068H99.8168L99.7617 23.0771H99.7291C99.3952 23.7084 98.8265 24.0241 98.0272 24.0241C97.3887 24.0241 96.857 23.7797 96.4355 23.2909C96.0139 22.802 95.8037 22.1674 95.8037 21.3882C95.8037 20.5519 96.0319 19.8746 96.4906 19.3573C96.9346 18.8751 97.4787 18.6339 98.1261 18.6339C98.8377 18.6339 99.3357 18.8674 99.6189 19.3354H99.6414V16.3696H100.821V22.5149C100.821 23.0179 100.834 23.4816 100.862 23.9068ZM99.6414 21.728V20.8665C99.6414 20.7174 99.6302 20.5969 99.6088 20.5048C99.5425 20.2286 99.3997 19.9963 99.1828 19.8089C98.9636 19.6214 98.6994 19.5272 98.3948 19.5272C97.9553 19.5272 97.6113 19.6971 97.3584 20.0379C97.1077 20.3788 96.9807 20.8139 96.9807 21.3454C96.9807 21.8562 97.101 22.2705 97.3426 22.5894C97.5978 22.9292 97.9418 23.0991 98.3723 23.0991C98.759 23.0991 99.0681 22.9577 99.3031 22.6738C99.5301 22.4119 99.6414 22.0962 99.6414 21.728Z" fill="white"/>
<path d="M110.938 21.2808C110.938 22.0754 110.705 22.7264 110.239 23.2372C109.752 23.7621 109.106 24.0241 108.298 24.0241C107.521 24.0241 106.902 23.7731 106.439 23.2689C105.978 22.7659 105.748 22.1313 105.748 21.3663C105.748 20.5662 105.985 19.9097 106.461 19.4C106.938 18.8904 107.579 18.635 108.387 18.635C109.164 18.635 109.79 18.886 110.262 19.3891C110.712 19.8779 110.938 20.5092 110.938 21.2808ZM109.717 21.3181C109.717 20.8413 109.611 20.4325 109.401 20.0916C109.152 19.6795 108.802 19.4735 108.343 19.4735C107.871 19.4735 107.511 19.6795 107.263 20.0916C107.052 20.4325 106.947 20.8479 106.947 21.3389C106.947 21.8156 107.053 22.2244 107.263 22.5653C107.518 22.9774 107.873 23.1834 108.332 23.1834C108.782 23.1834 109.136 22.9741 109.39 22.5543C109.607 22.2069 109.717 21.7948 109.717 21.3181Z" fill="white"/>
<path d="M117.272 23.9068H116.095V20.9476C116.095 20.0357 115.74 19.5798 115.026 19.5798C114.676 19.5798 114.394 19.7047 114.176 19.9557C113.958 20.2067 113.849 20.5026 113.849 20.8413V23.9057H112.67V20.2166C112.67 19.7628 112.656 19.2707 112.628 18.7381H113.662L113.717 19.5458H113.75C113.888 19.2948 114.093 19.0877 114.36 18.9222C114.681 18.7293 115.037 18.6318 115.429 18.6318C115.923 18.6318 116.334 18.7874 116.661 19.0997C117.07 19.4823 117.272 20.0533 117.272 20.8117V23.9068Z" fill="white"/>
<path d="M125.2 19.6006H123.903V22.1105C123.903 22.7483 124.133 23.0673 124.59 23.0673C124.801 23.0673 124.977 23.0497 125.115 23.0136L125.145 23.8849C124.912 23.9704 124.607 24.0131 124.23 24.0131C123.765 24.0131 123.403 23.875 123.141 23.5988C122.878 23.3226 122.747 22.8579 122.747 22.2058V19.6006H121.973V18.7403H122.747V17.7933L123.902 17.4536V18.7392H125.199V19.6006H125.2Z" fill="white"/>
<path d="M131.437 23.9068H130.258V20.9695C130.258 20.0434 129.902 19.5798 129.191 19.5798C128.644 19.5798 128.271 19.8483 128.067 20.3853C128.032 20.4982 128.012 20.6363 128.012 20.7985V23.9057H126.835V16.3696H128.012V19.4833H128.034C128.405 18.9167 128.937 18.6339 129.626 18.6339C130.114 18.6339 130.517 18.7896 130.838 19.1019C131.237 19.491 131.437 20.0697 131.437 20.8347V23.9068Z" fill="white"/>
<path d="M137.87 21.0791C137.87 21.2852 137.854 21.4583 137.826 21.5997H134.293C134.309 22.1105 134.477 22.4995 134.805 22.7692C135.104 23.0103 135.489 23.1308 135.961 23.1308C136.484 23.1308 136.961 23.0497 137.39 22.8864L137.574 23.6843C137.072 23.8969 136.481 24.0033 135.796 24.0033C134.975 24.0033 134.329 23.7676 133.861 23.2963C133.392 22.825 133.159 22.1927 133.159 21.3991C133.159 20.6199 133.376 19.9711 133.813 19.4537C134.269 18.9014 134.887 18.6252 135.666 18.6252C136.428 18.6252 137.007 18.9014 137.398 19.4537C137.714 19.8921 137.87 20.4347 137.87 21.0791ZM136.746 20.7821C136.755 20.4412 136.677 20.1475 136.518 19.8998C136.313 19.5809 136.002 19.4209 135.58 19.4209C135.196 19.4209 134.882 19.5765 134.643 19.8889C134.447 20.1377 134.331 20.4347 134.293 20.7821H136.746Z" fill="white"/>
<path d="M61.9232 43.7126H59.3703L57.9719 39.4284H53.1113L51.7792 43.7126H49.2938L54.1095 29.127H57.0839L61.9232 43.7126ZM57.5504 37.6309L56.2858 33.8223C56.152 33.4332 55.9013 32.517 55.5315 31.0746H55.4865C55.3393 31.695 55.1021 32.6112 54.7761 33.8223L53.534 37.6309H57.5504Z" fill="white"/>
<path d="M74.3074 38.3247C74.3074 40.1134 73.8117 41.5272 72.8202 42.5652C71.9322 43.4891 70.8294 43.9505 69.5131 43.9505C68.0923 43.9505 67.0716 43.4529 66.4499 42.4577H66.405V47.998H64.0084V36.6577C64.0084 35.5332 63.978 34.3791 63.9196 33.1954H66.0273L66.161 34.8625H66.206C67.0052 33.6064 68.2182 32.9795 69.8459 32.9795C71.1183 32.9795 72.1806 33.4694 73.0304 34.4504C73.8825 35.4324 74.3074 36.7235 74.3074 38.3247ZM71.8659 38.4102C71.8659 37.3865 71.6298 36.5426 71.1554 35.8784C70.6372 35.1858 69.9414 34.8394 69.0691 34.8394C68.4778 34.8394 67.9405 35.0323 67.4605 35.4126C66.9794 35.7962 66.6646 36.2971 66.5174 36.9175C66.4432 37.2068 66.4061 37.4435 66.4061 37.6299V39.3835C66.4061 40.1485 66.6467 40.794 67.1278 41.3212C67.6089 41.8484 68.2339 42.1114 69.0028 42.1114C69.9054 42.1114 70.608 41.7717 71.1105 41.0943C71.6141 40.4159 71.8659 39.5216 71.8659 38.4102Z" fill="white"/>
<path d="M86.7142 38.3247C86.7142 40.1134 86.2185 41.5272 85.2259 42.5652C84.339 43.4891 83.2362 43.9505 81.9199 43.9505C80.499 43.9505 79.4783 43.4529 78.8578 42.4577H78.8129V47.998H76.4163V36.6577C76.4163 35.5332 76.3859 34.3791 76.3275 33.1954H78.4352L78.5689 34.8625H78.6139C79.412 33.6064 80.6249 32.9795 82.2538 32.9795C83.5251 32.9795 84.5874 33.4694 85.4395 34.4504C86.2882 35.4324 86.7142 36.7235 86.7142 38.3247ZM84.2726 38.4102C84.2726 37.3865 84.0355 36.5426 83.5611 35.8784C83.0429 35.1858 82.3493 34.8394 81.4759 34.8394C80.8835 34.8394 80.3473 35.0323 79.8661 35.4126C79.385 35.7962 79.0714 36.2971 78.9241 36.9175C78.8511 37.2068 78.8129 37.4435 78.8129 37.6299V39.3835C78.8129 40.1485 79.0534 40.794 79.5323 41.3212C80.0134 41.8473 80.6384 42.1114 81.4095 42.1114C82.3122 42.1114 83.0148 41.7717 83.5172 41.0943C84.0208 40.4159 84.2726 39.5216 84.2726 38.4102Z" fill="white"/>
<path d="M100.586 39.6224C100.586 40.8631 100.144 41.8725 99.257 42.6517C98.2824 43.5033 96.9256 43.9286 95.1821 43.9286C93.5724 43.9286 92.2819 43.6261 91.305 43.02L91.8603 41.0724C92.9125 41.6927 94.067 42.004 95.3248 42.004C96.2275 42.004 96.9301 41.8045 97.4348 41.4078C97.9373 41.011 98.1879 40.4784 98.1879 39.8142C98.1879 39.2223 97.9811 38.7237 97.5663 38.3192C97.1538 37.9148 96.4647 37.5389 95.5024 37.1915C92.8833 36.239 91.5748 34.8438 91.5748 33.0091C91.5748 31.8101 92.0335 30.827 92.9519 30.062C93.8669 29.2958 95.0876 28.9133 96.6142 28.9133C97.9755 28.9133 99.1063 29.1446 100.009 29.606L99.4098 31.5109C98.5667 31.0637 97.6135 30.8401 96.5467 30.8401C95.7037 30.8401 95.0449 31.0429 94.5728 31.4462C94.1738 31.8068 93.9737 32.2463 93.9737 32.7669C93.9737 33.3434 94.2019 33.8201 94.6605 34.195C95.0595 34.5413 95.7846 34.9162 96.8368 35.3206C98.1239 35.8258 99.0692 36.4166 99.6774 37.0939C100.283 37.769 100.586 38.6141 100.586 39.6224Z" fill="white"/>
<path d="M108.509 34.949H105.868V40.0553C105.868 41.3541 106.333 42.0029 107.266 42.0029C107.694 42.0029 108.05 41.9667 108.331 41.8944L108.397 43.6688C107.925 43.8409 107.303 43.9275 106.533 43.9275C105.587 43.9275 104.847 43.6458 104.313 43.0836C103.781 42.5202 103.514 41.5754 103.514 40.2482V34.9468H101.94V33.1932H103.514V31.2675L105.868 30.5749V33.1932H108.509V34.949Z" fill="white"/>
<path d="M120.428 38.3675C120.428 39.9841 119.954 41.3113 119.007 42.3492C118.015 43.4178 116.697 43.9505 115.055 43.9505C113.472 43.9505 112.212 43.4387 111.273 42.415C110.333 41.3913 109.863 40.0991 109.863 38.5417C109.863 36.912 110.346 35.577 111.316 34.5391C112.284 33.5001 113.59 32.9806 115.233 32.9806C116.815 32.9806 118.089 33.4924 119.05 34.5172C119.97 35.5113 120.428 36.7947 120.428 38.3675ZM117.942 38.4431C117.942 37.4731 117.729 36.6413 117.299 35.9475C116.796 35.1079 116.078 34.6893 115.147 34.6893C114.184 34.6893 113.452 35.109 112.95 35.9475C112.519 36.6424 112.307 37.4874 112.307 38.4869C112.307 39.4569 112.519 40.2887 112.95 40.9814C113.468 41.821 114.192 42.2396 115.126 42.2396C116.041 42.2396 116.759 41.8122 117.277 40.9595C117.719 40.2526 117.942 39.4119 117.942 38.4431Z" fill="white"/>
<path d="M128.218 35.2504C127.981 35.2077 127.728 35.1858 127.463 35.1858C126.62 35.1858 125.968 35.4959 125.509 36.1174C125.11 36.6654 124.91 37.358 124.91 38.1943V43.7127H122.515L122.537 36.5076C122.537 35.2954 122.507 34.1917 122.447 33.1965H124.535L124.622 35.2088H124.689C124.942 34.5172 125.341 33.9604 125.887 33.5429C126.421 33.1669 126.998 32.9795 127.619 32.9795C127.841 32.9795 128.041 32.9949 128.218 33.0223V35.2504Z" fill="white"/>
<path d="M138.937 37.9565C138.937 38.3751 138.909 38.728 138.849 39.0163H131.659C131.687 40.0553 132.035 40.8499 132.702 41.3979C133.308 41.8878 134.092 42.1333 135.054 42.1333C136.119 42.1333 137.09 41.9678 137.963 41.6357L138.339 43.2578C137.318 43.6918 136.113 43.9077 134.722 43.9077C133.05 43.9077 131.737 43.4277 130.781 42.4687C129.828 41.5097 129.35 40.2219 129.35 38.6064C129.35 37.0205 129.794 35.6998 130.684 34.6465C131.614 33.522 132.872 32.9598 134.455 32.9598C136.01 32.9598 137.187 33.522 137.986 34.6465C138.619 35.5398 138.937 36.6445 138.937 37.9565ZM136.651 37.3504C136.667 36.6577 136.511 36.0593 136.186 35.554C135.771 34.9041 135.134 34.5797 134.276 34.5797C133.493 34.5797 132.855 34.8964 132.369 35.5321C131.97 36.0374 131.732 36.6434 131.659 37.3493H136.651V37.3504Z" fill="white"/>
</svg>
