<svg width="552" height="303" viewBox="0 0 552 303" fill="none" xmlns="http://www.w3.org/2000/svg">
<g filter="url(#filter0_d_1_138)">
<rect width="435.047" height="274.766" rx="36.6355" transform="matrix(1 0 -0.34202 0.939692 101.953 2.625)" fill="white" stroke="url(#paint0_linear_1_138)" stroke-opacity="0.5" stroke-width="2.28972"/>
<path d="M79.0636 194.898L83.0654 183.903H85.1971L87.5658 191.795H87.5978L90.4704 183.903H92.4578L88.456 194.898H86.3243L83.9717 187.006H83.9396L81.0671 194.898H79.0636ZM92.8578 195.048C92.0243 195.048 91.4439 194.838 91.1166 194.416C90.8035 193.984 90.7804 193.402 91.0472 192.669C91.3798 191.755 92.0149 191.052 92.9527 190.56C93.8904 190.068 95.0592 189.822 96.459 189.822H97.629C97.7679 189.441 97.8204 189.149 97.7867 188.949C97.7673 188.738 97.6493 188.592 97.4328 188.512C97.2269 188.431 96.9049 188.391 96.4668 188.391C95.9326 188.391 95.3587 188.442 94.7451 188.542C94.1422 188.642 93.5532 188.793 92.9778 188.994L93.2531 187.533C93.8675 187.342 94.5261 187.191 95.2288 187.081C95.9315 186.971 96.6141 186.915 97.2766 186.915C98.1207 186.915 98.7485 187.011 99.1599 187.201C99.582 187.392 99.8176 187.714 99.8669 188.165C99.9161 188.617 99.8055 189.215 99.5351 189.958L97.737 194.898H95.8617L96.1746 193.994H96.1426C95.7408 194.305 95.2309 194.561 94.6128 194.762C93.9984 194.953 93.4134 195.048 92.8578 195.048ZM94.0893 193.603C94.4846 193.603 94.8717 193.537 95.2504 193.407C95.6328 193.266 95.9622 193.08 96.2386 192.85C96.515 192.619 96.7062 192.358 96.8122 192.066L97.1576 191.117H96.276C95.3571 191.117 94.6205 191.233 94.0663 191.464C93.5264 191.685 93.1724 192.026 93.0043 192.488C92.8801 192.829 92.9096 193.101 93.093 193.301C93.2763 193.502 93.6084 193.603 94.0893 193.603ZM99.847 194.898L102.698 187.066H104.525L104.222 187.985H104.254C104.678 187.643 105.131 187.382 105.613 187.201C106.1 187.011 106.62 186.915 107.176 186.915C107.721 186.915 108.146 187.011 108.45 187.201C108.769 187.382 108.947 187.643 108.983 187.985H109.015C109.471 187.613 109.938 187.342 110.417 187.171C110.896 187.001 111.418 186.915 111.985 186.915C112.882 186.915 113.452 187.141 113.693 187.593C113.939 188.035 113.888 188.733 113.54 189.687L111.644 194.898H109.736L111.469 190.138C111.684 189.546 111.74 189.114 111.635 188.843C111.531 188.572 111.255 188.437 110.806 188.437C110.272 188.437 109.789 188.602 109.359 188.934C108.928 189.265 108.612 189.707 108.411 190.259L106.723 194.898H104.8L106.581 190.003C106.768 189.491 106.796 189.104 106.667 188.843C106.541 188.572 106.27 188.437 105.853 188.437C105.533 188.437 105.209 188.517 104.884 188.677C104.569 188.838 104.282 189.054 104.023 189.325C103.775 189.596 103.587 189.908 103.459 190.259L101.77 194.898H99.847ZM117.714 195.048C116.24 195.048 115.235 194.697 114.7 193.994C114.165 193.291 114.135 192.287 114.61 190.982C115.071 189.717 115.796 188.723 116.786 188C117.786 187.277 118.922 186.915 120.194 186.915C121.422 186.915 122.249 187.257 122.674 187.939C123.098 188.622 123.082 189.591 122.626 190.846C122.574 190.987 122.512 191.143 122.44 191.313C122.367 191.484 122.31 191.609 122.27 191.69H115.442L115.93 190.349H121.252L120.815 190.756C121.115 189.933 121.165 189.325 120.966 188.934C120.781 188.532 120.351 188.331 119.678 188.331C118.962 188.331 118.341 188.542 117.813 188.964C117.3 189.375 116.895 189.988 116.599 190.801L116.408 191.328C116.13 192.091 116.137 192.659 116.429 193.03C116.725 193.392 117.306 193.572 118.171 193.572C118.62 193.572 119.115 193.532 119.658 193.452C120.203 193.362 120.7 193.246 121.146 193.106L120.86 194.551C120.399 194.702 119.891 194.823 119.334 194.913C118.778 195.003 118.238 195.048 117.714 195.048Z" fill="#ADADAD"/>
<path d="M115.425 110.058C114.153 110.058 113.14 109.832 112.386 109.38C111.631 108.929 111.162 108.281 110.977 107.438C110.803 106.594 110.93 105.585 111.358 104.41C111.789 103.225 112.397 102.216 113.181 101.383C113.98 100.539 114.921 99.8918 116.004 99.4399C117.087 98.9881 118.265 98.7622 119.536 98.7622C120.99 98.7622 122.169 99.0584 123.076 99.6508L122.008 101.308C121.13 100.725 120.125 100.434 118.992 100.434C118.148 100.434 117.357 100.595 116.621 100.916C115.888 101.227 115.248 101.679 114.701 102.271C114.154 102.864 113.729 103.577 113.426 104.41C113.126 105.234 113.032 105.946 113.144 106.549C113.26 107.141 113.569 107.598 114.072 107.92C114.578 108.231 115.253 108.386 116.098 108.386C117.198 108.386 118.415 108.095 119.749 107.513L119.611 109.17C118.274 109.762 116.878 110.058 115.425 110.058ZM121.296 109.908L124.147 102.076H126.038L125.517 103.552H125.549C125.951 103.21 126.383 102.919 126.845 102.678C127.321 102.427 127.81 102.241 128.314 102.121C128.821 101.99 129.325 101.925 129.827 101.925L129.246 103.522C128.573 103.522 127.915 103.642 127.272 103.883C126.639 104.124 126.082 104.45 125.601 104.862C125.134 105.264 124.809 105.716 124.627 106.218L123.284 109.908H121.296ZM131.838 110.058C130.363 110.058 129.359 109.707 128.824 109.004C128.289 108.301 128.259 107.297 128.734 105.992C129.195 104.726 129.92 103.732 130.909 103.009C131.91 102.287 133.046 101.925 134.317 101.925C135.546 101.925 136.373 102.266 136.798 102.949C137.222 103.632 137.206 104.601 136.749 105.856C136.698 105.997 136.636 106.152 136.563 106.323C136.491 106.494 136.434 106.619 136.394 106.7H129.566L130.054 105.359H135.376L134.939 105.766C135.239 104.942 135.289 104.335 135.089 103.943C134.904 103.542 134.475 103.341 133.802 103.341C133.086 103.341 132.465 103.552 131.937 103.973C131.424 104.385 131.019 104.998 130.723 105.811L130.531 106.338C130.254 107.101 130.261 107.668 130.553 108.04C130.849 108.401 131.43 108.582 132.295 108.582C132.744 108.582 133.239 108.542 133.782 108.462C134.327 108.371 134.823 108.256 135.27 108.115L134.984 109.561C134.523 109.712 134.015 109.832 133.458 109.923C132.902 110.013 132.362 110.058 131.838 110.058ZM139.984 110.058C138.873 110.058 138.137 109.702 137.776 108.989C137.416 108.276 137.47 107.277 137.938 105.992C138.406 104.706 139.079 103.707 139.958 102.994C140.837 102.282 141.833 101.925 142.944 101.925C143.5 101.925 143.969 102.015 144.352 102.196C144.735 102.377 145.017 102.643 145.199 102.994H145.248L146.733 98.9128H148.673L144.671 109.908H142.827L143.13 108.989H143.098C142.664 109.33 142.171 109.596 141.621 109.787C141.085 109.968 140.539 110.058 139.984 110.058ZM141.045 108.552C141.462 108.552 141.859 108.472 142.239 108.311C142.628 108.15 142.97 107.93 143.265 107.648C143.56 107.367 143.771 107.051 143.899 106.7L144.414 105.284C144.546 104.922 144.565 104.606 144.471 104.335C144.381 104.054 144.205 103.833 143.943 103.672C143.681 103.512 143.336 103.431 142.909 103.431C142.236 103.431 141.632 103.652 141.097 104.094C140.573 104.536 140.161 105.168 139.861 105.992C139.561 106.815 139.513 107.448 139.715 107.889C139.929 108.331 140.372 108.552 141.045 108.552ZM150.512 100.69L151.159 98.9128H153.146L152.499 100.69H150.512ZM147.157 109.908L149.991 102.121H151.979L149.144 109.908H147.157ZM155.311 110.058C154.328 110.058 153.686 109.867 153.387 109.486C153.088 109.104 153.096 108.482 153.41 107.618L154.89 103.552H153.031L153.568 102.076H155.427L156.359 99.5152H158.347L157.415 102.076H160.22L159.682 103.552H156.877L155.567 107.151C155.384 107.653 155.342 108.005 155.44 108.206C155.552 108.396 155.833 108.492 156.281 108.492C156.517 108.492 156.77 108.472 157.041 108.432C157.312 108.391 157.562 108.336 157.79 108.266L157.413 109.787C157.013 109.888 156.645 109.958 156.31 109.998C155.975 110.038 155.642 110.058 155.311 110.058ZM169.332 110.058C168.06 110.058 167.047 109.832 166.293 109.38C165.538 108.929 165.069 108.281 164.884 107.438C164.71 106.594 164.837 105.585 165.265 104.41C165.696 103.225 166.304 102.216 167.088 101.383C167.886 100.539 168.827 99.8918 169.911 99.4399C170.994 98.9881 172.172 98.7622 173.443 98.7622C174.896 98.7622 176.076 99.0584 176.983 99.6508L175.915 101.308C175.037 100.725 174.031 100.434 172.899 100.434C172.055 100.434 171.264 100.595 170.528 100.916C169.795 101.227 169.155 101.679 168.608 102.271C168.061 102.864 167.636 103.577 167.332 104.41C167.033 105.234 166.939 105.946 167.051 106.549C167.166 107.141 167.476 107.598 167.978 107.92C168.485 108.231 169.16 108.386 170.004 108.386C171.105 108.386 172.322 108.095 173.656 107.513L173.518 109.17C172.18 109.762 170.785 110.058 169.332 110.058ZM177.042 110.058C176.208 110.058 175.628 109.847 175.301 109.426C174.988 108.994 174.964 108.412 175.231 107.679C175.564 106.765 176.199 106.062 177.137 105.57C178.074 105.078 179.243 104.832 180.643 104.832H181.813C181.952 104.45 182.004 104.159 181.971 103.958C181.951 103.748 181.833 103.602 181.617 103.522C181.411 103.441 181.089 103.401 180.651 103.401C180.117 103.401 179.543 103.451 178.929 103.552C178.326 103.652 177.737 103.803 177.162 104.004L177.437 102.543C178.052 102.352 178.71 102.201 179.413 102.091C180.115 101.98 180.798 101.925 181.461 101.925C182.305 101.925 182.932 102.02 183.344 102.211C183.766 102.402 184.002 102.723 184.051 103.175C184.1 103.627 183.99 104.224 183.719 104.967L181.921 109.908H180.046L180.359 109.004H180.327C179.925 109.315 179.415 109.571 178.797 109.772C178.182 109.963 177.597 110.058 177.042 110.058ZM178.273 108.612C178.669 108.612 179.056 108.547 179.434 108.417C179.817 108.276 180.146 108.09 180.423 107.859C180.699 107.628 180.89 107.367 180.996 107.076L181.342 106.127H180.46C179.541 106.127 178.805 106.243 178.25 106.474C177.71 106.695 177.356 107.036 177.188 107.498C177.064 107.839 177.094 108.11 177.277 108.311C177.46 108.512 177.792 108.612 178.273 108.612ZM184.031 109.908L186.882 102.076H188.773L188.252 103.552H188.284C188.686 103.21 189.118 102.919 189.579 102.678C190.055 102.427 190.545 102.241 191.048 102.121C191.555 101.99 192.06 101.925 192.562 101.925L191.981 103.522C191.308 103.522 190.65 103.642 190.006 103.883C189.374 104.124 188.817 104.45 188.336 104.862C187.869 105.264 187.544 105.716 187.362 106.218L186.018 109.908H184.031ZM193.515 110.058C192.404 110.058 191.668 109.702 191.308 108.989C190.947 108.276 191.001 107.277 191.469 105.992C191.937 104.706 192.61 103.707 193.489 102.994C194.369 102.282 195.364 101.925 196.475 101.925C197.031 101.925 197.5 102.015 197.883 102.196C198.266 102.377 198.549 102.643 198.731 102.994H198.779L200.264 98.9128H202.204L198.202 109.908H196.359L196.661 108.989H196.629C196.195 109.33 195.703 109.596 195.152 109.787C194.616 109.968 194.071 110.058 193.515 110.058ZM194.576 108.552C194.993 108.552 195.391 108.472 195.77 108.311C196.159 108.15 196.502 107.93 196.796 107.648C197.091 107.367 197.302 107.051 197.43 106.7L197.945 105.284C198.077 104.922 198.096 104.606 198.002 104.335C197.912 104.054 197.736 103.833 197.474 103.672C197.212 103.512 196.867 103.431 196.44 103.431C195.767 103.431 195.163 103.652 194.628 104.094C194.104 104.536 193.692 105.168 193.392 105.992C193.093 106.815 193.044 107.448 193.247 107.889C193.46 108.331 193.903 108.552 194.576 108.552ZM205.133 109.908L209.135 98.9128H211.267L213.636 106.805H213.668L216.54 98.9128H218.528L214.526 109.908H212.394L210.041 102.015H210.009L207.137 109.908H205.133ZM220.578 110.058C219.232 110.058 218.318 109.707 217.837 109.004C217.37 108.291 217.372 107.287 217.843 105.992C218.315 104.696 219.042 103.697 220.024 102.994C221.021 102.282 222.192 101.925 223.539 101.925C224.885 101.925 225.797 102.282 226.275 102.994C226.756 103.697 226.761 104.696 226.29 105.992C225.819 107.287 225.084 108.291 224.088 109.004C223.095 109.707 221.925 110.058 220.578 110.058ZM221.116 108.582C221.853 108.582 222.493 108.366 223.034 107.935C223.58 107.493 224.008 106.845 224.319 105.992C224.629 105.138 224.671 104.496 224.443 104.064C224.219 103.622 223.739 103.401 223.001 103.401C222.275 103.401 221.633 103.622 221.077 104.064C220.535 104.496 220.109 105.138 219.799 105.992C219.488 106.845 219.445 107.493 219.668 107.935C219.907 108.366 220.389 108.582 221.116 108.582ZM226.424 109.908L227.197 107.784H229.473L228.7 109.908H226.424Z" fill="#ADADAD"/>
<path d="M221.448 190.594L225.45 179.599H233.272L232.68 181.226H226.862L225.831 184.057H231.329L230.748 185.654H225.25L224.044 188.968H229.862L229.27 190.594H221.448ZM230.555 190.594L234.635 186.648L233.437 182.762H235.617L236.317 185.684H236.349L239.175 182.762H241.355L237.328 186.648L238.537 190.594H236.357L235.642 187.627H235.61L232.75 190.594H230.555ZM247.735 182.612C248.846 182.612 249.582 182.968 249.942 183.681C250.302 184.394 250.249 185.393 249.781 186.678C249.313 187.963 248.64 188.962 247.76 189.675C246.881 190.388 245.886 190.745 244.775 190.745C244.23 190.745 243.76 190.654 243.367 190.474C242.987 190.283 242.705 190.017 242.519 189.675H242.487L241.002 193.757H239.03L243.032 182.762H244.907L244.589 183.681H244.621C245.069 183.33 245.562 183.063 246.098 182.883C246.633 182.702 247.179 182.612 247.735 182.612ZM246.674 184.118C246.268 184.118 245.87 184.198 245.48 184.359C245.09 184.519 244.748 184.74 244.454 185.021C244.173 185.293 243.967 185.609 243.836 185.97L243.32 187.386C243.193 187.737 243.168 188.054 243.248 188.335C243.338 188.616 243.519 188.837 243.792 188.998C244.064 189.158 244.404 189.239 244.81 189.239C245.494 189.239 246.098 189.018 246.622 188.576C247.146 188.134 247.558 187.502 247.858 186.678C248.157 185.855 248.206 185.222 248.003 184.78C247.801 184.339 247.358 184.118 246.674 184.118ZM249.923 190.594L250.696 188.47H252.972L252.199 190.594H249.923Z" fill="#ADADAD"/>
<path d="M214.609 221.118C213.272 221.118 212.422 220.722 212.06 219.931C211.698 219.139 211.816 217.921 212.415 216.277C213.013 214.633 213.781 213.415 214.72 212.624C215.658 211.832 216.796 211.436 218.133 211.436C219.471 211.436 220.316 211.832 220.669 212.624C221.031 213.415 220.913 214.633 220.314 216.277C219.716 217.921 218.948 219.139 218.009 219.931C217.08 220.722 215.947 221.118 214.609 221.118ZM215.131 219.685C215.891 219.685 216.545 219.41 217.094 218.859C217.642 218.308 218.13 217.448 218.556 216.277C218.985 215.098 219.124 214.237 218.973 213.695C218.826 213.144 218.372 212.869 217.612 212.869C216.852 212.869 216.193 213.144 215.635 213.695C215.09 214.237 214.602 215.098 214.173 216.277C213.747 217.448 213.608 218.308 213.756 218.859C213.912 219.41 214.371 219.685 215.131 219.685ZM226.961 211.436C227.786 211.436 228.432 211.574 228.899 211.849C229.367 212.124 229.645 212.529 229.735 213.063C229.834 213.596 229.739 214.259 229.451 215.051C229.019 216.238 228.394 217.275 227.577 218.162C226.772 219.04 225.824 219.733 224.732 220.24C223.641 220.748 222.446 221.037 221.148 221.105L221.32 219.801C222.478 219.741 223.486 219.513 224.344 219.117C225.206 218.713 225.947 218.123 226.568 217.349L226.545 217.336C226.15 217.516 225.747 217.654 225.337 217.749C224.936 217.843 224.516 217.891 224.076 217.891C223.06 217.891 222.36 217.611 221.977 217.052C221.604 216.492 221.597 215.718 221.958 214.728C222.208 214.039 222.574 213.45 223.055 212.959C223.536 212.469 224.107 212.094 224.769 211.836C225.434 211.569 226.165 211.436 226.961 211.436ZM226.459 212.817C225.781 212.817 225.198 212.985 224.709 213.321C224.233 213.648 223.887 214.108 223.671 214.702C223.454 215.296 223.455 215.761 223.671 216.096C223.9 216.423 224.336 216.587 224.977 216.587C225.435 216.587 225.853 216.518 226.233 216.38C226.616 216.234 226.945 216.023 227.219 215.748C227.506 215.464 227.718 215.132 227.856 214.754C227.978 214.418 228.019 214.104 227.979 213.811C227.948 213.519 227.81 213.282 227.564 213.101C227.331 212.912 226.962 212.817 226.459 212.817ZM227.865 221.506L236.562 211.049H238.238L229.541 221.506H227.865ZM239.552 220.989L242.324 213.372H242.296L238.07 215.322L238.088 213.915L242.982 211.565H244.727L241.296 220.989H239.552ZM248.38 220.989L251.152 213.372H251.124L246.898 215.322L246.915 213.915L251.81 211.565H253.554L250.124 220.989H248.38Z" fill="#1A1E1C"/>
<path d="M69.4365 220.989L72.8666 211.565H75.889C77.3636 211.565 78.3583 211.789 78.8732 212.236C79.3972 212.684 79.4822 213.394 79.1282 214.366C78.7805 215.322 78.1908 216.036 77.3591 216.509C76.5365 216.983 75.4566 217.22 74.1194 217.22H71.5641L72.0152 215.98H74.3507C75.2849 215.98 76.002 215.86 76.5018 215.619C77.014 215.369 77.3703 214.969 77.5708 214.418C77.7712 213.867 77.7047 213.471 77.3711 213.23C77.0498 212.981 76.422 212.856 75.4878 212.856H73.9079L70.9477 220.989H69.4365ZM75.3027 220.989L72.3247 216.677H74.2344L77.2673 220.989H75.3027ZM78.9084 220.989L82.3385 211.565H88.9329L88.4724 212.83H83.3892L82.4401 215.438H87.2485L86.7974 216.677H81.989L80.8801 219.724H85.9633L85.5028 220.989H78.9084ZM93.7844 220.989L97.2145 211.565H98.7258L95.2956 220.989H93.7844ZM87.6022 220.989L91.0323 211.565H92.5435L89.1134 220.989H87.6022ZM89.9178 216.703L90.3877 215.412H96.5699L96.1 216.703H89.9178ZM96.6484 220.989L103.733 211.565H105.78L105.99 220.989H104.328L104.322 212.779H104.294L98.3108 220.989H96.6484ZM99.4042 218.627L99.8741 217.336H105.438L104.968 218.627H99.4042ZM107.338 220.989L110.768 211.565H112.416L114.613 218.665H114.64L117.225 211.565H118.736L115.306 220.989H113.657L111.461 213.889H111.433L108.849 220.989H107.338ZM121.492 220.989L124.922 211.565H127.944C129.419 211.565 130.414 211.789 130.929 212.236C131.453 212.684 131.538 213.394 131.184 214.366C130.836 215.322 130.246 216.036 129.414 216.509C128.592 216.983 127.512 217.22 126.175 217.22H123.619L124.071 215.98H126.406C127.34 215.98 128.057 215.86 128.557 215.619C129.069 215.369 129.426 214.969 129.626 214.418C129.827 213.867 129.76 213.471 129.426 213.23C129.105 212.981 128.477 212.856 127.543 212.856H125.963L123.003 220.989H121.492ZM127.358 220.989L124.38 216.677H126.29L129.323 220.989H127.358ZM129.975 220.989L137.059 211.565H139.106L139.317 220.989H137.654L137.648 212.779H137.62L131.637 220.989H129.975ZM132.73 218.627L133.2 217.336H138.764L138.294 218.627H132.73ZM140.787 220.989L144.218 211.565H145.784L142.354 220.989H140.787ZM150.992 220.989L154.422 211.565H155.933L152.503 220.989H150.992ZM144.809 220.989L148.24 211.565H149.751L146.321 220.989H144.809ZM147.125 216.703L147.595 215.412H153.777L153.307 216.703H147.125ZM153.856 220.989L160.94 211.565H162.987L163.198 220.989H161.535L161.529 212.779H161.501L155.518 220.989H153.856ZM156.611 218.627L157.081 217.336H162.645L162.175 218.627H156.611ZM164.545 220.989L167.975 211.565H169.624L171.82 218.665H171.848L174.432 211.565H175.943L172.513 220.989H170.864L168.668 213.889H168.64L166.056 220.989H164.545Z" fill="#1A1E1C"/>
<path fill-rule="evenodd" clip-rule="evenodd" d="M150.149 53.0128C153.74 50.6531 156.685 47.2676 158.054 43.5055C159.423 39.7434 158.943 36.3579 157.07 33.9982C160.284 31.8861 164.018 30.5957 167.602 30.5957C175.189 30.5957 179.236 36.3757 176.641 43.5055C174.046 50.6353 165.791 56.4153 158.204 56.4153C154.62 56.4153 151.826 55.1249 150.149 53.0128ZM150.149 53.0128C146.934 55.1249 143.201 56.4153 139.617 56.4153C132.03 56.4153 127.982 50.6353 130.577 43.5055C133.172 36.3757 141.427 30.5957 149.015 30.5957C152.598 30.5957 155.393 31.8861 157.07 33.9982C153.479 36.3579 150.534 39.7434 149.165 43.5055C147.795 47.2676 148.276 50.6531 150.149 53.0128Z" fill="#1A1E1C"/>
<path fill-rule="evenodd" clip-rule="evenodd" d="M489.308 30.8458C490.106 30.4151 490.947 30.5545 491.186 31.1572C492.458 34.3662 493.377 39.8394 492.012 45.9356C490.637 52.0736 486.917 58.9256 478.86 64.6227C478.114 65.15 477.208 65.1555 476.837 64.6352C476.465 64.1148 476.768 63.2656 477.514 62.7384C484.541 57.7696 487.815 51.8185 489.054 46.2855C490.303 40.7107 489.456 35.645 488.295 32.717C488.056 32.1143 488.51 31.2766 489.308 30.8458ZM481.33 35.765C482.128 35.3334 482.969 35.4716 483.21 36.0736C484.111 38.3317 484.763 42.1725 483.804 46.4613C482.836 50.7925 480.196 55.6617 474.462 59.7062C473.716 60.2326 472.811 60.2369 472.44 59.7157C472.07 59.1945 472.374 58.3453 473.121 57.8189C477.822 54.5024 480.014 50.5357 480.846 46.8122C481.688 43.0464 481.11 39.6139 480.321 37.6366C480.081 37.0345 480.533 36.1966 481.33 35.765ZM474.613 41.1338C475.409 40.6994 476.253 40.8335 476.497 41.4335C476.993 42.6542 477.356 44.7148 476.841 47.0336C476.316 49.3966 474.851 52.1046 471.65 54.3459C470.902 54.8697 469.999 54.8697 469.632 54.3459C469.265 53.8221 469.574 52.9728 470.322 52.449C472.485 50.9347 473.494 49.1345 473.882 47.388C474.28 45.5973 473.995 43.9471 473.612 43.0068C473.368 42.4069 473.816 41.5683 474.613 41.1338ZM468.669 46.6911C468.144 46.6911 467.572 47.0914 467.392 47.5853C467.213 48.0791 467.493 48.4795 468.019 48.4795C468.544 48.4795 469.116 48.0791 469.296 47.5853C469.475 47.0914 469.195 46.6911 468.669 46.6911ZM464.538 47.5853C465.257 45.6099 467.544 44.0085 469.646 44.0085C471.748 44.0085 472.869 45.6099 472.15 47.5853C471.431 49.5606 469.144 51.162 467.042 51.162C464.94 51.162 463.819 49.5606 464.538 47.5853Z" fill="#1A1E1C"/>
<path d="M99.5032 144.865L103.928 132.708H103.882L97.5803 136.559L98.8646 133.031L105.22 129.158H108.517L102.8 144.865H99.5032ZM110.782 145.08C109.5 145.08 108.545 144.872 107.918 144.456C107.306 144.04 106.997 143.358 106.99 142.412C106.999 141.465 107.291 140.203 107.865 138.625C108.674 136.402 109.64 134.587 110.762 133.181C111.89 131.761 113.22 130.707 114.753 130.018C116.285 129.33 118.065 128.971 120.09 128.943L119.119 131.611C118.203 131.611 117.326 131.754 116.489 132.041C115.657 132.313 114.931 132.694 114.311 133.181C113.691 133.669 113.23 134.243 112.929 134.903H113.021C113.526 134.687 113.986 134.537 114.399 134.451C114.812 134.365 115.239 134.322 115.682 134.322C117.148 134.322 118.07 134.745 118.449 135.591C118.848 136.423 118.727 137.721 118.084 139.486C117.359 141.479 116.424 142.914 115.282 143.789C114.159 144.649 112.659 145.08 110.782 145.08ZM111.745 142.498C112.431 142.498 113.019 142.268 113.506 141.809C113.999 141.336 114.423 140.612 114.778 139.636C115.133 138.661 115.234 137.944 115.08 137.485C114.932 137.011 114.515 136.774 113.828 136.774C113.141 136.774 112.551 137.011 112.058 137.485C111.57 137.944 111.149 138.661 110.794 139.636C110.439 140.612 110.336 141.336 110.484 141.809C110.637 142.268 111.058 142.498 111.745 142.498ZM124.783 138.065C124.295 138.065 123.955 137.929 123.765 137.657C123.574 137.384 123.559 137.026 123.721 136.581C123.888 136.122 124.164 135.763 124.548 135.505C124.937 135.232 125.376 135.096 125.864 135.096C126.353 135.096 126.692 135.232 126.883 135.505C127.079 135.763 127.094 136.122 126.927 136.581C126.765 137.026 126.489 137.384 126.1 137.657C125.711 137.929 125.272 138.065 124.783 138.065ZM122.23 145.08C120.964 145.08 120.042 144.843 119.466 144.37C118.896 143.882 118.641 143.093 118.702 142.003C118.763 140.913 119.123 139.464 119.78 137.657L120.25 136.366C120.913 134.544 121.609 133.095 122.336 132.019C123.069 130.929 123.895 130.147 124.815 129.674C125.741 129.186 126.837 128.943 128.104 128.943C129.356 128.943 130.267 129.186 130.837 129.674C131.428 130.147 131.693 130.929 131.632 132.019C131.576 133.095 131.217 134.544 130.554 136.366L130.084 137.657C129.426 139.464 128.731 140.913 127.998 142.003C127.266 143.093 126.429 143.882 125.488 144.37C124.568 144.843 123.482 145.08 122.23 145.08ZM123.202 142.412C123.721 142.412 124.157 142.283 124.51 142.024C124.864 141.766 125.214 141.286 125.562 140.583C125.93 139.866 126.364 138.819 126.865 137.442L127.179 136.581C127.68 135.204 128.005 134.164 128.154 133.461C128.323 132.744 128.325 132.256 128.16 131.998C127.994 131.74 127.652 131.611 127.133 131.611C126.629 131.611 126.193 131.74 125.824 131.998C125.471 132.256 125.11 132.744 124.742 133.461C124.395 134.164 123.97 135.204 123.469 136.581L123.156 137.442C122.655 138.819 122.319 139.866 122.15 140.583C122.001 141.286 122.009 141.766 122.175 142.024C122.356 142.283 122.698 142.412 123.202 142.412ZM130.118 142.283C131.537 141.236 132.754 140.303 133.769 139.486C134.789 138.654 135.641 137.908 136.324 137.248C137.012 136.574 137.554 135.964 137.951 135.419C138.348 134.874 138.635 134.357 138.812 133.87C139.089 133.11 139.117 132.55 138.897 132.192C138.676 131.833 138.192 131.654 137.444 131.654C136.467 131.654 135.218 131.919 133.697 132.45L134.715 129.653C136.032 129.179 137.515 128.943 139.163 128.943C140.827 128.943 141.913 129.316 142.42 130.061C142.932 130.793 142.901 131.948 142.327 133.526C142.086 134.185 141.742 134.86 141.293 135.548C140.864 136.222 140.321 136.918 139.663 137.635C139.005 138.352 138.24 139.091 137.368 139.851C136.511 140.612 135.532 141.393 134.431 142.197L134.399 142.283H139.277L138.337 144.865H129.178L130.118 142.283ZM170.578 138.065C170.089 138.065 169.75 137.929 169.559 137.657C169.368 137.384 169.354 137.026 169.515 136.581C169.683 136.122 169.958 135.763 170.342 135.505C170.731 135.232 171.17 135.096 171.659 135.096C172.147 135.096 172.487 135.232 172.678 135.505C172.874 135.763 172.888 136.122 172.721 136.581C172.559 137.026 172.284 137.384 171.894 137.657C171.505 137.929 171.066 138.065 170.578 138.065ZM168.025 145.08C166.758 145.08 165.837 144.843 165.261 144.37C164.69 143.882 164.436 143.093 164.497 142.003C164.558 140.913 164.917 139.464 165.575 137.657L166.045 136.366C166.708 134.544 167.403 133.095 168.13 132.019C168.863 130.929 169.689 130.147 170.61 129.674C171.535 129.186 172.631 128.943 173.898 128.943C175.15 128.943 176.061 129.186 176.632 129.674C177.223 130.147 177.488 130.929 177.427 132.019C177.371 133.095 177.012 134.544 176.348 136.366L175.879 137.657C175.221 139.464 174.526 140.913 173.793 142.003C173.06 143.093 172.224 143.882 171.283 144.37C170.363 144.843 169.277 145.08 168.025 145.08ZM168.996 142.412C169.515 142.412 169.951 142.283 170.305 142.024C170.658 141.766 171.009 141.286 171.356 140.583C171.724 139.866 172.158 138.819 172.66 137.442L172.973 136.581C173.474 135.204 173.799 134.164 173.948 133.461C174.118 132.744 174.12 132.256 173.954 131.998C173.789 131.74 173.446 131.611 172.927 131.611C172.424 131.611 171.987 131.74 171.619 131.998C171.265 132.256 170.904 132.744 170.537 133.461C170.189 134.164 169.765 135.204 169.264 136.581L168.95 137.442C168.449 138.819 168.114 139.866 167.944 140.583C167.795 141.286 167.804 141.766 167.969 142.024C168.15 142.283 168.492 142.412 168.996 142.412ZM185.347 128.943C186.645 128.943 187.599 129.151 188.211 129.567C188.823 129.983 189.124 130.664 189.116 131.611C189.122 132.557 188.838 133.82 188.264 135.397C187.46 137.606 186.494 139.421 185.367 140.841C184.239 142.261 182.909 143.315 181.376 144.004C179.859 144.693 178.08 145.051 176.039 145.08L177.01 142.412C177.941 142.412 178.815 142.276 179.632 142.003C180.469 141.716 181.197 141.329 181.818 140.841C182.443 140.339 182.904 139.765 183.2 139.12H183.108C182.602 139.335 182.143 139.486 181.73 139.572C181.317 139.658 180.889 139.701 180.447 139.701C178.981 139.701 178.049 139.285 177.65 138.453C177.271 137.606 177.402 136.301 178.044 134.537C178.77 132.543 179.694 131.116 180.816 130.255C181.959 129.38 183.469 128.943 185.347 128.943ZM184.384 131.525C183.697 131.525 183.108 131.761 182.615 132.235C182.127 132.694 181.706 133.411 181.351 134.386C180.996 135.362 180.892 136.086 181.041 136.559C181.194 137.018 181.614 137.248 182.301 137.248C182.988 137.248 183.575 137.018 184.063 136.559C184.556 136.086 184.98 135.362 185.335 134.386C185.69 133.411 185.791 132.694 185.637 132.235C185.489 131.761 185.071 131.525 184.384 131.525ZM191.092 144.865L195.517 132.708H195.471L189.169 136.559L190.453 133.031L196.809 129.158H200.106L194.389 144.865H191.092ZM202.541 144.865L206.965 132.708H206.92L200.618 136.559L201.902 133.031L208.257 129.158H211.555L205.838 144.865H202.541ZM233.155 142.283C234.574 141.236 235.791 140.303 236.806 139.486C237.827 138.654 238.678 137.908 239.361 137.248C240.049 136.574 240.592 135.964 240.988 135.419C241.385 134.874 241.672 134.357 241.85 133.87C242.127 133.11 242.155 132.55 241.934 132.192C241.714 131.833 241.229 131.654 240.481 131.654C239.504 131.654 238.255 131.919 236.734 132.45L237.752 129.653C239.069 129.179 240.552 128.943 242.201 128.943C243.865 128.943 244.95 129.316 245.457 130.061C245.969 130.793 245.938 131.948 245.364 133.526C245.124 134.185 244.779 134.86 244.33 135.548C243.902 136.222 243.358 136.918 242.7 137.635C242.043 138.352 241.278 139.091 240.406 139.851C239.549 140.612 238.57 141.393 237.468 142.197L237.437 142.283H242.314L241.374 144.865H232.215L233.155 142.283ZM250.718 138.065C250.23 138.065 249.89 137.929 249.699 137.657C249.508 137.384 249.494 137.026 249.656 136.581C249.823 136.122 250.098 135.763 250.482 135.505C250.872 135.232 251.31 135.096 251.799 135.096C252.287 135.096 252.627 135.232 252.818 135.505C253.014 135.763 253.028 136.122 252.861 136.581C252.699 137.026 252.424 137.384 252.035 137.657C251.645 137.929 251.207 138.065 250.718 138.065ZM248.165 145.08C246.898 145.08 245.977 144.843 245.401 144.37C244.831 143.882 244.576 143.093 244.637 142.003C244.698 140.913 245.057 139.464 245.715 137.657L246.185 136.366C246.848 134.544 247.543 133.095 248.271 132.019C249.003 130.929 249.83 130.147 250.75 129.674C251.675 129.186 252.772 128.943 254.039 128.943C255.29 128.943 256.201 129.186 256.772 129.674C257.363 130.147 257.628 130.929 257.567 132.019C257.511 133.095 257.152 134.544 256.489 136.366L256.019 137.657C255.361 139.464 254.666 140.913 253.933 142.003C253.201 143.093 252.364 143.882 251.423 144.37C250.503 144.843 249.417 145.08 248.165 145.08ZM249.136 142.412C249.655 142.412 250.091 142.283 250.445 142.024C250.798 141.766 251.149 141.286 251.496 140.583C251.864 139.866 252.299 138.819 252.8 137.442L253.113 136.581C253.614 135.204 253.939 134.164 254.088 133.461C254.258 132.744 254.26 132.256 254.094 131.998C253.929 131.74 253.587 131.611 253.068 131.611C252.564 131.611 252.128 131.74 251.759 131.998C251.405 132.256 251.045 132.744 250.677 133.461C250.329 134.164 249.905 135.204 249.404 136.581L249.091 137.442C248.589 138.819 248.254 139.866 248.085 140.583C247.936 141.286 247.944 141.766 248.109 142.024C248.29 142.283 248.632 142.412 249.136 142.412ZM259.784 144.865L264.208 132.708H264.163L257.861 136.559L259.145 133.031L265.501 129.158H268.798L263.081 144.865H259.784ZM276.936 128.943C278.233 128.943 279.188 129.151 279.8 129.567C280.412 129.983 280.713 130.664 280.704 131.611C280.711 132.557 280.427 133.82 279.853 135.397C279.049 137.606 278.083 139.421 276.956 140.841C275.828 142.261 274.498 143.315 272.965 144.004C271.448 144.693 269.668 145.051 267.628 145.08L268.599 142.412C269.53 142.412 270.404 142.276 271.221 142.003C272.058 141.716 272.786 141.329 273.407 140.841C274.032 140.339 274.493 139.765 274.789 139.12H274.697C274.191 139.335 273.732 139.486 273.319 139.572C272.906 139.658 272.478 139.701 272.036 139.701C270.57 139.701 269.638 139.285 269.238 138.453C268.86 137.606 268.991 136.301 269.633 134.537C270.359 132.543 271.283 131.116 272.405 130.255C273.548 129.38 275.058 128.943 276.936 128.943ZM275.973 131.525C275.286 131.525 274.696 131.761 274.204 132.235C273.716 132.694 273.295 133.411 272.94 134.386C272.585 135.362 272.481 136.086 272.629 136.559C272.783 137.018 273.203 137.248 273.89 137.248C274.577 137.248 275.164 137.018 275.652 136.559C276.145 136.086 276.569 135.362 276.924 134.386C277.279 133.411 277.379 132.694 277.226 132.235C277.078 131.761 276.66 131.525 275.973 131.525ZM301.847 142.283C303.266 141.236 304.483 140.303 305.498 139.486C306.518 138.654 307.37 137.908 308.053 137.248C308.741 136.574 309.283 135.964 309.68 135.419C310.077 134.874 310.364 134.357 310.542 133.87C310.818 133.11 310.846 132.55 310.626 132.192C310.405 131.833 309.921 131.654 309.173 131.654C308.196 131.654 306.947 131.919 305.426 132.45L306.444 129.653C307.761 129.179 309.244 128.943 310.892 128.943C312.556 128.943 313.642 129.316 314.149 130.061C314.661 130.793 314.63 131.948 314.056 133.526C313.815 134.185 313.471 134.86 313.022 135.548C312.593 136.222 312.05 136.918 311.392 137.635C310.734 138.352 309.969 139.091 309.097 139.851C308.24 140.612 307.261 141.393 306.16 142.197L306.129 142.283H311.006L310.066 144.865H300.907L301.847 142.283ZM319.41 138.065C318.921 138.065 318.582 137.929 318.391 137.657C318.2 137.384 318.185 137.026 318.347 136.581C318.514 136.122 318.79 135.763 319.174 135.505C319.563 135.232 320.002 135.096 320.49 135.096C320.979 135.096 321.319 135.232 321.509 135.505C321.706 135.763 321.72 136.122 321.553 136.581C321.391 137.026 321.116 137.384 320.726 137.657C320.337 137.929 319.898 138.065 319.41 138.065ZM316.857 145.08C315.59 145.08 314.668 144.843 314.093 144.37C313.522 143.882 313.268 143.093 313.329 142.003C313.389 140.913 313.749 139.464 314.407 137.657L314.877 136.366C315.54 134.544 316.235 133.095 316.962 132.019C317.695 130.929 318.521 130.147 319.442 129.674C320.367 129.186 321.463 128.943 322.73 128.943C323.982 128.943 324.893 129.186 325.464 129.674C326.054 130.147 326.319 130.929 326.259 132.019C326.203 133.095 325.843 134.544 325.18 136.366L324.71 137.657C324.053 139.464 323.357 140.913 322.625 142.003C321.892 143.093 321.055 143.882 320.115 144.37C319.194 144.843 318.108 145.08 316.857 145.08ZM317.828 142.412C318.347 142.412 318.783 142.283 319.137 142.024C319.49 141.766 319.84 141.286 320.188 140.583C320.556 139.866 320.99 138.819 321.492 137.442L321.805 136.581C322.306 135.204 322.631 134.164 322.78 133.461C322.95 132.744 322.951 132.256 322.786 131.998C322.62 131.74 322.278 131.611 321.759 131.611C321.255 131.611 320.819 131.74 320.45 131.998C320.097 132.256 319.736 132.744 319.368 133.461C319.021 134.164 318.597 135.204 318.095 136.581L317.782 137.442C317.281 138.819 316.946 139.866 316.776 140.583C316.627 141.286 316.636 141.766 316.801 142.024C316.982 142.283 317.324 142.412 317.828 142.412ZM324.744 142.283C326.163 141.236 327.38 140.303 328.395 139.486C329.416 138.654 330.267 137.908 330.95 137.248C331.638 136.574 332.18 135.964 332.577 135.419C332.974 134.874 333.261 134.357 333.439 133.87C333.715 133.11 333.744 132.55 333.523 132.192C333.302 131.833 332.818 131.654 332.07 131.654C331.093 131.654 329.844 131.919 328.323 132.45L329.341 129.653C330.658 129.179 332.141 128.943 333.79 128.943C335.453 128.943 336.539 129.316 337.046 130.061C337.558 130.793 337.527 131.948 336.953 133.526C336.713 134.185 336.368 134.86 335.919 135.548C335.49 136.222 334.947 136.918 334.289 137.635C333.631 138.352 332.866 139.091 331.994 139.851C331.138 140.612 330.159 141.393 329.057 142.197L329.026 142.283H333.903L332.963 144.865H323.804L324.744 142.283ZM339.924 144.865L344.349 132.708H344.303L338.001 136.559L339.285 133.031L345.641 129.158H348.938L343.221 144.865H339.924Z" fill="#1A1E1C"/>
<path d="M391.641 200.686C391.88 200.031 392.639 199.499 393.336 199.499H404.074C404.772 199.499 405.144 200.031 404.906 200.686L402.154 208.246C401.987 208.704 401.555 209.121 401.044 209.318L394.8 211.721C394.401 211.874 394.002 211.874 393.714 211.721L389.219 209.318C388.851 209.121 388.723 208.704 388.889 208.246L391.641 200.686Z" fill="#1A1E1C"/>
<path d="M411.854 200.686C412.092 200.031 412.851 199.499 413.549 199.499H416.707C417.405 199.499 417.777 200.031 417.539 200.686L416.674 203.06C416.436 203.716 415.677 204.247 414.979 204.247H411.821C411.123 204.247 410.751 203.716 410.99 203.06L411.854 200.686Z" fill="#1A1E1C"/>
<path d="M424.487 200.686C424.725 200.031 425.484 199.499 426.182 199.499H436.92C437.618 199.499 437.99 200.031 437.751 200.686L435.159 207.809C434.92 208.464 434.161 208.996 433.464 208.996H422.726C422.028 208.996 421.656 208.464 421.894 207.809L424.487 200.686Z" fill="#1A1E1C"/>
<path d="M387.104 213.151C387.343 212.495 388.102 211.964 388.8 211.964H399.538C400.235 211.964 400.608 212.495 400.369 213.151L397.776 220.273C397.538 220.929 396.779 221.461 396.081 221.461H385.343C384.645 221.461 384.273 220.929 384.512 220.273L387.104 213.151Z" fill="#1A1E1C"/>
<path d="M405.255 208.402C405.494 207.747 406.253 207.215 406.951 207.215H417.689C418.386 207.215 418.759 207.747 418.52 208.402L412.471 225.022C412.232 225.677 411.473 226.209 410.776 226.209H400.038C399.34 226.209 398.968 225.677 399.206 225.022L405.255 208.402Z" fill="#1A1E1C"/>
<path d="M419.95 213.151C420.189 212.495 420.948 211.964 421.645 211.964H432.383C433.081 211.964 433.453 212.495 433.215 213.151L430.622 220.273C430.383 220.929 429.624 221.461 428.927 221.461H418.189C417.491 221.461 417.119 220.929 417.358 220.273L419.95 213.151Z" fill="#1A1E1C"/>
<path d="M382.568 225.615C382.806 224.96 383.565 224.428 384.263 224.428H395.001C395.699 224.428 396.071 224.96 395.832 225.615L393.24 232.738C393.001 233.394 392.242 233.925 391.544 233.925H380.806C380.109 233.925 379.736 233.394 379.975 232.738L382.568 225.615Z" fill="#1A1E1C"/>
<path d="M401.052 230.364C401.291 229.708 402.05 229.177 402.747 229.177H405.906C406.603 229.177 406.975 229.708 406.737 230.364L405.873 232.738C405.634 233.394 404.875 233.925 404.177 233.925H401.019C400.321 233.925 399.949 233.394 400.188 232.738L401.052 230.364Z" fill="#1A1E1C"/>
<path d="M415.572 225.178C415.739 224.72 416.171 224.303 416.683 224.106L422.926 221.704C423.326 221.55 423.725 221.55 424.012 221.704L428.507 224.106C428.875 224.303 429.004 224.72 428.837 225.178L426.085 232.738C425.847 233.394 425.088 233.925 424.39 233.925H413.652C412.954 233.925 412.582 233.394 412.821 232.738L415.572 225.178Z" fill="#1A1E1C"/>
</g>
<defs>
<filter id="filter0_d_1_138" x="0.108756" y="0.694485" width="551.598" height="301.374" filterUnits="userSpaceOnUse" color-interpolation-filters="sRGB">
<feFlood flood-opacity="0" result="BackgroundImageFix"/>
<feColorMatrix in="SourceAlpha" type="matrix" values="0 0 0 0 0 0 0 0 0 0 0 0 0 0 0 0 0 0 127 0" result="hardAlpha"/>
<feOffset dx="3.41884" dy="19.6583"/>
<feGaussianBlur stdDeviation="10.2565"/>
<feComposite in2="hardAlpha" operator="out"/>
<feColorMatrix type="matrix" values="0 0 0 0 0 0 0 0 0 0 0 0 0 0 0 0 0 0 0.08 0"/>
<feBlend mode="normal" in2="BackgroundImageFix" result="effect1_dropShadow_1_138"/>
<feBlend mode="normal" in="SourceGraphic" in2="effect1_dropShadow_1_138" result="shape"/>
</filter>
<linearGradient id="paint0_linear_1_138" x1="32.0561" y1="12.5935" x2="264.463" y2="274.767" gradientUnits="userSpaceOnUse">
<stop stop-color="white"/>
<stop offset="1" stop-color="white" stop-opacity="0.55"/>
</linearGradient>
</defs>
</svg>
