<svg width="530" height="262" viewBox="0 0 530 262" fill="none" xmlns="http://www.w3.org/2000/svg">
<rect width="435.047" height="274.766" rx="36.6355" transform="matrix(1 0 -0.34202 0.939692 94.9529 2)" fill="#2BB32A" stroke="url(#paint0_linear_1_149)" stroke-opacity="0.5" stroke-width="2.28972"/>
<path d="M72.0636 194.272L76.0654 183.277H78.1971L80.5658 191.169H80.5978L83.4704 183.277H85.4578L81.456 194.272H79.3243L76.9717 186.38H76.9396L74.0671 194.272H72.0636ZM85.8578 194.423C85.0243 194.423 84.4439 194.212 84.1166 193.79C83.8035 193.358 83.7804 192.776 84.0472 192.043C84.3798 191.129 85.0149 190.426 85.9527 189.934C86.8904 189.442 88.0592 189.196 89.459 189.196H90.629C90.7679 188.815 90.8204 188.523 90.7867 188.323C90.7673 188.112 90.6493 187.966 90.4328 187.886C90.2269 187.806 89.9049 187.765 89.4668 187.765C88.9326 187.765 88.3587 187.816 87.7451 187.916C87.1422 188.016 86.5532 188.167 85.9778 188.368L86.2531 186.907C86.8675 186.716 87.5261 186.565 88.2288 186.455C88.9315 186.345 89.6141 186.289 90.2766 186.289C91.1207 186.289 91.7485 186.385 92.1599 186.575C92.582 186.766 92.8176 187.088 92.8669 187.539C92.9161 187.991 92.8055 188.589 92.5351 189.332L90.737 194.272H88.8617L89.1746 193.368H89.1426C88.7408 193.679 88.2309 193.936 87.6128 194.136C86.9984 194.327 86.4134 194.423 85.8578 194.423ZM87.0893 192.977C87.4846 192.977 87.8717 192.911 88.2504 192.781C88.6328 192.64 88.9622 192.454 89.2386 192.224C89.515 191.993 89.7062 191.732 89.8122 191.44L90.1576 190.491H89.276C88.3571 190.491 87.6205 190.607 87.0663 190.838C86.5264 191.059 86.1724 191.4 86.0043 191.862C85.8801 192.203 85.9096 192.475 86.093 192.675C86.2763 192.876 86.6084 192.977 87.0893 192.977ZM92.847 194.272L95.6976 186.44H97.5248L97.2224 187.359H97.2545C97.6779 187.017 98.1309 186.756 98.6134 186.575C99.0996 186.385 99.6205 186.289 100.176 186.289C100.721 186.289 101.146 186.385 101.45 186.575C101.769 186.756 101.947 187.017 101.983 187.359H102.015C102.471 186.987 102.938 186.716 103.417 186.545C103.896 186.375 104.418 186.289 104.985 186.289C105.882 186.289 106.452 186.515 106.693 186.967C106.939 187.409 106.888 188.107 106.54 189.061L104.644 194.272H102.736L104.469 189.512C104.684 188.92 104.74 188.488 104.635 188.217C104.531 187.946 104.255 187.811 103.806 187.811C103.272 187.811 102.789 187.976 102.359 188.308C101.928 188.639 101.612 189.081 101.411 189.633L99.723 194.272H97.7996L99.5813 189.377C99.7676 188.865 99.7961 188.478 99.6668 188.217C99.5411 187.946 99.2698 187.811 98.8531 187.811C98.5325 187.811 98.2095 187.891 97.8839 188.052C97.5689 188.212 97.282 188.428 97.023 188.699C96.7748 188.97 96.5867 189.282 96.4588 189.633L94.7703 194.272H92.847ZM110.714 194.423C109.24 194.423 108.235 194.071 107.7 193.368C107.165 192.665 107.135 191.661 107.61 190.356C108.071 189.091 108.796 188.097 109.786 187.374C110.786 186.651 111.922 186.289 113.194 186.289C114.422 186.289 115.249 186.631 115.674 187.314C116.098 187.996 116.082 188.965 115.626 190.22C115.574 190.361 115.512 190.517 115.44 190.687C115.367 190.858 115.31 190.983 115.27 191.064H108.442L108.93 189.723H114.252L113.815 190.13C114.115 189.307 114.165 188.699 113.966 188.308C113.781 187.906 113.351 187.705 112.678 187.705C111.962 187.705 111.341 187.916 110.813 188.338C110.3 188.749 109.895 189.362 109.599 190.175L109.408 190.702C109.13 191.465 109.137 192.033 109.429 192.404C109.725 192.766 110.306 192.946 111.171 192.946C111.62 192.946 112.115 192.906 112.658 192.826C113.203 192.736 113.7 192.62 114.146 192.48L113.86 193.925C113.399 194.076 112.891 194.197 112.334 194.287C111.778 194.377 111.238 194.423 110.714 194.423Z" fill="#595959"/>
<path d="M108.425 109.433C107.153 109.433 106.14 109.208 105.386 108.756C104.631 108.304 104.162 107.656 103.977 106.813C103.803 105.969 103.93 104.96 104.358 103.785C104.789 102.601 105.397 101.591 106.181 100.758C106.98 99.9147 107.92 99.267 109.004 98.8152C110.087 98.3633 111.265 98.1374 112.536 98.1374C113.99 98.1374 115.169 98.4336 116.076 99.026L115.008 100.683C114.13 100.1 113.125 99.8092 111.992 99.8092C111.148 99.8092 110.357 99.9699 109.621 100.291C108.888 100.602 108.248 101.054 107.701 101.647C107.154 102.239 106.729 102.952 106.426 103.785C106.126 104.609 106.032 105.322 106.144 105.924C106.26 106.517 106.569 106.973 107.072 107.295C107.578 107.606 108.253 107.762 109.097 107.762C110.198 107.762 111.415 107.47 112.749 106.888L112.611 108.545C111.273 109.137 109.878 109.433 108.425 109.433ZM114.296 109.283L117.147 101.451H119.038L118.517 102.927H118.549C118.951 102.586 119.383 102.294 119.845 102.053C120.321 101.802 120.81 101.617 121.314 101.496C121.821 101.366 122.325 101.3 122.827 101.3L122.246 102.897C121.573 102.897 120.915 103.017 120.272 103.258C119.639 103.499 119.082 103.826 118.601 104.237C118.134 104.639 117.809 105.091 117.627 105.593L116.284 109.283H114.296ZM124.838 109.433C123.363 109.433 122.359 109.082 121.824 108.379C121.289 107.676 121.259 106.672 121.734 105.367C122.195 104.102 122.92 103.108 123.909 102.385C124.91 101.662 126.046 101.3 127.317 101.3C128.546 101.3 129.373 101.642 129.798 102.324C130.222 103.007 130.206 103.976 129.749 105.231C129.698 105.372 129.636 105.528 129.563 105.698C129.491 105.869 129.434 105.994 129.394 106.075H122.566L123.054 104.734H128.376L127.939 105.141C128.239 104.318 128.289 103.71 128.089 103.319C127.904 102.917 127.475 102.716 126.802 102.716C126.086 102.716 125.464 102.927 124.937 103.349C124.424 103.76 124.019 104.373 123.723 105.186L123.531 105.713C123.254 106.476 123.261 107.044 123.553 107.415C123.849 107.777 124.43 107.957 125.295 107.957C125.744 107.957 126.239 107.917 126.781 107.837C127.327 107.747 127.823 107.631 128.27 107.491L127.984 108.936C127.523 109.087 127.015 109.208 126.458 109.298C125.902 109.388 125.362 109.433 124.838 109.433ZM132.984 109.433C131.872 109.433 131.137 109.077 130.776 108.364C130.416 107.651 130.47 106.652 130.938 105.367C131.405 104.082 132.079 103.083 132.958 102.37C133.837 101.657 134.833 101.3 135.944 101.3C136.5 101.3 136.969 101.391 137.352 101.571C137.735 101.752 138.017 102.018 138.199 102.37H138.247L139.733 98.288H141.672L137.671 109.283H135.827L136.13 108.364H136.098C135.664 108.706 135.171 108.972 134.621 109.162C134.085 109.343 133.539 109.433 132.984 109.433ZM134.045 107.927C134.462 107.927 134.859 107.847 135.238 107.686C135.628 107.526 135.97 107.305 136.265 107.024C136.56 106.743 136.771 106.426 136.899 106.075L137.414 104.659C137.546 104.298 137.565 103.981 137.471 103.71C137.381 103.429 137.205 103.208 136.943 103.047C136.681 102.887 136.336 102.806 135.909 102.806C135.235 102.806 134.632 103.027 134.097 103.469C133.573 103.911 133.161 104.544 132.861 105.367C132.561 106.19 132.513 106.823 132.715 107.265C132.928 107.706 133.372 107.927 134.045 107.927ZM143.512 100.065L144.159 98.288H146.146L145.499 100.065H143.512ZM140.157 109.283L142.991 101.496H144.979L142.144 109.283H140.157ZM148.311 109.433C147.327 109.433 146.686 109.243 146.387 108.861C146.088 108.48 146.095 107.857 146.41 106.994L147.89 102.927H146.031L146.568 101.451H148.427L149.359 98.8905H151.346L150.415 101.451H153.219L152.682 102.927H149.877L148.567 106.527C148.384 107.029 148.342 107.38 148.44 107.581C148.552 107.772 148.833 107.867 149.281 107.867C149.516 107.867 149.77 107.847 150.041 107.807C150.312 107.767 150.561 107.711 150.79 107.641L150.413 109.162C150.013 109.263 149.645 109.333 149.31 109.373C148.975 109.413 148.642 109.433 148.311 109.433ZM162.332 109.433C161.06 109.433 160.047 109.208 159.293 108.756C158.538 108.304 158.069 107.656 157.884 106.813C157.71 105.969 157.837 104.96 158.265 103.785C158.696 102.601 159.304 101.591 160.088 100.758C160.886 99.9147 161.827 99.267 162.911 98.8152C163.994 98.3633 165.172 98.1374 166.443 98.1374C167.896 98.1374 169.076 98.4336 169.982 99.026L168.915 100.683C168.037 100.1 167.031 99.8092 165.899 99.8092C165.055 99.8092 164.264 99.9699 163.528 100.291C162.794 100.602 162.155 101.054 161.608 101.647C161.061 102.239 160.636 102.952 160.332 103.785C160.033 104.609 159.939 105.322 160.051 105.924C160.166 106.517 160.476 106.973 160.978 107.295C161.485 107.606 162.16 107.762 163.004 107.762C164.105 107.762 165.322 107.47 166.656 106.888L166.518 108.545C165.18 109.137 163.785 109.433 162.332 109.433ZM170.042 109.433C169.208 109.433 168.628 109.223 168.3 108.801C167.987 108.369 167.964 107.787 168.231 107.054C168.564 106.14 169.199 105.437 170.137 104.945C171.074 104.453 172.243 104.207 173.643 104.207H174.813C174.952 103.826 175.004 103.534 174.971 103.334C174.951 103.123 174.833 102.977 174.617 102.897C174.411 102.816 174.089 102.776 173.651 102.776C173.117 102.776 172.543 102.827 171.929 102.927C171.326 103.027 170.737 103.178 170.162 103.379L170.437 101.918C171.051 101.727 171.71 101.576 172.413 101.466C173.115 101.356 173.798 101.3 174.46 101.3C175.305 101.3 175.932 101.396 176.344 101.586C176.766 101.777 177.002 102.099 177.051 102.55C177.1 103.002 176.989 103.6 176.719 104.343L174.921 109.283H173.046L173.359 108.379H173.327C172.925 108.69 172.415 108.947 171.797 109.147C171.182 109.338 170.597 109.433 170.042 109.433ZM171.273 107.988C171.669 107.988 172.056 107.922 172.434 107.792C172.817 107.651 173.146 107.465 173.423 107.235C173.699 107.004 173.89 106.743 173.996 106.451L174.342 105.502H173.46C172.541 105.502 171.804 105.618 171.25 105.849C170.71 106.07 170.356 106.411 170.188 106.873C170.064 107.214 170.094 107.486 170.277 107.686C170.46 107.887 170.792 107.988 171.273 107.988ZM177.031 109.283L179.882 101.451H181.773L181.252 102.927H181.284C181.686 102.586 182.118 102.294 182.579 102.053C183.055 101.802 183.545 101.617 184.048 101.496C184.555 101.366 185.06 101.3 185.562 101.3L184.981 102.897C184.308 102.897 183.65 103.017 183.006 103.258C182.374 103.499 181.817 103.826 181.336 104.237C180.869 104.639 180.544 105.091 180.361 105.593L179.018 109.283H177.031ZM186.515 109.433C185.404 109.433 184.668 109.077 184.308 108.364C183.947 107.651 184.001 106.652 184.469 105.367C184.937 104.082 185.61 103.083 186.489 102.37C187.369 101.657 188.364 101.3 189.475 101.3C190.031 101.3 190.5 101.391 190.883 101.571C191.266 101.752 191.549 102.018 191.731 102.37H191.779L193.264 98.288H195.204L191.202 109.283H189.359L189.661 108.364H189.629C189.195 108.706 188.703 108.972 188.152 109.162C187.616 109.343 187.071 109.433 186.515 109.433ZM187.576 107.927C187.993 107.927 188.391 107.847 188.77 107.686C189.159 107.526 189.502 107.305 189.796 107.024C190.091 106.743 190.302 106.426 190.43 106.075L190.945 104.659C191.077 104.298 191.096 103.981 191.002 103.71C190.912 103.429 190.736 103.208 190.474 103.047C190.212 102.887 189.867 102.806 189.44 102.806C188.767 102.806 188.163 103.027 187.628 103.469C187.104 103.911 186.692 104.544 186.392 105.367C186.093 106.19 186.044 106.823 186.246 107.265C186.46 107.706 186.903 107.927 187.576 107.927ZM198.133 109.283L202.135 98.288H204.267L206.636 106.18H206.668L209.54 98.288H211.528L207.526 109.283H205.394L203.041 101.391H203.009L200.137 109.283H198.133ZM213.578 109.433C212.232 109.433 211.318 109.082 210.837 108.379C210.37 107.666 210.372 106.662 210.843 105.367C211.315 104.072 212.042 103.073 213.024 102.37C214.021 101.657 215.192 101.3 216.539 101.3C217.885 101.3 218.797 101.657 219.275 102.37C219.756 103.073 219.761 104.072 219.29 105.367C218.818 106.662 218.084 107.666 217.088 108.379C216.094 109.082 214.925 109.433 213.578 109.433ZM214.116 107.957C214.853 107.957 215.492 107.742 216.034 107.31C216.58 106.868 217.008 106.22 217.318 105.367C217.629 104.513 217.671 103.871 217.443 103.439C217.219 102.997 216.739 102.776 216.001 102.776C215.275 102.776 214.633 102.997 214.077 103.439C213.535 103.871 213.109 104.513 212.799 105.367C212.488 106.22 212.445 106.868 212.668 107.31C212.907 107.742 213.389 107.957 214.116 107.957ZM219.424 109.283L220.197 107.159H222.473L221.7 109.283H219.424Z" fill="#595959"/>
<path d="M214.448 189.968L218.45 178.973H226.272L225.68 180.6H219.862L218.831 183.432H224.329L223.748 185.028H218.25L217.044 188.342H222.862L222.27 189.968H214.448ZM223.555 189.968L227.635 186.022L226.437 182.136H228.617L229.317 185.058H229.349L232.175 182.136H234.355L230.328 186.022L231.537 189.968H229.357L228.642 187.001H228.61L225.75 189.968H223.555ZM240.735 181.986C241.846 181.986 242.582 182.342 242.942 183.055C243.302 183.768 243.249 184.767 242.781 186.052C242.313 187.337 241.64 188.337 240.76 189.049C239.881 189.762 238.886 190.119 237.775 190.119C237.23 190.119 236.76 190.028 236.367 189.848C235.987 189.657 235.705 189.391 235.519 189.049H235.487L234.002 193.131H232.03L236.032 182.136H237.907L237.589 183.055H237.621C238.069 182.704 238.562 182.437 239.098 182.257C239.633 182.076 240.179 181.986 240.735 181.986ZM239.674 183.492C239.268 183.492 238.87 183.572 238.48 183.733C238.09 183.893 237.748 184.114 237.454 184.395C237.173 184.667 236.967 184.983 236.836 185.344L236.32 186.76C236.193 187.112 236.168 187.428 236.248 187.709C236.338 187.99 236.519 188.211 236.792 188.372C237.064 188.532 237.404 188.613 237.81 188.613C238.494 188.613 239.098 188.392 239.622 187.95C240.146 187.508 240.558 186.876 240.858 186.052C241.157 185.229 241.206 184.596 241.003 184.154C240.801 183.713 240.358 183.492 239.674 183.492ZM242.923 189.968L243.696 187.845H245.972L245.199 189.968H242.923Z" fill="#595959"/>
<path d="M207.608 220.493C206.271 220.493 205.422 220.097 205.059 219.306C204.697 218.514 204.815 217.296 205.414 215.652C206.012 214.008 206.78 212.79 207.719 211.999C208.657 211.207 209.795 210.811 211.132 210.811C212.47 210.811 213.315 211.207 213.668 211.999C214.03 212.79 213.912 214.008 213.313 215.652C212.715 217.296 211.947 218.514 211.008 219.306C210.079 220.097 208.946 220.493 207.608 220.493ZM208.13 219.06C208.89 219.06 209.544 218.785 210.093 218.234C210.641 217.683 211.129 216.823 211.555 215.652C211.984 214.473 212.123 213.612 211.972 213.07C211.825 212.519 211.371 212.244 210.611 212.244C209.851 212.244 209.192 212.519 208.634 213.07C208.089 213.612 207.601 214.473 207.172 215.652C206.746 216.823 206.607 217.683 206.755 218.234C206.911 218.785 207.37 219.06 208.13 219.06ZM219.96 210.811C220.785 210.811 221.431 210.949 221.898 211.224C222.366 211.499 222.645 211.904 222.734 212.438C222.833 212.971 222.738 213.634 222.45 214.426C222.018 215.613 221.393 216.65 220.576 217.537C219.771 218.415 218.823 219.108 217.731 219.615C216.64 220.123 215.445 220.412 214.147 220.48L214.319 219.176C215.477 219.116 216.485 218.888 217.343 218.492C218.205 218.088 218.946 217.498 219.567 216.724L219.544 216.711C219.149 216.891 218.746 217.029 218.336 217.124C217.935 217.218 217.515 217.266 217.075 217.266C216.059 217.266 215.359 216.986 214.976 216.427C214.603 215.867 214.596 215.093 214.957 214.103C215.207 213.414 215.573 212.825 216.054 212.334C216.535 211.844 217.106 211.469 217.768 211.211C218.433 210.944 219.164 210.811 219.96 210.811ZM219.458 212.192C218.78 212.192 218.197 212.36 217.708 212.696C217.232 213.023 216.886 213.483 216.67 214.077C216.453 214.671 216.454 215.136 216.67 215.471C216.899 215.798 217.335 215.962 217.976 215.962C218.434 215.962 218.852 215.893 219.232 215.755C219.615 215.609 219.944 215.398 220.218 215.123C220.505 214.839 220.717 214.507 220.855 214.129C220.977 213.793 221.018 213.479 220.978 213.186C220.947 212.894 220.809 212.657 220.563 212.476C220.33 212.287 219.961 212.192 219.458 212.192ZM220.864 220.881L229.561 210.424H231.237L222.54 220.881H220.864ZM232.551 220.364L235.323 212.747H235.295L231.069 214.697L231.087 213.29L235.981 210.94H237.726L234.295 220.364H232.551ZM241.379 220.364L244.151 212.747H244.123L239.897 214.697L239.914 213.29L244.809 210.94H246.554L243.123 220.364H241.379Z" fill="#424242"/>
<path d="M62.4365 220.364L65.8666 210.94H68.889C70.3636 210.94 71.3583 211.164 71.8732 211.611C72.3972 212.059 72.4822 212.769 72.1282 213.741C71.7805 214.697 71.1908 215.411 70.3591 215.884C69.5365 216.358 68.4566 216.595 67.1194 216.595H64.5641L65.0152 215.355H67.3507C68.2849 215.355 69.002 215.235 69.5018 214.994C70.014 214.744 70.3703 214.344 70.5708 213.793C70.7712 213.242 70.7047 212.846 70.3711 212.605C70.0498 212.356 69.422 212.231 68.4878 212.231H66.9079L63.9477 220.364H62.4365ZM68.3027 220.364L65.3247 216.052H67.2344L70.2673 220.364H68.3027ZM71.9084 220.364L75.3385 210.94H81.9329L81.4724 212.205H76.3892L75.4401 214.813H80.2485L79.7974 216.052H74.989L73.8801 219.099H78.9633L78.5028 220.364H71.9084ZM86.7844 220.364L90.2145 210.94H91.7258L88.2956 220.364H86.7844ZM80.6022 220.364L84.0323 210.94H85.5435L82.1134 220.364H80.6022ZM82.9178 216.078L83.3877 214.787H89.5699L89.1 216.078H82.9178ZM89.6484 220.364L96.7329 210.94H98.78L98.9905 220.364H97.3282L97.3216 212.154H97.2942L91.3108 220.364H89.6484ZM92.4042 218.002L92.8741 216.711H98.4381L97.9682 218.002H92.4042ZM100.338 220.364L103.768 210.94H105.416L107.613 218.04H107.64L110.225 210.94H111.736L108.306 220.364H106.657L104.461 213.264H104.433L101.849 220.364H100.338ZM114.492 220.364L117.922 210.94H120.944C122.419 210.94 123.414 211.164 123.929 211.611C124.453 212.059 124.538 212.769 124.184 213.741C123.836 214.697 123.246 215.411 122.414 215.884C121.592 216.358 120.512 216.595 119.175 216.595H116.619L117.071 215.355H119.406C120.34 215.355 121.057 215.235 121.557 214.994C122.069 214.744 122.426 214.344 122.626 213.793C122.827 213.242 122.76 212.846 122.426 212.605C122.105 212.356 121.477 212.231 120.543 212.231H118.963L116.003 220.364H114.492ZM120.358 220.364L117.38 216.052H119.29L122.323 220.364H120.358ZM122.975 220.364L130.059 210.94H132.106L132.317 220.364H130.654L130.648 212.154H130.62L124.637 220.364H122.975ZM125.73 218.002L126.2 216.711H131.764L131.294 218.002H125.73ZM133.787 220.364L137.218 210.94H138.784L135.354 220.364H133.787ZM143.992 220.364L147.422 210.94H148.933L145.503 220.364H143.992ZM137.809 220.364L141.24 210.94H142.751L139.321 220.364H137.809ZM140.125 216.078L140.595 214.787H146.777L146.307 216.078H140.125ZM146.856 220.364L153.94 210.94H155.987L156.198 220.364H154.535L154.529 212.154H154.501L148.518 220.364H146.856ZM149.611 218.002L150.081 216.711H155.645L155.175 218.002H149.611ZM157.545 220.364L160.975 210.94H162.624L164.82 218.04H164.848L167.432 210.94H168.943L165.513 220.364H163.864L161.668 213.264H161.64L159.056 220.364H157.545Z" fill="#424242"/>
<path fill-rule="evenodd" clip-rule="evenodd" d="M143.149 52.388C146.74 50.0282 149.685 46.6428 151.054 42.8806C152.423 39.1185 151.943 35.7331 150.07 33.3733C153.284 31.2612 157.018 29.9708 160.601 29.9708C168.189 29.9708 172.236 35.7509 169.641 42.8806C167.046 50.0104 158.791 55.7904 151.204 55.7904C147.62 55.7904 144.826 54.5 143.149 52.388ZM143.149 52.388C139.934 54.5 136.201 55.7904 132.617 55.7904C125.029 55.7904 120.982 50.0104 123.577 42.8806C126.172 35.7509 134.427 29.9708 142.014 29.9708C145.598 29.9708 148.393 31.2612 150.07 33.3733C146.478 35.7331 143.534 39.1185 142.164 42.8806C140.795 46.6428 141.275 50.0282 143.149 52.388Z" fill="#424242"/>
<path fill-rule="evenodd" clip-rule="evenodd" d="M482.307 30.2208C483.105 29.7901 483.946 29.9295 484.185 30.5322C485.457 33.7412 486.376 39.2144 485.011 45.3106C483.636 51.4486 479.916 58.3006 471.859 63.9977C471.113 64.525 470.207 64.5305 469.836 64.0102C469.464 63.4898 469.767 62.6406 470.513 62.1134C477.54 57.1446 480.814 51.1935 482.053 45.6605C483.302 40.0857 482.455 35.02 481.294 32.092C481.055 31.4893 481.509 30.6516 482.307 30.2208ZM474.329 35.14C475.127 34.7084 475.969 34.8466 476.209 35.4486C477.11 37.7067 477.762 41.5475 476.803 45.8363C475.835 50.1675 473.195 55.0367 467.461 59.0812C466.715 59.6076 465.81 59.6119 465.439 59.0907C465.069 58.5695 465.373 57.7203 466.12 57.1939C470.821 53.8774 473.013 49.9107 473.845 46.1872C474.687 42.4214 474.109 38.9889 473.32 37.0116C473.08 36.4095 473.532 35.5716 474.329 35.14ZM467.612 40.5088C468.408 40.0744 469.252 40.2085 469.496 40.8085C469.992 42.0292 470.355 44.0898 469.84 46.4086C469.315 48.7716 467.85 51.4796 464.65 53.7209C463.901 54.2447 462.998 54.2447 462.631 53.7209C462.264 53.1971 462.573 52.3478 463.321 51.824C465.484 50.3097 466.493 48.5095 466.881 46.763C467.279 44.9723 466.994 43.3221 466.611 42.3818C466.367 41.7819 466.815 40.9433 467.612 40.5088ZM461.668 46.0661C461.143 46.0661 460.571 46.4664 460.391 46.9603C460.212 47.4541 460.492 47.8545 461.018 47.8545C461.543 47.8545 462.115 47.4541 462.295 46.9603C462.474 46.4664 462.194 46.0661 461.668 46.0661ZM457.537 46.9603C458.256 44.9849 460.543 43.3835 462.645 43.3835C464.747 43.3835 465.868 44.9849 465.149 46.9603C464.43 48.9356 462.143 50.537 460.041 50.537C457.939 50.537 456.818 48.9356 457.537 46.9603Z" fill="#424242"/>
<path d="M92.5022 144.24L96.9269 132.083H96.8811L90.5793 135.934L91.8636 132.406L98.2191 128.533H101.516L95.7994 144.24H92.5022ZM103.781 144.455C102.499 144.455 101.544 144.247 100.917 143.831C100.305 143.415 99.9959 142.733 99.9894 141.787C99.9981 140.84 100.29 139.578 100.864 138C101.673 135.777 102.639 133.962 103.761 132.556C104.889 131.136 106.219 130.082 107.752 129.393C109.284 128.705 111.064 128.346 113.089 128.318L112.118 130.986C111.202 130.986 110.325 131.129 109.488 131.416C108.656 131.688 107.93 132.069 107.31 132.556C106.69 133.044 106.229 133.618 105.928 134.278H106.02C106.525 134.062 106.985 133.912 107.398 133.826C107.811 133.74 108.238 133.697 108.681 133.697C110.147 133.697 111.069 134.12 111.448 134.966C111.847 135.798 111.726 137.096 111.083 138.861C110.358 140.854 109.423 142.289 108.281 143.164C107.158 144.024 105.658 144.455 103.781 144.455ZM104.744 141.873C105.43 141.873 106.018 141.643 106.505 141.184C106.998 140.711 107.422 139.987 107.777 139.011C108.132 138.036 108.233 137.319 108.079 136.86C107.931 136.386 107.514 136.149 106.827 136.149C106.14 136.149 105.55 136.386 105.057 136.86C104.569 137.319 104.148 138.036 103.793 139.011C103.438 139.987 103.335 140.711 103.483 141.184C103.636 141.643 104.057 141.873 104.744 141.873ZM117.783 137.44C117.294 137.44 116.954 137.304 116.764 137.032C116.573 136.759 116.558 136.401 116.72 135.956C116.887 135.497 117.163 135.138 117.547 134.88C117.936 134.607 118.375 134.471 118.863 134.471C119.352 134.471 119.691 134.607 119.882 134.88C120.078 135.138 120.093 135.497 119.926 135.956C119.764 136.401 119.488 136.759 119.099 137.032C118.71 137.304 118.271 137.44 117.783 137.44ZM115.23 144.455C113.963 144.455 113.041 144.218 112.466 143.745C111.895 143.257 111.64 142.468 111.701 141.378C111.762 140.288 112.122 138.839 112.779 137.032L113.249 135.741C113.912 133.919 114.608 132.47 115.335 131.394C116.068 130.304 116.894 129.522 117.814 129.049C118.74 128.561 119.836 128.318 121.103 128.318C122.355 128.318 123.266 128.561 123.836 129.049C124.427 129.522 124.692 130.304 124.631 131.394C124.576 132.47 124.216 133.919 123.553 135.741L123.083 137.032C122.425 138.839 121.73 140.288 120.998 141.378C120.265 142.468 119.428 143.257 118.487 143.745C117.567 144.218 116.481 144.455 115.23 144.455ZM116.201 141.787C116.72 141.787 117.156 141.658 117.509 141.399C117.863 141.141 118.213 140.661 118.561 139.958C118.929 139.241 119.363 138.194 119.864 136.817L120.178 135.956C120.679 134.579 121.004 133.539 121.153 132.836C121.322 132.119 121.324 131.631 121.159 131.373C120.993 131.115 120.651 130.986 120.132 130.986C119.628 130.986 119.192 131.115 118.823 131.373C118.47 131.631 118.109 132.119 117.741 132.836C117.394 133.539 116.969 134.579 116.468 135.956L116.155 136.817C115.654 138.194 115.318 139.241 115.149 139.958C115 140.661 115.008 141.141 115.174 141.399C115.355 141.658 115.697 141.787 116.201 141.787ZM123.117 141.658C124.536 140.611 125.753 139.678 126.768 138.861C127.788 138.029 128.64 137.283 129.323 136.623C130.011 135.949 130.553 135.339 130.95 134.794C131.347 134.249 131.634 133.732 131.811 133.245C132.088 132.485 132.116 131.925 131.896 131.567C131.675 131.208 131.191 131.029 130.443 131.029C129.466 131.029 128.217 131.294 126.696 131.825L127.714 129.028C129.031 128.554 130.514 128.318 132.162 128.318C133.826 128.318 134.912 128.691 135.419 129.436C135.931 130.168 135.9 131.323 135.326 132.901C135.085 133.56 134.741 134.235 134.292 134.923C133.863 135.597 133.32 136.293 132.662 137.01C132.004 137.727 131.239 138.466 130.367 139.226C129.51 139.987 128.531 140.768 127.43 141.572L127.399 141.658H132.276L131.336 144.24H122.177L123.117 141.658ZM163.577 137.44C163.088 137.44 162.749 137.304 162.558 137.032C162.367 136.759 162.353 136.401 162.514 135.956C162.682 135.497 162.957 135.138 163.341 134.88C163.73 134.607 164.169 134.471 164.658 134.471C165.146 134.471 165.486 134.607 165.677 134.88C165.873 135.138 165.887 135.497 165.72 135.956C165.558 136.401 165.283 136.759 164.893 137.032C164.504 137.304 164.065 137.44 163.577 137.44ZM161.024 144.455C159.757 144.455 158.836 144.218 158.26 143.745C157.689 143.257 157.435 142.468 157.496 141.378C157.557 140.288 157.916 138.839 158.574 137.032L159.044 135.741C159.707 133.919 160.402 132.47 161.129 131.394C161.862 130.304 162.688 129.522 163.609 129.049C164.534 128.561 165.63 128.318 166.897 128.318C168.149 128.318 169.06 128.561 169.631 129.049C170.222 129.522 170.487 130.304 170.426 131.394C170.37 132.47 170.011 133.919 169.347 135.741L168.878 137.032C168.22 138.839 167.525 140.288 166.792 141.378C166.059 142.468 165.223 143.257 164.282 143.745C163.362 144.218 162.276 144.455 161.024 144.455ZM161.995 141.787C162.514 141.787 162.95 141.658 163.304 141.399C163.657 141.141 164.008 140.661 164.355 139.958C164.723 139.241 165.158 138.194 165.659 136.817L165.972 135.956C166.473 134.579 166.798 133.539 166.947 132.836C167.117 132.119 167.119 131.631 166.953 131.373C166.788 131.115 166.445 130.986 165.926 130.986C165.423 130.986 164.986 131.115 164.618 131.373C164.264 131.631 163.903 132.119 163.536 132.836C163.188 133.539 162.764 134.579 162.263 135.956L161.949 136.817C161.448 138.194 161.113 139.241 160.943 139.958C160.794 140.661 160.803 141.141 160.968 141.399C161.149 141.658 161.491 141.787 161.995 141.787ZM178.346 128.318C179.644 128.318 180.598 128.526 181.21 128.942C181.822 129.358 182.123 130.039 182.115 130.986C182.121 131.932 181.837 133.195 181.263 134.772C180.459 136.981 179.493 138.796 178.366 140.216C177.238 141.636 175.908 142.69 174.375 143.379C172.858 144.068 171.079 144.426 169.038 144.455L170.009 141.787C170.94 141.787 171.814 141.651 172.631 141.378C173.468 141.091 174.197 140.704 174.817 140.216C175.442 139.714 175.903 139.14 176.199 138.495H176.107C175.601 138.71 175.142 138.861 174.729 138.947C174.316 139.033 173.888 139.076 173.446 139.076C171.98 139.076 171.048 138.66 170.649 137.828C170.27 136.981 170.401 135.676 171.044 133.912C171.769 131.918 172.693 130.491 173.815 129.63C174.958 128.755 176.468 128.318 178.346 128.318ZM177.383 130.9C176.696 130.9 176.107 131.136 175.614 131.61C175.126 132.069 174.705 132.786 174.35 133.761C173.995 134.737 173.891 135.461 174.04 135.934C174.193 136.393 174.613 136.623 175.3 136.623C175.987 136.623 176.574 136.393 177.062 135.934C177.555 135.461 177.979 134.737 178.334 133.761C178.689 132.786 178.79 132.069 178.636 131.61C178.488 131.136 178.07 130.9 177.383 130.9ZM184.091 144.24L188.516 132.083H188.47L182.168 135.934L183.452 132.406L189.808 128.533H193.105L187.388 144.24H184.091ZM195.54 144.24L199.964 132.083H199.919L193.617 135.934L194.901 132.406L201.257 128.533H204.554L198.837 144.24H195.54ZM226.154 141.658C227.573 140.611 228.79 139.678 229.805 138.861C230.826 138.029 231.677 137.283 232.36 136.623C233.048 135.949 233.591 135.339 233.987 134.794C234.384 134.249 234.671 133.732 234.849 133.245C235.126 132.485 235.154 131.925 234.933 131.567C234.713 131.208 234.228 131.029 233.48 131.029C232.503 131.029 231.254 131.294 229.733 131.825L230.751 129.028C232.068 128.554 233.551 128.318 235.2 128.318C236.864 128.318 237.949 128.691 238.456 129.436C238.968 130.168 238.937 131.323 238.363 132.901C238.123 133.56 237.778 134.235 237.329 134.923C236.901 135.597 236.357 136.293 235.7 137.01C235.042 137.727 234.277 138.466 233.405 139.226C232.548 139.987 231.569 140.768 230.467 141.572L230.436 141.658H235.313L234.373 144.24H225.214L226.154 141.658ZM243.717 137.44C243.229 137.44 242.889 137.304 242.698 137.032C242.507 136.759 242.493 136.401 242.655 135.956C242.822 135.497 243.097 135.138 243.481 134.88C243.871 134.607 244.309 134.471 244.798 134.471C245.286 134.471 245.626 134.607 245.817 134.88C246.013 135.138 246.027 135.497 245.86 135.956C245.699 136.401 245.423 136.759 245.034 137.032C244.645 137.304 244.206 137.44 243.717 137.44ZM241.164 144.455C239.897 144.455 238.976 144.218 238.4 143.745C237.83 143.257 237.575 142.468 237.636 141.378C237.697 140.288 238.056 138.839 238.714 137.032L239.184 135.741C239.847 133.919 240.542 132.47 241.27 131.394C242.002 130.304 242.829 129.522 243.749 129.049C244.674 128.561 245.771 128.318 247.038 128.318C248.289 128.318 249.2 128.561 249.771 129.049C250.362 129.522 250.627 130.304 250.566 131.394C250.51 132.47 250.151 133.919 249.488 135.741L249.018 137.032C248.36 138.839 247.665 140.288 246.932 141.378C246.2 142.468 245.363 143.257 244.422 143.745C243.502 144.218 242.416 144.455 241.164 144.455ZM242.135 141.787C242.654 141.787 243.091 141.658 243.444 141.399C243.797 141.141 244.148 140.661 244.495 139.958C244.863 139.241 245.298 138.194 245.799 136.817L246.112 135.956C246.613 134.579 246.939 133.539 247.087 132.836C247.257 132.119 247.259 131.631 247.093 131.373C246.928 131.115 246.586 130.986 246.067 130.986C245.563 130.986 245.127 131.115 244.758 131.373C244.404 131.631 244.044 132.119 243.676 132.836C243.328 133.539 242.904 134.579 242.403 135.956L242.09 136.817C241.588 138.194 241.253 139.241 241.084 139.958C240.935 140.661 240.943 141.141 241.108 141.399C241.289 141.658 241.632 141.787 242.135 141.787ZM252.783 144.24L257.207 132.083H257.162L250.86 135.934L252.144 132.406L258.5 128.533H261.797L256.08 144.24H252.783ZM269.935 128.318C271.232 128.318 272.187 128.526 272.799 128.942C273.411 129.358 273.712 130.039 273.704 130.986C273.71 131.932 273.426 133.195 272.852 134.772C272.048 136.981 271.082 138.796 269.955 140.216C268.827 141.636 267.497 142.69 265.964 143.379C264.447 144.068 262.667 144.426 260.627 144.455L261.598 141.787C262.529 141.787 263.403 141.651 264.22 141.378C265.057 141.091 265.785 140.704 266.406 140.216C267.031 139.714 267.492 139.14 267.788 138.495H267.696C267.19 138.71 266.731 138.861 266.318 138.947C265.905 139.033 265.477 139.076 265.035 139.076C263.569 139.076 262.637 138.66 262.237 137.828C261.859 136.981 261.99 135.676 262.632 133.912C263.358 131.918 264.282 130.491 265.404 129.63C266.547 128.755 268.057 128.318 269.935 128.318ZM268.972 130.9C268.285 130.9 267.695 131.136 267.203 131.61C266.715 132.069 266.294 132.786 265.939 133.761C265.584 134.737 265.48 135.461 265.628 135.934C265.782 136.393 266.202 136.623 266.889 136.623C267.576 136.623 268.163 136.393 268.651 135.934C269.144 135.461 269.568 134.737 269.923 133.761C270.278 132.786 270.378 132.069 270.225 131.61C270.077 131.136 269.659 130.9 268.972 130.9ZM294.846 141.658C296.265 140.611 297.482 139.678 298.497 138.861C299.517 138.029 300.369 137.283 301.052 136.623C301.74 135.949 302.282 135.339 302.679 134.794C303.076 134.249 303.363 133.732 303.541 133.245C303.817 132.485 303.845 131.925 303.625 131.567C303.404 131.208 302.92 131.029 302.172 131.029C301.195 131.029 299.946 131.294 298.425 131.825L299.443 129.028C300.76 128.554 302.243 128.318 303.891 128.318C305.555 128.318 306.641 128.691 307.148 129.436C307.66 130.168 307.629 131.323 307.055 132.901C306.815 133.56 306.47 134.235 306.021 134.923C305.592 135.597 305.049 136.293 304.391 137.01C303.733 137.727 302.968 138.466 302.096 139.226C301.239 139.987 300.26 140.768 299.159 141.572L299.128 141.658H304.005L303.065 144.24H293.906L294.846 141.658ZM312.409 137.44C311.92 137.44 311.581 137.304 311.39 137.032C311.199 136.759 311.185 136.401 311.346 135.956C311.513 135.497 311.789 135.138 312.173 134.88C312.562 134.607 313.001 134.471 313.49 134.471C313.978 134.471 314.318 134.607 314.508 134.88C314.705 135.138 314.719 135.497 314.552 135.956C314.39 136.401 314.115 136.759 313.725 137.032C313.336 137.304 312.897 137.44 312.409 137.44ZM309.856 144.455C308.589 144.455 307.667 144.218 307.092 143.745C306.521 143.257 306.267 142.468 306.328 141.378C306.388 140.288 306.748 138.839 307.406 137.032L307.876 135.741C308.539 133.919 309.234 132.47 309.961 131.394C310.694 130.304 311.52 129.522 312.441 129.049C313.366 128.561 314.462 128.318 315.729 128.318C316.981 128.318 317.892 128.561 318.463 129.049C319.054 129.522 319.318 130.304 319.258 131.394C319.202 132.47 318.842 133.919 318.179 135.741L317.709 137.032C317.052 138.839 316.356 140.288 315.624 141.378C314.891 142.468 314.055 143.257 313.114 143.745C312.193 144.218 311.108 144.455 309.856 144.455ZM310.827 141.787C311.346 141.787 311.782 141.658 312.136 141.399C312.489 141.141 312.84 140.661 313.187 139.958C313.555 139.241 313.989 138.194 314.491 136.817L314.804 135.956C315.305 134.579 315.63 133.539 315.779 132.836C315.949 132.119 315.951 131.631 315.785 131.373C315.619 131.115 315.277 130.986 314.758 130.986C314.254 130.986 313.818 131.115 313.449 131.373C313.096 131.631 312.735 132.119 312.367 132.836C312.02 133.539 311.596 134.579 311.094 135.956L310.781 136.817C310.28 138.194 309.945 139.241 309.775 139.958C309.626 140.661 309.635 141.141 309.8 141.399C309.981 141.658 310.323 141.787 310.827 141.787ZM317.743 141.658C319.162 140.611 320.379 139.678 321.394 138.861C322.415 138.029 323.266 137.283 323.949 136.623C324.637 135.949 325.179 135.339 325.576 134.794C325.973 134.249 326.26 133.732 326.438 133.245C326.714 132.485 326.743 131.925 326.522 131.567C326.301 131.208 325.817 131.029 325.069 131.029C324.092 131.029 322.843 131.294 321.322 131.825L322.34 129.028C323.657 128.554 325.14 128.318 326.789 128.318C328.452 128.318 329.538 128.691 330.045 129.436C330.557 130.168 330.526 131.323 329.952 132.901C329.712 133.56 329.367 134.235 328.918 134.923C328.49 135.597 327.946 136.293 327.288 137.01C326.63 137.727 325.865 138.466 324.993 139.226C324.137 139.987 323.158 140.768 322.056 141.572L322.025 141.658H326.902L325.962 144.24H316.803L317.743 141.658ZM332.923 144.24L337.348 132.083H337.302L331 135.934L332.284 132.406L338.64 128.533H341.937L336.22 144.24H332.923Z" fill="#424242"/>
<path d="M384.641 200.061C384.88 199.406 385.639 198.874 386.336 198.874H397.074C397.772 198.874 398.144 199.406 397.906 200.061L395.154 207.621C394.987 208.079 394.555 208.496 394.044 208.693L387.8 211.096C387.401 211.249 387.002 211.249 386.714 211.096L382.219 208.693C381.851 208.496 381.723 208.079 381.889 207.621L384.641 200.061Z" fill="#424242"/>
<path d="M404.854 200.061C405.092 199.406 405.851 198.874 406.549 198.874H409.707C410.405 198.874 410.777 199.406 410.539 200.061L409.674 202.435C409.436 203.091 408.677 203.622 407.979 203.622H404.821C404.123 203.622 403.751 203.091 403.99 202.435L404.854 200.061Z" fill="#424242"/>
<path d="M417.487 200.061C417.725 199.406 418.484 198.874 419.182 198.874H429.92C430.618 198.874 430.99 199.406 430.751 200.061L428.159 207.184C427.92 207.839 427.161 208.371 426.464 208.371H415.726C415.028 208.371 414.656 207.839 414.894 207.184L417.487 200.061Z" fill="#424242"/>
<path d="M380.104 212.526C380.343 211.87 381.102 211.339 381.8 211.339H392.538C393.235 211.339 393.608 211.87 393.369 212.526L390.776 219.648C390.538 220.304 389.779 220.836 389.081 220.836H378.343C377.645 220.836 377.273 220.304 377.512 219.648L380.104 212.526Z" fill="#424242"/>
<path d="M398.255 207.777C398.494 207.122 399.253 206.59 399.951 206.59H410.689C411.386 206.59 411.759 207.122 411.52 207.777L405.471 224.397C405.232 225.052 404.473 225.584 403.776 225.584H393.038C392.34 225.584 391.968 225.052 392.206 224.397L398.255 207.777Z" fill="#424242"/>
<path d="M412.95 212.526C413.189 211.87 413.948 211.339 414.645 211.339H425.383C426.081 211.339 426.453 211.87 426.215 212.526L423.622 219.648C423.383 220.304 422.624 220.836 421.927 220.836H411.189C410.491 220.836 410.119 220.304 410.358 219.648L412.95 212.526Z" fill="#424242"/>
<path d="M375.568 224.99C375.806 224.335 376.565 223.803 377.263 223.803H388.001C388.699 223.803 389.071 224.335 388.832 224.99L386.24 232.113C386.001 232.769 385.242 233.3 384.544 233.3H373.806C373.109 233.3 372.736 232.769 372.975 232.113L375.568 224.99Z" fill="#424242"/>
<path d="M394.052 229.739C394.291 229.083 395.05 228.552 395.747 228.552H398.906C399.603 228.552 399.975 229.083 399.737 229.739L398.873 232.113C398.634 232.769 397.875 233.3 397.177 233.3H394.019C393.321 233.3 392.949 232.769 393.188 232.113L394.052 229.739Z" fill="#424242"/>
<path d="M408.572 224.553C408.739 224.095 409.171 223.678 409.683 223.481L415.926 221.079C416.326 220.925 416.725 220.925 417.012 221.079L421.507 223.481C421.875 223.678 422.004 224.095 421.837 224.553L419.085 232.113C418.847 232.769 418.088 233.3 417.39 233.3H406.652C405.954 233.3 405.582 232.769 405.821 232.113L408.572 224.553Z" fill="#424242"/>
<defs>
<linearGradient id="paint0_linear_1_149" x1="32.0561" y1="12.5935" x2="264.463" y2="274.767" gradientUnits="userSpaceOnUse">
<stop stop-color="white"/>
<stop offset="1" stop-color="white" stop-opacity="0.55"/>
</linearGradient>
</defs>
</svg>
