<svg width="422" height="263" viewBox="0 0 422 263" fill="none" xmlns="http://www.w3.org/2000/svg">
<g filter="url(#filter0_b_18_34)">
<rect width="412.27" height="260.381" rx="34.7175" transform="matrix(1 0 0.0348995 0.999391 0 1.28101)" fill="white" fill-opacity="0.1"/>
<rect width="412.27" height="260.381" rx="34.7175" transform="matrix(1 0 0.0348995 0.999391 0 1.28101)" stroke="url(#paint0_linear_18_34)" stroke-opacity="0.5" stroke-width="2.16984"/>
</g>
<path d="M51.4267 196.005L51.0397 184.924H53.0598L58.3044 192.878H58.3348L58.057 184.924H59.9404L60.3274 196.005H58.3072L53.0779 188.051H53.0475L53.3253 196.005H51.4267ZM64.5559 196.156C63.7661 196.156 63.1359 195.944 62.6654 195.519C62.2047 195.084 61.9614 194.497 61.9356 193.758C61.9034 192.837 62.2382 192.129 62.9398 191.633C63.6414 191.137 64.6555 190.889 65.982 190.889H67.0908C67.0773 190.505 67.0165 190.211 66.9081 190.009C66.8096 189.796 66.6424 189.649 66.4067 189.568C66.1811 189.488 65.8607 189.447 65.4456 189.447C64.9393 189.447 64.4145 189.498 63.8712 189.599C63.3381 189.7 62.8371 189.852 62.3682 190.054L62.0738 188.582C62.5835 188.39 63.1503 188.238 63.7742 188.126C64.3982 188.015 65.024 187.959 65.6518 187.959C66.4518 187.959 67.0829 188.056 67.5453 188.248C68.0178 188.44 68.3633 188.764 68.5817 189.219C68.8001 189.675 68.9224 190.277 68.9486 191.026L69.1224 196.005H67.3453L67.2984 195.094H67.268C67.0055 195.408 66.6196 195.666 66.1103 195.868C65.6006 196.06 65.0824 196.156 64.5559 196.156ZM65.1733 194.699C65.548 194.699 65.89 194.633 66.1993 194.502C66.5082 194.36 66.7498 194.173 66.9239 193.94C67.0981 193.707 67.18 193.444 67.1697 193.151L67.1364 192.195H66.301C65.4301 192.195 64.776 192.311 64.3386 192.544C63.911 192.766 63.7053 193.11 63.7215 193.576C63.7335 193.92 63.8646 194.193 64.1147 194.396C64.3648 194.598 64.7177 194.699 65.1733 194.699ZM71.1219 196.005L70.8463 188.111H72.5778L72.6405 189.037H72.6709C72.9424 188.693 73.2724 188.43 73.661 188.248C74.0492 188.056 74.5066 187.959 75.0331 187.959C75.5495 187.959 75.9883 188.056 76.3494 188.248C76.7203 188.43 76.9877 188.693 77.1516 189.037H77.182C77.4727 188.663 77.8125 188.39 78.2014 188.218C78.5903 188.045 79.0531 187.959 79.5898 187.959C80.4404 187.959 81.066 188.187 81.4667 188.643C81.867 189.088 82.084 189.791 82.1175 190.753L82.3009 196.005H80.4935L80.326 191.208C80.3051 190.611 80.1937 190.176 79.9918 189.902C79.7898 189.629 79.4762 189.493 79.0509 189.493C78.5447 189.493 78.1505 189.66 77.8685 189.994C77.5865 190.327 77.4553 190.773 77.4747 191.329L77.638 196.005H75.8153L75.643 191.071C75.625 190.555 75.5051 190.166 75.2832 189.902C75.061 189.629 74.7525 189.493 74.3576 189.493C74.0538 189.493 73.7782 189.574 73.5307 189.735C73.2933 189.897 73.1035 190.115 72.9611 190.388C72.8289 190.661 72.769 190.975 72.7813 191.329L72.9446 196.005H71.1219ZM88.1109 196.156C86.7135 196.156 85.6278 195.802 84.8537 195.094C84.0797 194.385 83.6697 193.374 83.6237 192.058C83.5792 190.783 83.8885 189.781 84.5516 189.052C85.2249 188.324 86.164 187.959 87.369 187.959C88.5335 187.959 89.4467 188.304 90.1086 188.992C90.7706 189.68 91.1237 190.656 91.1679 191.921C91.1728 192.063 91.1732 192.22 91.1691 192.392C91.165 192.564 91.1593 192.69 91.152 192.771H84.6815L84.6343 191.42H89.677L89.418 191.83C89.389 191 89.2056 190.388 88.8678 189.994C88.5397 189.589 88.0567 189.386 87.4188 189.386C86.7404 189.386 86.2314 189.599 85.8918 190.024C85.562 190.439 85.4114 191.056 85.4401 191.876L85.4586 192.407C85.4855 193.176 85.7079 193.748 86.1261 194.122C86.5438 194.487 87.1628 194.669 87.983 194.669C88.4083 194.669 88.8625 194.628 89.3458 194.547C89.8286 194.456 90.2549 194.34 90.6246 194.198L90.9033 195.656C90.5239 195.807 90.0876 195.929 89.5946 196.02C89.1016 196.111 88.6071 196.156 88.1109 196.156Z" fill="#EDEDED"/>
<path d="M53.6359 110.499C52.4309 110.499 51.3851 110.272 50.4983 109.816C49.6116 109.361 48.9205 108.708 48.425 107.858C47.9397 107.008 47.6763 105.991 47.635 104.807C47.5933 103.613 47.7856 102.596 48.2119 101.756C48.648 100.906 49.2936 100.253 50.1485 99.7976C51.0034 99.3422 52.0334 99.1145 53.2384 99.1145C54.6155 99.1145 55.8461 99.413 56.9302 100.01L56.548 101.68C55.4946 101.093 54.4313 100.799 53.358 100.799C52.558 100.799 51.87 100.961 51.294 101.285C50.7177 101.599 50.283 102.054 49.9899 102.651C49.6969 103.248 49.565 103.967 49.5944 104.807C49.6233 105.637 49.8054 106.355 50.1405 106.962C50.4752 107.559 50.9419 108.02 51.5405 108.344C52.1388 108.657 52.8379 108.814 53.6378 108.814C54.6808 108.814 55.7237 108.521 56.7664 107.934L57.2652 109.604C56.2228 110.201 55.013 110.499 53.6359 110.499ZM59.1425 110.347L58.8669 102.454H60.6592L60.7263 103.942H60.7567C61.0079 103.598 61.3065 103.304 61.6525 103.061C62.0082 102.808 62.4016 102.621 62.8328 102.5C63.2636 102.368 63.717 102.302 64.1929 102.302L64.2491 103.911C63.6111 103.911 63.0331 104.033 62.5151 104.276C62.0071 104.518 61.6035 104.847 61.304 105.262C61.0144 105.667 60.8784 106.122 60.8961 106.628L61.0259 110.347H59.1425ZM69.1897 110.499C67.7923 110.499 66.7066 110.145 65.9325 109.437C65.1585 108.728 64.7485 107.716 64.7026 106.401C64.658 105.126 64.9673 104.124 65.6304 103.395C66.3037 102.667 67.2428 102.302 68.4478 102.302C69.6123 102.302 70.5255 102.646 71.1875 103.334C71.8494 104.023 72.2025 104.999 72.2467 106.264C72.2516 106.406 72.252 106.563 72.2479 106.735C72.2438 106.907 72.2381 107.033 72.2308 107.114H65.7603L65.7131 105.763H70.7558L70.4968 106.173C70.4678 105.343 70.2844 104.731 69.9466 104.336C69.6185 103.932 69.1355 103.729 68.4976 103.729C67.8192 103.729 67.3102 103.942 66.9706 104.367C66.6408 104.782 66.4902 105.399 66.5189 106.219L66.5374 106.75C66.5643 107.519 66.7868 108.091 67.2049 108.465C67.6226 108.829 68.2416 109.012 69.0618 109.012C69.4871 109.012 69.9413 108.971 70.4246 108.89C70.9074 108.799 71.3337 108.683 71.7034 108.541L71.9822 109.998C71.6027 110.15 71.1664 110.272 70.6734 110.363C70.1804 110.454 69.6859 110.499 69.1897 110.499ZM76.909 110.499C75.8559 110.499 75.0231 110.14 74.4107 109.421C73.7983 108.703 73.4695 107.696 73.4243 106.401C73.3791 105.105 73.6376 104.098 74.1998 103.38C74.762 102.661 75.5696 102.302 76.6227 102.302C77.1493 102.302 77.6284 102.393 78.06 102.575C78.4917 102.758 78.8605 103.026 79.1665 103.38H79.2121L79.0684 99.2663H80.9063L81.2933 110.347H79.5465L79.4838 109.421H79.4534C79.1718 109.766 78.8065 110.034 78.3576 110.226C77.9184 110.408 77.4355 110.499 76.909 110.499ZM77.342 108.981C77.7369 108.981 78.0834 108.9 78.3816 108.738C78.6898 108.576 78.9301 108.354 79.1025 108.07C79.2749 107.787 79.3549 107.468 79.3425 107.114L79.2927 105.687C79.2799 105.323 79.1777 105.004 78.9859 104.731C78.7937 104.448 78.5429 104.225 78.2335 104.063C77.9241 103.901 77.5668 103.82 77.1618 103.82C76.5238 103.82 76.0355 104.043 75.6966 104.488C75.3679 104.933 75.218 105.571 75.247 106.401C75.2759 107.231 75.4703 107.868 75.8302 108.313C76.2001 108.759 76.7041 108.981 77.342 108.981ZM83.3249 101.057L83.2624 99.2663H85.1458L85.2083 101.057H83.3249ZM83.6493 110.347L83.3753 102.5H85.2587L85.5327 110.347H83.6493ZM91.4333 110.499C90.5018 110.499 89.8217 110.307 89.3931 109.922C88.9645 109.538 88.735 108.91 88.7046 108.04L88.5615 103.942H86.7996L86.7476 102.454H88.5095L88.4194 99.8735H90.3028L90.393 102.454H93.051L93.103 103.942H90.4449L90.5716 107.57C90.5893 108.076 90.6826 108.43 90.8517 108.632C91.0306 108.824 91.3327 108.921 91.7579 108.921C91.9807 108.921 92.2129 108.9 92.4545 108.86C92.6961 108.819 92.9119 108.764 93.1018 108.693L93.3224 110.226C92.9817 110.327 92.6601 110.398 92.3578 110.439C92.0554 110.479 91.7473 110.499 91.4333 110.499ZM104.72 110.499C103.515 110.499 102.47 110.272 101.583 109.816C100.696 109.361 100.005 108.708 99.5095 107.858C99.0242 107.008 98.7608 105.991 98.7195 104.807C98.6778 103.613 98.8701 102.596 99.2964 101.756C99.7325 100.906 100.378 100.253 101.233 99.7976C102.088 99.3422 103.118 99.1145 104.323 99.1145C105.7 99.1145 106.931 99.413 108.015 100.01L107.632 101.68C106.579 101.093 105.516 100.799 104.442 100.799C103.643 100.799 102.955 100.961 102.379 101.285C101.802 101.599 101.367 102.054 101.074 102.651C100.781 103.248 100.65 103.967 100.679 104.807C100.708 105.637 100.89 106.355 101.225 106.962C101.56 107.559 102.026 108.02 102.625 108.344C103.223 108.657 103.922 108.814 104.722 108.814C105.765 108.814 106.808 108.521 107.851 107.934L108.35 109.604C107.307 110.201 106.098 110.499 104.72 110.499ZM112.027 110.499C111.237 110.499 110.607 110.287 110.136 109.862C109.676 109.427 109.432 108.84 109.406 108.101C109.374 107.18 109.709 106.472 110.411 105.976C111.112 105.48 112.126 105.232 113.453 105.232H114.562C114.548 104.847 114.487 104.554 114.379 104.351C114.28 104.139 114.113 103.992 113.878 103.911C113.652 103.83 113.332 103.79 112.916 103.79C112.41 103.79 111.885 103.84 111.342 103.942C110.809 104.043 110.308 104.195 109.839 104.397L109.545 102.925C110.054 102.732 110.621 102.581 111.245 102.469C111.869 102.358 112.495 102.302 113.123 102.302C113.923 102.302 114.554 102.398 115.016 102.591C115.489 102.783 115.834 103.107 116.053 103.562C116.271 104.018 116.393 104.62 116.419 105.369L116.593 110.347H114.816L114.769 109.437H114.739C114.476 109.75 114.09 110.008 113.581 110.211C113.071 110.403 112.553 110.499 112.027 110.499ZM112.644 109.042C113.019 109.042 113.361 108.976 113.67 108.845C113.979 108.703 114.221 108.516 114.395 108.283C114.569 108.05 114.651 107.787 114.641 107.494L114.607 106.537H113.772C112.901 106.537 112.247 106.654 111.809 106.886C111.382 107.109 111.176 107.453 111.192 107.919C111.204 108.263 111.335 108.536 111.586 108.738C111.836 108.941 112.189 109.042 112.644 109.042ZM118.593 110.347L118.317 102.454H120.109L120.177 103.942H120.207C120.458 103.598 120.757 103.304 121.103 103.061C121.458 102.808 121.852 102.621 122.283 102.5C122.714 102.368 123.167 102.302 123.643 102.302L123.699 103.911C123.061 103.911 122.483 104.033 121.965 104.276C121.457 104.518 121.054 104.847 120.754 105.262C120.465 105.667 120.329 106.122 120.346 106.628L120.476 110.347H118.593ZM127.637 110.499C126.584 110.499 125.752 110.14 125.139 109.421C124.527 108.703 124.198 107.696 124.153 106.401C124.108 105.105 124.366 104.098 124.928 103.38C125.49 102.661 126.298 102.302 127.351 102.302C127.878 102.302 128.357 102.393 128.789 102.575C129.22 102.758 129.589 103.026 129.895 103.38H129.941L129.797 99.2663H131.635L132.022 110.347H130.275L130.212 109.421H130.182C129.9 109.766 129.535 110.034 129.086 110.226C128.647 110.408 128.164 110.499 127.637 110.499ZM128.071 108.981C128.465 108.981 128.812 108.9 129.11 108.738C129.418 108.576 129.659 108.354 129.831 108.07C130.003 107.787 130.083 107.468 130.071 107.114L130.021 105.687C130.008 105.323 129.906 105.004 129.714 104.731C129.522 104.448 129.271 104.225 128.962 104.063C128.653 103.901 128.295 103.82 127.89 103.82C127.252 103.82 126.764 104.043 126.425 104.488C126.096 104.933 125.946 105.571 125.975 106.401C126.004 107.231 126.199 107.868 126.559 108.313C126.929 108.759 127.433 108.981 128.071 108.981ZM138.59 110.347L138.203 99.2663H140.224L145.468 107.22H145.498L145.221 99.2663H147.104L147.491 110.347H145.471L140.242 102.393H140.211L140.489 110.347H138.59ZM153.284 110.499C152.008 110.499 151.009 110.145 150.285 109.437C149.571 108.718 149.192 107.706 149.146 106.401C149.101 105.095 149.41 104.088 150.074 103.38C150.747 102.661 151.722 102.302 152.998 102.302C154.274 102.302 155.273 102.661 155.997 103.38C156.721 104.088 157.105 105.095 157.151 106.401C157.196 107.706 156.882 108.718 156.209 109.437C155.535 110.145 154.56 110.499 153.284 110.499ZM153.232 109.012C153.931 109.012 154.455 108.794 154.804 108.359C155.153 107.914 155.313 107.261 155.283 106.401C155.253 105.541 155.048 104.893 154.668 104.458C154.288 104.012 153.748 103.79 153.05 103.79C152.361 103.79 151.837 104.012 151.478 104.458C151.129 104.893 150.969 105.541 150.999 106.401C151.029 107.261 151.234 107.914 151.614 108.359C152.004 108.794 152.544 109.012 153.232 109.012ZM158.766 110.347L158.691 108.207H160.848L160.923 110.347H158.766Z" fill="#EDEDED"/>
<path d="M184.721 191.667L184.334 180.586H191.746L191.803 182.226H186.29L186.389 185.079H191.599L191.655 186.688H186.446L186.562 190.028H192.076L192.133 191.667H184.721ZM193.35 191.667L195.718 187.69L193.105 183.774H195.171L196.944 186.719H196.975L198.543 183.774H200.608L198.269 187.69L200.914 191.667H198.849L197.043 188.677H197.013L195.431 191.667H193.35ZM206.597 183.622C207.65 183.622 208.483 183.981 209.095 184.7C209.707 185.418 210.036 186.425 210.082 187.721C210.127 189.016 209.868 190.023 209.306 190.741C208.744 191.46 207.936 191.819 206.883 191.819C206.367 191.819 205.888 191.728 205.446 191.546C205.014 191.354 204.645 191.085 204.339 190.741H204.309L204.453 194.855H202.584L202.197 183.774H203.974L204.022 184.7H204.052C204.344 184.346 204.709 184.077 205.148 183.895C205.587 183.713 206.07 183.622 206.597 183.622ZM206.164 185.14C205.779 185.14 205.433 185.221 205.124 185.383C204.816 185.545 204.576 185.767 204.403 186.051C204.241 186.324 204.166 186.643 204.179 187.007L204.228 188.434C204.241 188.788 204.338 189.107 204.52 189.39C204.712 189.674 204.968 189.896 205.288 190.058C205.607 190.22 205.959 190.301 206.344 190.301C206.992 190.301 207.48 190.078 207.809 189.633C208.138 189.188 208.288 188.55 208.259 187.721C208.23 186.891 208.035 186.253 207.676 185.808C207.316 185.363 206.812 185.14 206.164 185.14ZM211.705 191.667L211.63 189.527H213.787L213.862 191.667H211.705Z" fill="#EDEDED"/>
<path d="M189.804 221.327C188.537 221.327 187.581 220.928 186.937 220.13C186.293 219.332 185.942 218.104 185.884 216.448C185.826 214.791 186.091 213.563 186.68 212.765C187.268 211.967 188.196 211.568 189.463 211.568C190.73 211.568 191.682 211.967 192.317 212.765C192.961 213.563 193.312 214.791 193.37 216.448C193.428 218.104 193.163 219.332 192.574 220.13C191.995 220.928 191.071 221.327 189.804 221.327ZM189.753 219.883C190.474 219.883 190.989 219.605 191.3 219.05C191.61 218.495 191.745 217.627 191.704 216.448C191.662 215.259 191.467 214.392 191.118 213.845C190.769 213.29 190.234 213.013 189.514 213.013C188.793 213.013 188.273 213.29 187.954 213.845C187.644 214.392 187.509 215.259 187.55 216.448C187.592 217.627 187.787 218.495 188.136 219.05C188.494 219.605 189.033 219.883 189.753 219.883ZM197.829 211.568C198.61 211.568 199.274 211.707 199.822 211.985C200.37 212.262 200.788 212.67 201.076 213.208C201.372 213.746 201.534 214.414 201.562 215.212C201.604 216.409 201.406 217.454 200.969 218.347C200.54 219.232 199.904 219.93 199.063 220.442C198.222 220.954 197.199 221.244 195.995 221.314L195.663 220C196.737 219.939 197.605 219.709 198.268 219.31C198.931 218.902 199.41 218.308 199.703 217.528L199.677 217.515C199.371 217.697 199.042 217.835 198.689 217.931C198.345 218.026 197.965 218.074 197.548 218.074C196.585 218.074 195.816 217.792 195.24 217.228C194.674 216.664 194.373 215.884 194.338 214.886C194.314 214.192 194.437 213.598 194.706 213.104C194.975 212.609 195.374 212.232 195.903 211.972C196.432 211.703 197.074 211.568 197.829 211.568ZM197.877 212.961C197.235 212.961 196.746 213.13 196.411 213.468C196.084 213.798 195.931 214.262 195.952 214.86C195.973 215.459 196.15 215.927 196.483 216.265C196.824 216.595 197.298 216.76 197.906 216.76C198.34 216.76 198.711 216.69 199.018 216.552C199.326 216.404 199.557 216.192 199.712 215.914C199.876 215.628 199.951 215.294 199.938 214.912C199.926 214.574 199.845 214.257 199.696 213.962C199.556 213.668 199.335 213.429 199.033 213.247C198.74 213.056 198.355 212.961 197.877 212.961ZM202.513 221.717L206.78 211.178H208.368L204.101 221.717H202.513ZM213.391 221.197L213.123 213.52H213.097L209.833 215.485L209.315 214.067L213.06 211.699H214.713L215.045 221.197H213.391ZM221.757 221.197L221.489 213.52H221.463L218.199 215.485L217.68 214.067L221.425 211.699H223.079L223.41 221.197H221.757Z" fill="white"/>
<path d="M52.1826 221.197L51.8509 211.699H54.7151C56.1124 211.699 57.1401 211.924 57.7982 212.375C58.4649 212.826 58.8153 213.542 58.8496 214.522C58.8832 215.485 58.5959 216.205 57.9876 216.682C57.388 217.159 56.4547 217.397 55.1875 217.397H52.7659L52.7223 216.148H54.9356C55.8208 216.148 56.4545 216.027 56.8366 215.784C57.2271 215.533 57.4126 215.129 57.3932 214.574C57.3739 214.019 57.1603 213.62 56.7526 213.377C56.3532 213.125 55.7109 213 54.8256 213H53.3284L53.6147 221.197H52.1826ZM57.7417 221.197L53.2806 216.851H55.0903L59.6034 221.197H57.7417ZM61.1586 221.197L60.8269 211.699H67.076L67.1206 212.974H62.3035L62.3953 215.602H66.952L66.9956 216.851H62.4389L62.5461 219.922H67.3632L67.4077 221.197H61.1586ZM75.2558 221.197L74.9241 211.699H76.3562L76.6879 221.197H75.2558ZM69.3972 221.197L69.0655 211.699H70.4976L70.8293 221.197H69.3972ZM69.9624 216.877L69.917 215.576H75.7755L75.821 216.877H69.9624ZM77.9698 221.197L81.1012 211.699H83.0411L86.8228 221.197H85.2475L82.1204 212.922H82.0943L79.5451 221.197H77.9698ZM79.6833 218.816L79.6379 217.515H84.9106L84.956 218.816H79.6833ZM88.0994 221.197L87.7677 211.699H89.33L94.1105 218.855H94.1365L93.8866 211.699H95.3187L95.6504 221.197H94.0881L89.3076 214.041H89.2816L89.5315 221.197H88.0994ZM101.513 221.197L101.181 211.699H104.045C105.442 211.699 106.47 211.924 107.128 212.375C107.795 212.826 108.145 213.542 108.18 214.522C108.213 215.485 107.926 216.205 107.318 216.682C106.718 217.159 105.785 217.397 104.517 217.397H102.096L102.052 216.148H104.266C105.151 216.148 105.785 216.027 106.167 215.784C106.557 215.533 106.743 215.129 106.723 214.574C106.704 214.019 106.49 213.62 106.083 213.377C105.683 213.125 105.041 213 104.156 213H102.658L102.945 221.197H101.513ZM107.072 221.197L102.611 216.851H104.42L108.933 221.197H107.072ZM109.551 221.197L112.683 211.699H114.622L118.404 221.197H116.829L113.702 212.922H113.676L111.126 221.197H109.551ZM111.265 218.816L111.219 217.515H116.492L116.537 218.816H111.265ZM119.798 221.197L119.466 211.699H120.95L121.282 221.197H119.798ZM129.468 221.197L129.136 211.699H130.568L130.9 221.197H129.468ZM123.609 221.197L123.278 211.699H124.71L125.041 221.197H123.609ZM124.175 216.877L124.129 215.576H129.988L130.033 216.877H124.175ZM132.182 221.197L135.313 211.699H137.253L141.035 221.197H139.46L136.332 212.922H136.306L133.757 221.197H132.182ZM133.895 218.816L133.85 217.515H139.123L139.168 218.816H133.895ZM142.311 221.197L141.98 211.699H143.542L148.323 218.855H148.349L148.099 211.699H149.531L149.863 221.197H148.3L143.52 214.041H143.494L143.744 221.197H142.311Z" fill="white"/>
<path fill-rule="evenodd" clip-rule="evenodd" d="M64.8255 52.0642C67.3316 49.6859 68.8353 46.274 68.7029 42.4823C68.5705 38.6906 66.8285 35.2787 64.1563 32.9004C66.3996 30.7717 69.4474 29.4712 72.8435 29.4712C80.0336 29.4712 86.066 35.2966 86.3169 42.4823C86.5679 49.668 80.9423 55.4934 73.7522 55.4934C70.3561 55.4934 67.2175 54.1929 64.8255 52.0642ZM64.8255 52.0642C62.5822 54.1929 59.5343 55.4934 56.1382 55.4934C48.9481 55.4934 42.9158 49.668 42.6648 42.4823C42.4139 35.2966 48.0394 29.4712 55.2295 29.4712C58.6256 29.4712 61.7643 30.7717 64.1563 32.9004C61.6502 35.2787 60.1464 38.6906 60.2788 42.4823C60.4112 46.274 62.1533 49.6859 64.8255 52.0642Z" fill="white"/>
<path fill-rule="evenodd" clip-rule="evenodd" d="M377.802 29.7233C378.394 29.2892 379.244 29.4297 379.699 30.0371C382.125 33.2713 385.076 38.7874 386.1 44.9315C387.13 51.1176 386.209 58.0235 380.74 63.7652C380.233 64.2966 379.377 64.3022 378.827 63.7778C378.277 63.2534 378.242 62.3975 378.748 61.8661C383.518 56.8584 384.359 50.8606 383.43 45.2841C382.494 39.6656 379.767 34.5601 377.553 31.6091C377.098 31.0017 377.209 30.1574 377.802 29.7233ZM372.112 34.6811C372.704 34.2461 373.554 34.3853 374.01 34.9921C375.722 37.2679 377.8 41.1388 378.522 45.4613C379.25 49.8264 378.599 54.7339 374.704 58.8102C374.197 59.3407 373.34 59.345 372.791 58.8197C372.242 58.2945 372.208 57.4386 372.715 56.908C375.909 53.5656 376.478 49.5677 375.852 45.815C375.218 42.0196 373.365 38.5601 371.866 36.5673C371.41 35.9606 371.52 35.1161 372.112 34.6811ZM367.787 40.092C368.376 39.6541 369.227 39.7894 369.686 40.394C370.621 41.6244 371.747 43.7011 372.14 46.0381C372.541 48.4197 372.183 51.1489 370.001 53.4078C369.492 53.9357 368.635 53.9357 368.089 53.4078C367.542 52.8798 367.512 52.0239 368.022 51.496C369.496 49.9698 369.768 48.1555 369.471 46.3953C369.168 44.5905 368.27 42.9273 367.55 41.9797C367.091 41.3751 367.197 40.5299 367.787 40.092ZM364.267 45.6929C363.769 45.6929 363.379 46.0964 363.397 46.5941C363.414 47.0918 363.832 47.4953 364.33 47.4953C364.828 47.4953 365.217 47.0918 365.2 46.5941C365.183 46.0964 364.765 45.6929 364.267 45.6929ZM360.691 46.5941C360.622 44.6032 362.18 42.9893 364.172 42.9893C366.165 42.9893 367.836 44.6032 367.905 46.5941C367.975 48.585 366.416 50.1989 364.424 50.1989C362.432 50.1989 360.761 48.585 360.691 46.5941Z" fill="white"/>
<path d="M51.7504 144.789L51.3225 132.537H51.2791L46.7712 136.418L46.647 132.862L51.1976 128.959H54.3222L54.875 144.789H51.7504ZM62.5204 145.006C61.3053 145.006 60.3215 144.796 59.5691 144.377C58.8312 143.957 58.2792 143.271 57.9132 142.317C57.5616 141.362 57.3581 140.09 57.3026 138.5C57.2243 136.259 57.4498 134.43 57.9789 133.014C58.5076 131.582 59.3673 130.52 60.5582 129.826C61.7491 129.132 63.2987 128.771 65.2072 128.742L65.3011 131.431C64.4332 131.431 63.6571 131.575 62.9728 131.864C62.288 132.139 61.7445 132.522 61.3422 133.014C60.9398 133.505 60.7213 134.083 60.6867 134.748H60.7735C61.171 134.532 61.549 134.38 61.9076 134.293C62.2662 134.206 62.6553 134.163 63.0748 134.163C64.4635 134.163 65.4982 134.589 66.1789 135.442C66.8736 136.281 67.252 137.589 67.3141 139.367C67.3843 141.377 67.0442 142.823 66.2939 143.704C65.5575 144.572 64.2996 145.006 62.5204 145.006ZM62.4512 142.403C63.1022 142.403 63.5714 142.172 63.8591 141.709C64.1462 141.232 64.2726 140.502 64.2382 139.519C64.2039 138.536 64.0268 137.813 63.7069 137.351C63.3864 136.874 62.9007 136.635 62.2498 136.635C61.5988 136.635 61.1298 136.874 60.8427 137.351C60.555 137.813 60.4284 138.536 60.4627 139.519C60.4971 140.502 60.6744 141.232 60.9949 141.709C61.3148 142.172 61.8002 142.403 62.4512 142.403ZM73.1227 137.936C72.6598 137.936 72.2861 137.799 72.0017 137.524C71.7173 137.25 71.5672 136.888 71.5516 136.44C71.5354 135.977 71.6602 135.616 71.926 135.356C72.1912 135.081 72.5553 134.944 73.0182 134.944C73.4811 134.944 73.8548 135.081 74.1392 135.356C74.4232 135.616 74.5732 135.977 74.5894 136.44C74.605 136.888 74.4802 137.25 74.2149 137.524C73.9497 137.799 73.5856 137.936 73.1227 137.936ZM73.3696 145.006C72.1689 145.006 71.2059 144.767 70.4804 144.29C69.7544 143.798 69.2131 143.003 68.8565 141.905C68.4999 140.806 68.2898 139.346 68.2262 137.524L68.1807 136.223C68.1166 134.387 68.2248 132.927 68.5051 131.843C68.785 130.744 69.271 129.956 69.9632 129.479C70.6548 128.987 71.601 128.742 72.8016 128.742C73.9878 128.742 74.9439 128.987 75.6699 129.479C76.4098 129.956 76.9581 130.744 77.3147 131.843C77.6708 132.927 77.8809 134.387 77.945 136.223L77.9905 137.524C78.0541 139.346 77.9459 140.806 77.6661 141.905C77.3862 143.003 76.8932 143.798 76.1871 144.29C75.4949 144.767 74.5558 145.006 73.3696 145.006ZM73.2757 142.317C73.7675 142.317 74.1318 142.186 74.3687 141.926C74.6055 141.666 74.7549 141.182 74.817 140.473C74.893 139.751 74.9068 138.695 74.8583 137.307L74.828 136.44C74.7796 135.052 74.6923 134.004 74.5663 133.296C74.4543 132.573 74.2708 132.081 74.0158 131.821C73.7608 131.561 73.3874 131.431 72.8955 131.431C72.4182 131.431 72.0538 131.561 71.8025 131.821C71.5657 132.081 71.4093 132.573 71.3333 133.296C71.2712 134.004 71.2644 135.052 71.3129 136.44L71.3432 137.307C71.3916 138.695 71.4719 139.751 71.5839 140.473C71.7099 141.182 71.9004 141.666 72.1554 141.926C72.4249 142.186 72.7983 142.317 73.2757 142.317ZM79.7807 142.186C80.7275 141.131 81.5264 140.191 82.1775 139.367C82.8281 138.529 83.3516 137.777 83.7479 137.112C84.1436 136.433 84.426 135.818 84.5948 135.269C84.7637 134.72 84.8395 134.199 84.8224 133.708C84.7956 132.941 84.6096 132.378 84.2643 132.016C83.9189 131.655 83.3918 131.474 82.683 131.474C81.7572 131.474 80.6744 131.741 79.4346 132.276L79.3361 129.457C80.4044 128.98 81.7197 128.742 83.282 128.742C84.8587 128.742 86.0291 129.118 86.7931 129.869C87.5566 130.607 87.9661 131.77 88.0216 133.361C88.0449 134.026 87.9746 134.705 87.8107 135.399C87.6609 136.079 87.4105 136.78 87.0596 137.502C86.7088 138.225 86.2647 138.97 85.7272 139.736C85.2043 140.502 84.5736 141.29 83.8352 142.1L83.8383 142.186H88.46L88.5509 144.789H79.8715L79.7807 142.186ZM116.52 137.936C116.057 137.936 115.683 137.799 115.399 137.524C115.114 137.25 114.964 136.888 114.948 136.44C114.932 135.977 115.057 135.616 115.323 135.356C115.588 135.081 115.952 134.944 116.415 134.944C116.878 134.944 117.252 135.081 117.536 135.356C117.82 135.616 117.97 135.977 117.986 136.44C118.002 136.888 117.877 137.25 117.612 137.524C117.347 137.799 116.982 137.936 116.52 137.936ZM116.766 145.006C115.566 145.006 114.603 144.767 113.877 144.29C113.151 143.798 112.61 143.003 112.253 141.905C111.897 140.806 111.687 139.346 111.623 137.524L111.578 136.223C111.513 134.387 111.622 132.927 111.902 131.843C112.182 130.744 112.668 129.956 113.36 129.479C114.052 128.987 114.998 128.742 116.198 128.742C117.385 128.742 118.341 128.987 119.067 129.479C119.807 129.956 120.355 130.744 120.712 131.843C121.068 132.927 121.278 134.387 121.342 136.223L121.387 137.524C121.451 139.346 121.343 140.806 121.063 141.905C120.783 143.003 120.29 143.798 119.584 144.29C118.892 144.767 117.953 145.006 116.766 145.006ZM116.673 142.317C117.164 142.317 117.529 142.186 117.765 141.926C118.002 141.666 118.152 141.182 118.214 140.473C118.29 139.751 118.304 138.695 118.255 137.307L118.225 136.44C118.176 135.052 118.089 134.004 117.963 133.296C117.851 132.573 117.668 132.081 117.413 131.821C117.158 131.561 116.784 131.431 116.292 131.431C115.815 131.431 115.451 131.561 115.199 131.821C114.963 132.081 114.806 132.573 114.73 133.296C114.668 134.004 114.661 135.052 114.71 136.44L114.74 137.307C114.788 138.695 114.869 139.751 114.981 140.473C115.107 141.182 115.297 141.666 115.552 141.926C115.822 142.186 116.195 142.317 116.673 142.317ZM127.048 128.742C128.277 128.742 129.261 128.951 129.999 129.371C130.737 129.79 131.282 130.476 131.633 131.431C131.999 132.385 132.21 133.657 132.265 135.247C132.343 137.474 132.118 139.302 131.589 140.734C131.06 142.165 130.201 143.227 129.01 143.921C127.833 144.615 126.284 144.977 124.361 145.006L124.267 142.317C125.149 142.317 125.926 142.179 126.596 141.905C127.28 141.615 127.824 141.225 128.226 140.734C128.628 140.228 128.846 139.649 128.881 138.999H128.795C128.397 139.216 128.019 139.367 127.66 139.454C127.302 139.541 126.913 139.584 126.493 139.584C125.105 139.584 124.063 139.165 123.368 138.327C122.687 137.474 122.316 136.158 122.254 134.38C122.184 132.37 122.517 130.932 123.253 130.064C124.004 129.183 125.268 128.742 127.048 128.742ZM127.117 131.344C126.466 131.344 125.997 131.582 125.71 132.06C125.422 132.522 125.295 133.245 125.33 134.228C125.364 135.211 125.542 135.941 125.862 136.418C126.182 136.881 126.667 137.112 127.318 137.112C127.969 137.112 128.439 136.881 128.726 136.418C129.013 135.941 129.14 135.211 129.105 134.228C129.071 133.245 128.894 132.522 128.574 132.06C128.253 131.582 127.768 131.344 127.117 131.344ZM138.544 144.789L138.116 132.537H138.073L133.565 136.418L133.441 132.862L137.991 128.959H141.116L141.669 144.789H138.544ZM149.393 144.789L148.965 132.537H148.922L144.414 136.418L144.29 132.862L148.84 128.959H151.965L152.518 144.789H149.393ZM177.424 142.186C178.37 141.131 179.169 140.191 179.82 139.367C180.471 138.529 180.994 137.777 181.391 137.112C181.786 136.433 182.069 135.818 182.238 135.269C182.407 134.72 182.482 134.199 182.465 133.708C182.438 132.941 182.252 132.378 181.907 132.016C181.562 131.655 181.035 131.474 180.326 131.474C179.4 131.474 178.317 131.741 177.077 132.276L176.979 129.457C178.047 128.98 179.363 128.742 180.925 128.742C182.502 128.742 183.672 129.118 184.436 129.869C185.199 130.607 185.609 131.77 185.664 133.361C185.688 134.026 185.617 134.705 185.454 135.399C185.304 136.079 185.053 136.78 184.703 137.502C184.352 138.225 183.908 138.97 183.37 139.736C182.847 140.502 182.216 141.29 181.478 142.1L181.481 142.186H186.103L186.194 144.789H177.514L177.424 142.186ZM192.464 137.936C192.001 137.936 191.627 137.799 191.343 137.524C191.059 137.25 190.908 136.888 190.893 136.44C190.877 135.977 191.001 135.616 191.267 135.356C191.532 135.081 191.897 134.944 192.359 134.944C192.822 134.944 193.196 135.081 193.48 135.356C193.764 135.616 193.914 135.977 193.931 136.44C193.946 136.888 193.821 137.25 193.556 137.524C193.291 137.799 192.927 137.936 192.464 137.936ZM192.711 145.006C191.51 145.006 190.547 144.767 189.822 144.29C189.096 143.798 188.554 143.003 188.198 141.905C187.841 140.806 187.631 139.346 187.567 137.524L187.522 136.223C187.458 134.387 187.566 132.927 187.846 131.843C188.126 130.744 188.612 129.956 189.304 129.479C189.996 128.987 190.942 128.742 192.143 128.742C193.329 128.742 194.285 128.987 195.011 129.479C195.751 129.956 196.299 130.744 196.656 131.843C197.012 132.927 197.222 134.387 197.286 136.223L197.332 137.524C197.395 139.346 197.287 140.806 197.007 141.905C196.727 143.003 196.234 143.798 195.528 144.29C194.836 144.767 193.897 145.006 192.711 145.006ZM192.617 142.317C193.109 142.317 193.473 142.186 193.71 141.926C193.947 141.666 194.096 141.182 194.158 140.473C194.234 139.751 194.248 138.695 194.2 137.307L194.169 136.44C194.121 135.052 194.034 134.004 193.908 133.296C193.796 132.573 193.612 132.081 193.357 131.821C193.102 131.561 192.729 131.431 192.237 131.431C191.759 131.431 191.395 131.561 191.144 131.821C190.907 132.081 190.751 132.573 190.675 133.296C190.612 134.004 190.606 135.052 190.654 136.44L190.684 137.307C190.733 138.695 190.813 139.751 190.925 140.473C191.051 141.182 191.242 141.666 191.497 141.926C191.766 142.186 192.14 142.317 192.617 142.317ZM203.639 144.789L203.211 132.537H203.168L198.66 136.418L198.536 132.862L203.086 128.959H206.211L206.764 144.789H203.639ZM213.841 128.742C215.071 128.742 216.055 128.951 216.793 129.371C217.53 129.79 218.075 130.476 218.427 131.431C218.793 132.385 219.004 133.657 219.059 135.247C219.137 137.474 218.911 139.302 218.383 140.734C217.854 142.165 216.994 143.227 215.803 143.921C214.627 144.615 213.077 144.977 211.154 145.006L211.061 142.317C211.943 142.317 212.719 142.179 213.39 141.905C214.074 141.615 214.617 141.225 215.02 140.734C215.421 140.228 215.64 139.649 215.675 138.999H215.588C215.191 139.216 214.813 139.367 214.454 139.454C214.095 139.541 213.706 139.584 213.287 139.584C211.898 139.584 210.857 139.165 210.162 138.327C209.481 137.474 209.11 136.158 209.048 134.38C208.977 132.37 209.31 130.932 210.047 130.064C210.797 129.183 212.062 128.742 213.841 128.742ZM213.91 131.344C213.26 131.344 212.79 131.582 212.503 132.06C212.216 132.522 212.089 133.245 212.123 134.228C212.158 135.211 212.335 135.941 212.656 136.418C212.976 136.881 213.461 137.112 214.112 137.112C214.763 137.112 215.232 136.881 215.52 136.418C215.807 135.941 215.933 135.211 215.899 134.228C215.865 133.245 215.687 132.522 215.368 132.06C215.047 131.582 214.561 131.344 213.91 131.344ZM242.519 142.186C243.466 141.131 244.265 140.191 244.916 139.367C245.566 138.529 246.09 137.777 246.486 137.112C246.882 136.433 247.164 135.818 247.333 135.269C247.502 134.72 247.578 134.199 247.56 133.708C247.534 132.941 247.348 132.378 247.002 132.016C246.657 131.655 246.13 131.474 245.421 131.474C244.495 131.474 243.413 131.741 242.173 132.276L242.074 129.457C243.142 128.98 244.458 128.742 246.02 128.742C247.597 128.742 248.767 129.118 249.531 129.869C250.295 130.607 250.704 131.77 250.76 133.361C250.783 134.026 250.713 134.705 250.549 135.399C250.399 136.079 250.149 136.78 249.798 137.502C249.447 138.225 249.003 138.97 248.465 139.736C247.942 140.502 247.312 141.29 246.573 142.1L246.576 142.186H251.198L251.289 144.789H242.61L242.519 142.186ZM257.559 137.936C257.096 137.936 256.723 137.799 256.438 137.524C256.154 137.25 256.004 136.888 255.988 136.44C255.972 135.977 256.097 135.616 256.362 135.356C256.628 135.081 256.992 134.944 257.455 134.944C257.918 134.944 258.291 135.081 258.576 135.356C258.86 135.616 259.01 135.977 259.026 136.44C259.042 136.888 258.917 137.25 258.651 137.524C258.386 137.799 258.022 137.936 257.559 137.936ZM257.806 145.006C256.605 145.006 255.642 144.767 254.917 144.29C254.191 143.798 253.65 143.003 253.293 141.905C252.936 140.806 252.726 139.346 252.663 137.524L252.617 136.223C252.553 134.387 252.661 132.927 252.942 131.843C253.222 130.744 253.708 129.956 254.4 129.479C255.091 128.987 256.037 128.742 257.238 128.742C258.424 128.742 259.38 128.987 260.106 129.479C260.846 129.956 261.395 130.744 261.751 131.843C262.107 132.927 262.317 134.387 262.382 136.223L262.427 137.524C262.491 139.346 262.382 140.806 262.103 141.905C261.823 143.003 261.33 143.798 260.624 144.29C259.931 144.767 258.992 145.006 257.806 145.006ZM257.712 142.317C258.204 142.317 258.568 142.186 258.805 141.926C259.042 141.666 259.191 141.182 259.254 140.473C259.33 139.751 259.343 138.695 259.295 137.307L259.265 136.44C259.216 135.052 259.129 134.004 259.003 133.296C258.891 132.573 258.707 132.081 258.452 131.821C258.197 131.561 257.824 131.431 257.332 131.431C256.855 131.431 256.49 131.561 256.239 131.821C256.002 132.081 255.846 132.573 255.77 133.296C255.708 134.004 255.701 135.052 255.749 136.44L255.78 137.307C255.828 138.695 255.908 139.751 256.02 140.473C256.146 141.182 256.337 141.666 256.592 141.926C256.861 142.186 257.235 142.317 257.712 142.317ZM264.217 142.186C265.164 141.131 265.963 140.191 266.614 139.367C267.265 138.529 267.788 137.777 268.184 137.112C268.58 136.433 268.862 135.818 269.031 135.269C269.2 134.72 269.276 134.199 269.259 133.708C269.232 132.941 269.046 132.378 268.701 132.016C268.355 131.655 267.828 131.474 267.12 131.474C266.194 131.474 265.111 131.741 263.871 132.276L263.773 129.457C264.841 128.98 266.156 128.742 267.718 128.742C269.295 128.742 270.466 129.118 271.23 129.869C271.993 130.607 272.403 131.77 272.458 133.361C272.481 134.026 272.411 134.705 272.247 135.399C272.097 136.079 271.847 136.78 271.496 137.502C271.145 138.225 270.701 138.97 270.164 139.736C269.641 140.502 269.01 141.29 268.272 142.1L268.275 142.186H272.897L272.987 144.789H264.308L264.217 142.186ZM279.584 144.789L279.156 132.537H279.112L274.605 136.418L274.48 132.862L279.031 128.959H282.155L282.708 144.789H279.584Z" fill="white"/>
<path d="M349.806 200.896C349.783 200.236 350.3 199.7 350.962 199.7H361.137C361.799 199.7 362.353 200.236 362.376 200.896L362.642 208.516C362.658 208.977 362.408 209.398 361.998 209.596L356.994 212.017C356.674 212.172 356.296 212.172 355.965 212.017L350.792 209.596C350.369 209.398 350.088 208.977 350.072 208.516L349.806 200.896Z" fill="white"/>
<path d="M368.961 200.896C368.938 200.236 369.455 199.7 370.116 199.7H373.109C373.77 199.7 374.325 200.236 374.348 200.896L374.431 203.289C374.454 203.95 373.937 204.486 373.276 204.486H370.283C369.622 204.486 369.067 203.95 369.044 203.289L368.961 200.896Z" fill="white"/>
<path d="M380.932 200.896C380.909 200.236 381.426 199.7 382.088 199.7H392.263C392.925 199.7 393.479 200.236 393.502 200.896L393.753 208.075C393.776 208.736 393.259 209.271 392.598 209.271H382.422C381.761 209.271 381.206 208.736 381.183 208.075L380.932 200.896Z" fill="white"/>
<path d="M350.245 213.459C350.222 212.798 350.739 212.262 351.4 212.262H361.576C362.237 212.262 362.792 212.798 362.815 213.459L363.066 220.637C363.089 221.298 362.571 221.834 361.91 221.834H351.734C351.073 221.834 350.519 221.298 350.496 220.637L350.245 213.459Z" fill="white"/>
<path d="M365.641 208.673C365.618 208.012 366.135 207.477 366.796 207.477H376.972C377.633 207.477 378.188 208.012 378.211 208.673L378.796 225.423C378.819 226.084 378.302 226.619 377.64 226.619H367.465C366.803 226.619 366.249 226.084 366.226 225.423L365.641 208.673Z" fill="white"/>
<path d="M381.371 213.459C381.348 212.798 381.865 212.262 382.526 212.262H392.702C393.363 212.262 393.918 212.798 393.941 213.459L394.192 220.637C394.215 221.298 393.697 221.834 393.036 221.834H382.86C382.199 221.834 381.645 221.298 381.622 220.637L381.371 213.459Z" fill="white"/>
<path d="M350.684 226.021C350.66 225.361 351.178 224.825 351.839 224.825H362.015C362.676 224.825 363.231 225.361 363.254 226.021L363.504 233.2C363.527 233.861 363.01 234.396 362.349 234.396H352.173C351.512 234.396 350.957 233.861 350.934 233.2L350.684 226.021Z" fill="white"/>
<path d="M370.005 230.807C369.982 230.146 370.499 229.611 371.16 229.611H374.153C374.815 229.611 375.369 230.146 375.392 230.807L375.476 233.2C375.499 233.861 374.982 234.396 374.321 234.396H371.328C370.666 234.396 370.112 233.861 370.089 233.2L370.005 230.807Z" fill="white"/>
<path d="M381.794 225.58C381.778 225.119 382.029 224.698 382.439 224.5L387.442 222.079C387.762 221.924 388.141 221.924 388.472 222.079L393.644 224.5C394.068 224.698 394.348 225.119 394.364 225.58L394.63 233.2C394.653 233.861 394.136 234.396 393.475 234.396H383.299C382.638 234.396 382.083 233.861 382.06 233.2L381.794 225.58Z" fill="white"/>
<defs>
<filter id="filter0_b_18_34" x="-12.8549" y="-12.7626" width="447.067" height="288.309" filterUnits="userSpaceOnUse" color-interpolation-filters="sRGB">
<feFlood flood-opacity="0" result="BackgroundImageFix"/>
<feGaussianBlur in="BackgroundImageFix" stdDeviation="6.47968"/>
<feComposite in2="SourceAlpha" operator="in" result="effect1_backgroundBlur_18_34"/>
<feBlend mode="normal" in="SourceGraphic" in2="effect1_backgroundBlur_18_34" result="shape"/>
</filter>
<linearGradient id="paint0_linear_18_34" x1="30.3778" y1="11.9341" x2="250.617" y2="260.381" gradientUnits="userSpaceOnUse">
<stop stop-color="white"/>
<stop offset="1" stop-color="white" stop-opacity="0.55"/>
</linearGradient>
</defs>
</svg>
