<svg width="59" height="42" viewBox="0 0 59 42" fill="none" xmlns="http://www.w3.org/2000/svg">
<path fill-rule="evenodd" clip-rule="evenodd" d="M25.9751 33.4585C30.143 31.2807 33.4208 27.4326 34.7339 22.5321C36.047 17.6315 35.1324 12.66 32.6117 8.69011C36.3425 6.74108 40.7883 6.13079 45.1749 7.30618C54.4621 9.79467 59.9737 19.3411 57.4852 28.6283C54.9967 37.9154 45.4503 43.4271 36.1632 40.9386C31.7765 39.7632 28.2315 37.0118 25.9751 33.4585ZM25.9751 33.4585C22.2442 35.4075 17.7985 36.0178 13.4118 34.8424C4.12468 32.3539 -1.38695 22.8075 1.10154 13.5203C3.59002 4.23314 13.1365 -1.2785 22.4236 1.20999C26.8102 2.38538 30.3552 5.13679 32.6117 8.69011C28.4438 10.8678 25.1659 14.716 23.8529 19.6165C22.5398 24.517 23.4544 29.4885 25.9751 33.4585Z" fill="white"/>
</svg>
