<svg width="530" height="262" viewBox="0 0 530 262" fill="none" xmlns="http://www.w3.org/2000/svg">
<g filter="url(#filter0_b_1_160)">
<rect width="435.047" height="274.766" rx="36.6355" transform="matrix(1 0 -0.34202 0.939692 94.389 2)" fill="white" fill-opacity="0.1"/>
<rect width="435.047" height="274.766" rx="36.6355" transform="matrix(1 0 -0.34202 0.939692 94.389 2)" stroke="url(#paint0_linear_1_160)" stroke-opacity="0.5" stroke-width="2.28972"/>
</g>
<path d="M71.4997 194.273L75.5015 183.278H77.6332L80.0019 191.17H80.0339L82.9065 183.278H84.8939L80.8921 194.273H78.7604L76.4078 186.381H76.3757L73.5032 194.273H71.4997ZM85.2939 194.423C84.4604 194.423 83.88 194.213 83.5526 193.791C83.2396 193.359 83.2165 192.777 83.4833 192.044C83.8159 191.13 84.451 190.427 85.3888 189.935C86.3265 189.443 87.4953 189.197 88.8951 189.197H90.0651C90.204 188.816 90.2565 188.524 90.2228 188.324C90.2034 188.113 90.0854 187.967 89.8689 187.887C89.663 187.806 89.341 187.766 88.9029 187.766C88.3687 187.766 87.7948 187.817 87.1812 187.917C86.5783 188.017 85.9892 188.168 85.4139 188.369L85.6892 186.908C86.3036 186.717 86.9622 186.566 87.6649 186.456C88.3676 186.346 89.0502 186.29 89.7126 186.29C90.5568 186.29 91.1846 186.386 91.596 186.576C92.0181 186.767 92.2537 187.089 92.303 187.54C92.3522 187.992 92.2416 188.59 91.9712 189.333L90.1731 194.273H88.2978L88.6107 193.369H88.5787C88.1769 193.68 87.6669 193.936 87.0489 194.137C86.4345 194.328 85.8495 194.423 85.2939 194.423ZM86.5254 192.978C86.9207 192.978 87.3078 192.912 87.6865 192.782C88.0689 192.641 88.3983 192.455 88.6747 192.225C88.9511 191.994 89.1423 191.733 89.2483 191.441L89.5937 190.492H88.7121C87.7932 190.492 87.0566 190.608 86.5024 190.839C85.9625 191.06 85.6085 191.401 85.4404 191.863C85.3162 192.204 85.3457 192.476 85.5291 192.676C85.7124 192.877 86.0445 192.978 86.5254 192.978ZM92.2831 194.273L95.1337 186.441H96.9609L96.6585 187.36H96.6906C97.114 187.018 97.567 186.757 98.0495 186.576C98.5357 186.386 99.0566 186.29 99.6122 186.29C100.157 186.29 100.582 186.386 100.886 186.576C101.205 186.757 101.383 187.018 101.419 187.36H101.451C101.907 186.988 102.374 186.717 102.853 186.546C103.332 186.376 103.854 186.29 104.421 186.29C105.318 186.29 105.888 186.516 106.129 186.968C106.375 187.41 106.324 188.108 105.976 189.062L104.08 194.273H102.172L103.905 189.513C104.12 188.921 104.176 188.489 104.072 188.218C103.967 187.947 103.691 187.812 103.242 187.812C102.708 187.812 102.225 187.977 101.795 188.309C101.364 188.64 101.049 189.082 100.848 189.634L99.1591 194.273H97.2357L99.0174 189.378C99.2037 188.866 99.2322 188.479 99.1029 188.218C98.9772 187.947 98.7059 187.812 98.2892 187.812C97.9686 187.812 97.6456 187.892 97.3199 188.052C97.005 188.213 96.7181 188.429 96.4591 188.7C96.2109 188.971 96.0228 189.283 95.8949 189.634L94.2064 194.273H92.2831ZM110.15 194.423C108.676 194.423 107.671 194.072 107.136 193.369C106.601 192.666 106.571 191.662 107.046 190.357C107.507 189.092 108.232 188.098 109.222 187.375C110.222 186.652 111.358 186.29 112.63 186.29C113.858 186.29 114.685 186.632 115.11 187.314C115.535 187.997 115.518 188.966 115.062 190.221C115.01 190.362 114.948 190.518 114.876 190.688C114.803 190.859 114.746 190.984 114.707 191.065H107.879L108.366 189.724H113.688L113.251 190.131C113.551 189.308 113.601 188.7 113.402 188.309C113.217 187.907 112.788 187.706 112.114 187.706C111.398 187.706 110.777 187.917 110.249 188.339C109.736 188.75 109.331 189.363 109.035 190.176L108.844 190.703C108.566 191.466 108.573 192.034 108.865 192.405C109.161 192.767 109.742 192.947 110.607 192.947C111.056 192.947 111.552 192.907 112.094 192.827C112.639 192.737 113.136 192.621 113.582 192.481L113.296 193.926C112.835 194.077 112.327 194.198 111.77 194.288C111.214 194.378 110.674 194.423 110.15 194.423Z" fill="#EDEDED"/>
<path d="M107.861 109.433C106.589 109.433 105.576 109.207 104.822 108.755C104.067 108.304 103.598 107.656 103.413 106.813C103.24 105.969 103.366 104.96 103.794 103.785C104.225 102.6 104.833 101.591 105.617 100.758C106.416 99.9144 107.357 99.2668 108.44 98.8149C109.523 98.3631 110.701 98.1372 111.972 98.1372C113.426 98.1372 114.605 98.4334 115.512 99.0258L114.444 100.683C113.566 100.1 112.561 99.809 111.428 99.809C110.584 99.809 109.794 99.9696 109.057 100.291C108.324 100.602 107.684 101.054 107.137 101.646C106.59 102.239 106.165 102.952 105.862 103.785C105.562 104.609 105.468 105.321 105.58 105.924C105.696 106.516 106.005 106.973 106.508 107.295C107.014 107.606 107.689 107.761 108.534 107.761C109.634 107.761 110.851 107.47 112.185 106.888L112.047 108.545C110.71 109.137 109.314 109.433 107.861 109.433ZM113.732 109.283L116.583 101.451H118.474L117.953 102.927H117.985C118.387 102.585 118.819 102.294 119.281 102.053C119.757 101.802 120.246 101.616 120.75 101.496C121.257 101.365 121.761 101.3 122.264 101.3L121.682 102.897C121.009 102.897 120.351 103.017 119.708 103.258C119.075 103.499 118.518 103.825 118.037 104.237C117.57 104.639 117.246 105.091 117.063 105.593L115.72 109.283H113.732ZM124.274 109.433C122.8 109.433 121.795 109.082 121.26 108.379C120.725 107.676 120.695 106.672 121.17 105.367C121.631 104.101 122.356 103.107 123.346 102.384C124.346 101.662 125.482 101.3 126.754 101.3C127.982 101.3 128.809 101.641 129.234 102.324C129.658 103.007 129.642 103.976 129.186 105.231C129.134 105.372 129.072 105.527 129 105.698C128.927 105.869 128.87 105.994 128.83 106.075H122.002L122.49 104.734H127.812L127.375 105.141C127.675 104.317 127.725 103.71 127.526 103.318C127.341 102.917 126.911 102.716 126.238 102.716C125.522 102.716 124.901 102.927 124.373 103.348C123.86 103.76 123.455 104.373 123.159 105.186L122.968 105.713C122.69 106.476 122.697 107.043 122.989 107.415C123.285 107.776 123.866 107.957 124.731 107.957C125.18 107.957 125.675 107.917 126.218 107.837C126.763 107.746 127.26 107.631 127.706 107.49L127.42 108.936C126.959 109.087 126.451 109.207 125.894 109.298C125.338 109.388 124.798 109.433 124.274 109.433ZM132.42 109.433C131.309 109.433 130.573 109.077 130.213 108.364C129.852 107.651 129.906 106.652 130.374 105.367C130.842 104.081 131.515 103.082 132.394 102.369C133.274 101.657 134.269 101.3 135.38 101.3C135.936 101.3 136.405 101.39 136.788 101.571C137.171 101.752 137.454 102.018 137.636 102.369H137.684L139.169 98.2878H141.109L137.107 109.283H135.264L135.566 108.364H135.534C135.1 108.705 134.608 108.971 134.057 109.162C133.521 109.343 132.976 109.433 132.42 109.433ZM133.481 107.927C133.898 107.927 134.296 107.847 134.675 107.686C135.064 107.525 135.407 107.305 135.701 107.023C135.996 106.742 136.207 106.426 136.335 106.075L136.85 104.659C136.982 104.297 137.001 103.981 136.907 103.71C136.817 103.429 136.641 103.208 136.379 103.047C136.117 102.887 135.772 102.806 135.345 102.806C134.672 102.806 134.068 103.027 133.533 103.469C133.009 103.911 132.597 104.543 132.297 105.367C131.998 106.19 131.949 106.823 132.151 107.264C132.365 107.706 132.808 107.927 133.481 107.927ZM142.948 100.065L143.595 98.2878H145.582L144.935 100.065H142.948ZM139.593 109.283L142.427 101.496H144.415L141.581 109.283H139.593ZM147.747 109.433C146.764 109.433 146.123 109.242 145.823 108.861C145.524 108.479 145.532 107.857 145.846 106.993L147.326 102.927H145.467L146.004 101.451H147.863L148.795 98.8902H150.783L149.851 101.451H152.656L152.118 102.927H149.313L148.003 106.526C147.821 107.028 147.778 107.38 147.876 107.581C147.988 107.771 148.269 107.867 148.718 107.867C148.953 107.867 149.206 107.847 149.477 107.807C149.748 107.766 149.998 107.711 150.226 107.641L149.849 109.162C149.449 109.263 149.082 109.333 148.746 109.373C148.411 109.413 148.078 109.433 147.747 109.433ZM161.768 109.433C160.496 109.433 159.483 109.207 158.729 108.755C157.974 108.304 157.505 107.656 157.32 106.813C157.146 105.969 157.273 104.96 157.701 103.785C158.132 102.6 158.74 101.591 159.524 100.758C160.323 99.9144 161.263 99.2668 162.347 98.8149C163.43 98.3631 164.608 98.1372 165.879 98.1372C167.333 98.1372 168.512 98.4334 169.419 99.0258L168.351 100.683C167.473 100.1 166.468 99.809 165.335 99.809C164.491 99.809 163.7 99.9696 162.964 100.291C162.231 100.602 161.591 101.054 161.044 101.646C160.497 102.239 160.072 102.952 159.768 103.785C159.469 104.609 159.375 105.321 159.487 105.924C159.603 106.516 159.912 106.973 160.415 107.295C160.921 107.606 161.596 107.761 162.44 107.761C163.541 107.761 164.758 107.47 166.092 106.888L165.954 108.545C164.616 109.137 163.221 109.433 161.768 109.433ZM169.478 109.433C168.644 109.433 168.064 109.222 167.737 108.801C167.424 108.369 167.401 107.787 167.667 107.054C168 106.14 168.635 105.437 169.573 104.945C170.511 104.453 171.679 104.207 173.079 104.207H174.249C174.388 103.825 174.441 103.534 174.407 103.333C174.387 103.123 174.269 102.977 174.053 102.897C173.847 102.816 173.525 102.776 173.087 102.776C172.553 102.776 171.979 102.826 171.365 102.927C170.762 103.027 170.173 103.178 169.598 103.379L169.873 101.918C170.488 101.727 171.146 101.576 171.849 101.466C172.552 101.355 173.234 101.3 173.897 101.3C174.741 101.3 175.369 101.395 175.78 101.586C176.202 101.777 176.438 102.098 176.487 102.55C176.536 103.002 176.426 103.599 176.155 104.342L174.357 109.283H172.482L172.795 108.379H172.763C172.361 108.69 171.851 108.946 171.233 109.147C170.619 109.338 170.034 109.433 169.478 109.433ZM170.709 107.987C171.105 107.987 171.492 107.922 171.871 107.792C172.253 107.651 172.582 107.465 172.859 107.234C173.135 107.003 173.326 106.742 173.432 106.451L173.778 105.502H172.896C171.977 105.502 171.241 105.618 170.686 105.849C170.147 106.07 169.793 106.411 169.624 106.873C169.5 107.214 169.53 107.485 169.713 107.686C169.896 107.887 170.229 107.987 170.709 107.987ZM176.467 109.283L179.318 101.451H181.209L180.688 102.927H180.72C181.122 102.585 181.554 102.294 182.015 102.053C182.492 101.802 182.981 101.616 183.485 101.496C183.992 101.365 184.496 101.3 184.998 101.3L184.417 102.897C183.744 102.897 183.086 103.017 182.442 103.258C181.81 103.499 181.253 103.825 180.772 104.237C180.305 104.639 179.98 105.091 179.798 105.593L178.455 109.283H176.467ZM185.951 109.433C184.84 109.433 184.104 109.077 183.744 108.364C183.383 107.651 183.437 106.652 183.905 105.367C184.373 104.081 185.046 103.082 185.926 102.369C186.805 101.657 187.8 101.3 188.911 101.3C189.467 101.3 189.936 101.39 190.319 101.571C190.702 101.752 190.985 102.018 191.167 102.369H191.215L192.7 98.2878H194.64L190.638 109.283H188.795L189.097 108.364H189.065C188.631 108.705 188.139 108.971 187.588 109.162C187.052 109.343 186.507 109.433 185.951 109.433ZM187.012 107.927C187.429 107.927 187.827 107.847 188.206 107.686C188.596 107.525 188.938 107.305 189.232 107.023C189.527 106.742 189.738 106.426 189.866 106.075L190.382 104.659C190.513 104.297 190.532 103.981 190.438 103.71C190.348 103.429 190.172 103.208 189.91 103.047C189.648 102.887 189.303 102.806 188.876 102.806C188.203 102.806 187.599 103.027 187.064 103.469C186.54 103.911 186.128 104.543 185.828 105.367C185.529 106.19 185.48 106.823 185.683 107.264C185.896 107.706 186.339 107.927 187.012 107.927ZM197.569 109.283L201.571 98.2878H203.703L206.072 106.18H206.104L208.976 98.2878H210.964L206.962 109.283H204.83L202.478 101.39H202.446L199.573 109.283H197.569ZM213.015 109.433C211.668 109.433 210.754 109.082 210.273 108.379C209.806 107.666 209.808 106.662 210.279 105.367C210.751 104.071 211.478 103.072 212.46 102.369C213.457 101.657 214.628 101.3 215.975 101.3C217.321 101.3 218.233 101.657 218.711 102.369C219.193 103.072 219.198 104.071 218.726 105.367C218.255 106.662 217.521 107.666 216.524 108.379C215.531 109.082 214.361 109.433 213.015 109.433ZM213.552 107.957C214.289 107.957 214.929 107.741 215.47 107.31C216.016 106.868 216.444 106.22 216.755 105.367C217.065 104.513 217.107 103.871 216.879 103.439C216.655 102.997 216.175 102.776 215.438 102.776C214.711 102.776 214.07 102.997 213.513 103.439C212.972 103.871 212.545 104.513 212.235 105.367C211.924 106.22 211.881 106.868 212.105 107.31C212.343 107.741 212.825 107.957 213.552 107.957ZM218.86 109.283L219.633 107.159H221.909L221.136 109.283H218.86Z" fill="#EDEDED"/>
<path d="M213.884 189.969L217.886 178.974H225.708L225.116 180.601H219.298L218.267 183.432H223.765L223.184 185.029H217.686L216.48 188.343H222.298L221.706 189.969H213.884ZM222.991 189.969L227.072 186.023L225.873 182.137H228.053L228.753 185.059H228.785L231.611 182.137H233.791L229.764 186.023L230.973 189.969H228.793L228.078 187.002H228.046L225.186 189.969H222.991ZM240.171 181.987C241.282 181.987 242.018 182.343 242.378 183.056C242.739 183.769 242.685 184.768 242.217 186.053C241.749 187.338 241.076 188.337 240.196 189.05C239.317 189.763 238.322 190.12 237.211 190.12C236.666 190.12 236.196 190.029 235.803 189.849C235.423 189.658 235.141 189.392 234.955 189.05H234.923L233.438 193.132H231.466L235.468 182.137H237.343L237.025 183.056H237.057C237.505 182.705 237.998 182.438 238.534 182.258C239.069 182.077 239.615 181.987 240.171 181.987ZM239.11 183.493C238.704 183.493 238.306 183.573 237.916 183.734C237.526 183.894 237.184 184.115 236.89 184.396C236.609 184.668 236.403 184.984 236.272 185.345L235.756 186.761C235.629 187.112 235.604 187.429 235.684 187.71C235.774 187.991 235.955 188.212 236.228 188.373C236.501 188.533 236.84 188.614 237.246 188.614C237.93 188.614 238.534 188.393 239.058 187.951C239.582 187.509 239.994 186.877 240.294 186.053C240.593 185.23 240.642 184.597 240.439 184.155C240.237 183.714 239.794 183.493 239.11 183.493ZM242.359 189.969L243.132 187.845H245.408L244.635 189.969H242.359Z" fill="#EDEDED"/>
<path d="M207.045 220.493C205.708 220.493 204.859 220.097 204.496 219.306C204.134 218.514 204.253 217.296 204.851 215.652C205.449 214.008 206.218 212.79 207.156 211.999C208.094 211.207 209.232 210.811 210.57 210.811C211.907 210.811 212.752 211.207 213.105 211.999C213.467 212.79 213.349 214.008 212.75 215.652C212.152 217.296 211.384 218.514 210.445 219.306C209.516 220.097 208.383 220.493 207.045 220.493ZM207.567 219.06C208.327 219.06 208.982 218.785 209.53 218.234C210.079 217.683 210.566 216.823 210.992 215.652C211.421 214.473 211.56 213.612 211.41 213.07C211.262 212.519 210.808 212.244 210.048 212.244C209.288 212.244 208.629 212.519 208.071 213.07C207.526 213.612 207.038 214.473 206.609 215.652C206.183 216.823 206.044 217.683 206.192 218.234C206.348 218.785 206.807 219.06 207.567 219.06ZM219.397 210.811C220.222 210.811 220.868 210.949 221.335 211.224C221.803 211.499 222.082 211.904 222.171 212.438C222.27 212.971 222.176 213.634 221.887 214.426C221.455 215.613 220.83 216.65 220.013 217.537C219.208 218.415 218.26 219.108 217.168 219.615C216.077 220.123 214.882 220.412 213.584 220.48L213.756 219.176C214.914 219.116 215.922 218.888 216.78 218.492C217.642 218.088 218.383 217.498 219.004 216.724L218.981 216.711C218.586 216.891 218.183 217.029 217.773 217.124C217.372 217.218 216.952 217.266 216.512 217.266C215.496 217.266 214.796 216.986 214.413 216.427C214.04 215.867 214.034 215.093 214.394 214.103C214.644 213.414 215.01 212.825 215.491 212.334C215.972 211.844 216.543 211.469 217.205 211.211C217.87 210.944 218.601 210.811 219.397 210.811ZM218.895 212.192C218.217 212.192 217.634 212.36 217.145 212.696C216.669 213.023 216.323 213.483 216.107 214.077C215.891 214.671 215.891 215.136 216.108 215.471C216.337 215.798 216.772 215.962 217.413 215.962C217.871 215.962 218.29 215.893 218.669 215.755C219.052 215.609 219.381 215.398 219.655 215.123C219.942 214.839 220.154 214.507 220.292 214.129C220.414 213.793 220.455 213.479 220.415 213.186C220.384 212.894 220.246 212.657 220 212.476C219.767 212.287 219.398 212.192 218.895 212.192ZM220.301 220.881L228.998 210.424H230.674L221.978 220.881H220.301ZM231.988 220.364L234.76 212.747H234.733L230.506 214.697L230.524 213.29L235.418 210.94H237.163L233.733 220.364H231.988ZM240.816 220.364L243.588 212.747H243.561L239.334 214.697L239.352 213.29L244.246 210.94H245.991L242.56 220.364H240.816Z" fill="white"/>
<path d="M61.8726 220.364L65.3027 210.94H68.3251C69.7997 210.94 70.7944 211.164 71.3093 211.611C71.8333 212.059 71.9183 212.769 71.5643 213.741C71.2166 214.697 70.6269 215.411 69.7952 215.884C68.9726 216.358 67.8927 216.595 66.5555 216.595H64.0002L64.4513 215.355H66.7868C67.721 215.355 68.438 215.235 68.9379 214.994C69.4501 214.744 69.8064 214.344 70.0069 213.793C70.2073 213.242 70.1408 212.846 69.8072 212.605C69.4859 212.356 68.8581 212.231 67.9239 212.231H66.344L63.3838 220.364H61.8726ZM67.7388 220.364L64.7608 216.052H66.6705L69.7034 220.364H67.7388ZM71.3445 220.364L74.7746 210.94H81.369L80.9085 212.205H75.8253L74.8762 214.813H79.6846L79.2335 216.052H74.4251L73.3162 219.099H78.3994L77.9389 220.364H71.3445ZM86.2205 220.364L89.6506 210.94H91.1618L87.7317 220.364H86.2205ZM80.0383 220.364L83.4684 210.94H84.9796L81.5495 220.364H80.0383ZM82.3539 216.078L82.8238 214.787H89.006L88.5361 216.078H82.3539ZM89.0845 220.364L96.169 210.94H98.2161L98.4266 220.364H96.7643L96.7577 212.154H96.7303L90.7469 220.364H89.0845ZM91.8403 218.002L92.3102 216.711H97.8742L97.4043 218.002H91.8403ZM99.7737 220.364L103.204 210.94H104.852L107.049 218.04H107.076L109.661 210.94H111.172L107.742 220.364H106.093L103.897 213.264H103.869L101.285 220.364H99.7737ZM113.928 220.364L117.358 210.94H120.38C121.855 210.94 122.85 211.164 123.365 211.611C123.889 212.059 123.974 212.769 123.62 213.741C123.272 214.697 122.682 215.411 121.851 215.884C121.028 216.358 119.948 216.595 118.611 216.595H116.056L116.507 215.355H118.842C119.776 215.355 120.493 215.235 120.993 214.994C121.505 214.744 121.862 214.344 122.062 213.793C122.263 213.242 122.196 212.846 121.863 212.605C121.541 212.356 120.913 212.231 119.979 212.231H118.399L115.439 220.364H113.928ZM119.794 220.364L116.816 216.052H118.726L121.759 220.364H119.794ZM122.411 220.364L129.495 210.94H131.542L131.753 220.364H130.09L130.084 212.154H130.056L124.073 220.364H122.411ZM125.166 218.002L125.636 216.711H131.2L130.73 218.002H125.166ZM133.224 220.364L136.654 210.94H138.22L134.79 220.364H133.224ZM143.428 220.364L146.858 210.94H148.369L144.939 220.364H143.428ZM137.246 220.364L140.676 210.94H142.187L138.757 220.364H137.246ZM139.561 216.078L140.031 214.787H146.213L145.743 216.078H139.561ZM146.292 220.364L153.376 210.94H155.423L155.634 220.364H153.971L153.965 212.154H153.937L147.954 220.364H146.292ZM149.048 218.002L149.517 216.711H155.081L154.612 218.002H149.048ZM156.981 220.364L160.411 210.94H162.06L164.256 218.04H164.284L166.868 210.94H168.379L164.949 220.364H163.301L161.104 213.264H161.076L158.492 220.364H156.981Z" fill="white"/>
<path fill-rule="evenodd" clip-rule="evenodd" d="M142.585 52.3878C146.176 50.0281 149.121 46.6426 150.49 42.8805C151.859 39.1184 151.379 35.7329 149.506 33.3732C152.72 31.2611 156.454 29.9707 160.038 29.9707C167.625 29.9707 171.672 35.7507 169.077 42.8805C166.482 50.0103 158.228 55.7903 150.64 55.7903C147.056 55.7903 144.262 54.4999 142.585 52.3878ZM142.585 52.3878C139.371 54.4999 135.637 55.7903 132.053 55.7903C124.466 55.7903 120.418 50.0103 123.013 42.8805C125.609 35.7507 133.863 29.9707 141.451 29.9707C145.034 29.9707 147.829 31.2611 149.506 33.3732C145.915 35.7329 142.97 39.1184 141.601 42.8805C140.231 46.6426 140.712 50.0281 142.585 52.3878Z" fill="white"/>
<path fill-rule="evenodd" clip-rule="evenodd" d="M481.744 30.2208C482.542 29.7901 483.383 29.9295 483.622 30.5322C484.894 33.7412 485.813 39.2144 484.448 45.3106C483.073 51.4486 479.353 58.3006 471.296 63.9977C470.55 64.525 469.644 64.5305 469.273 64.0102C468.901 63.4898 469.204 62.6406 469.95 62.1134C476.977 57.1446 480.251 51.1935 481.49 45.6605C482.739 40.0857 481.893 35.02 480.731 32.092C480.492 31.4893 480.946 30.6516 481.744 30.2208ZM473.766 35.14C474.564 34.7084 475.406 34.8466 475.646 35.4486C476.547 37.7067 477.199 41.5475 476.24 45.8363C475.272 50.1675 472.632 55.0367 466.899 59.0812C466.152 59.6076 465.247 59.6119 464.877 59.0907C464.506 58.5695 464.811 57.7203 465.557 57.1939C470.258 53.8774 472.45 49.9107 473.282 46.1872C474.124 42.4214 473.546 38.9889 472.757 37.0116C472.517 36.4095 472.969 35.5716 473.766 35.14ZM467.049 40.5088C467.846 40.0744 468.689 40.2085 468.933 40.8085C469.43 42.0292 469.792 44.0898 469.277 46.4086C468.752 48.7716 467.288 51.4796 464.087 53.7209C463.339 54.2447 462.435 54.2447 462.068 53.7209C461.701 53.1971 462.01 52.3478 462.758 51.824C464.921 50.3097 465.93 48.5095 466.318 46.763C466.716 44.9723 466.431 43.3221 466.048 42.3818C465.804 41.7819 466.252 40.9433 467.049 40.5088ZM461.106 46.0661C460.58 46.0661 460.008 46.4664 459.829 46.9603C459.649 47.4541 459.929 47.8545 460.455 47.8545C460.98 47.8545 461.552 47.4541 461.732 46.9603C461.911 46.4664 461.631 46.0661 461.106 46.0661ZM456.974 46.9603C457.693 44.9849 459.98 43.3835 462.082 43.3835C464.184 43.3835 465.305 44.9849 464.586 46.9603C463.867 48.9356 461.58 50.537 459.478 50.537C457.376 50.537 456.255 48.9356 456.974 46.9603Z" fill="white"/>
<path d="M91.9393 144.24L96.364 132.083H96.3182L90.0164 135.934L91.3007 132.406L97.6561 128.533H100.953L95.2365 144.24H91.9393ZM103.218 144.455C101.936 144.455 100.981 144.247 100.354 143.831C99.7421 143.415 99.4329 142.733 99.4264 141.787C99.4352 140.84 99.7267 139.578 100.301 138C101.11 135.777 102.076 133.962 103.198 132.556C104.326 131.136 105.656 130.082 107.189 129.393C108.722 128.705 110.501 128.346 112.526 128.318L111.555 130.986C110.639 130.986 109.763 131.129 108.925 131.416C108.094 131.688 107.367 132.069 106.747 132.556C106.127 133.044 105.666 133.618 105.365 134.278H105.457C105.962 134.062 106.422 133.912 106.835 133.826C107.248 133.74 107.676 133.697 108.118 133.697C109.584 133.697 110.506 134.12 110.885 134.966C111.284 135.798 111.163 137.096 110.52 138.861C109.795 140.854 108.861 142.289 107.718 143.164C106.595 144.024 105.096 144.455 103.218 144.455ZM104.181 141.873C104.868 141.873 105.455 141.643 105.942 141.184C106.435 140.711 106.859 139.987 107.214 139.011C107.569 138.036 107.67 137.319 107.517 136.86C107.368 136.386 106.951 136.149 106.264 136.149C105.577 136.149 104.987 136.386 104.494 136.86C104.006 137.319 103.585 138.036 103.23 139.011C102.875 139.987 102.772 140.711 102.92 141.184C103.074 141.643 103.494 141.873 104.181 141.873ZM117.22 137.44C116.731 137.44 116.391 137.304 116.201 137.032C116.01 136.759 115.995 136.401 116.157 135.956C116.324 135.497 116.6 135.138 116.984 134.88C117.373 134.607 117.812 134.471 118.3 134.471C118.789 134.471 119.128 134.607 119.319 134.88C119.515 135.138 119.53 135.497 119.363 135.956C119.201 136.401 118.925 136.759 118.536 137.032C118.147 137.304 117.708 137.44 117.22 137.44ZM114.667 144.455C113.4 144.455 112.478 144.218 111.903 143.745C111.332 143.257 111.077 142.468 111.138 141.378C111.199 140.288 111.559 138.839 112.217 137.032L112.686 135.741C113.349 133.919 114.045 132.47 114.772 131.394C115.505 130.304 116.331 129.522 117.251 129.049C118.177 128.561 119.273 128.318 120.54 128.318C121.792 128.318 122.703 128.561 123.273 129.049C123.864 129.522 124.129 130.304 124.068 131.394C124.013 132.47 123.653 133.919 122.99 135.741L122.52 137.032C121.862 138.839 121.167 140.288 120.435 141.378C119.702 142.468 118.865 143.257 117.925 143.745C117.004 144.218 115.918 144.455 114.667 144.455ZM115.638 141.787C116.157 141.787 116.593 141.658 116.946 141.399C117.3 141.141 117.65 140.661 117.998 139.958C118.366 139.241 118.8 138.194 119.301 136.817L119.615 135.956C120.116 134.579 120.441 133.539 120.59 132.836C120.759 132.119 120.761 131.631 120.596 131.373C120.43 131.115 120.088 130.986 119.569 130.986C119.065 130.986 118.629 131.115 118.26 131.373C117.907 131.631 117.546 132.119 117.178 132.836C116.831 133.539 116.406 134.579 115.905 135.956L115.592 136.817C115.091 138.194 114.755 139.241 114.586 139.958C114.437 140.661 114.445 141.141 114.611 141.399C114.792 141.658 115.134 141.787 115.638 141.787ZM122.554 141.658C123.973 140.611 125.19 139.678 126.205 138.861C127.225 138.029 128.077 137.283 128.76 136.623C129.448 135.949 129.99 135.339 130.387 134.794C130.784 134.249 131.071 133.732 131.249 133.245C131.525 132.485 131.553 131.925 131.333 131.567C131.112 131.208 130.628 131.029 129.88 131.029C128.903 131.029 127.654 131.294 126.133 131.825L127.151 129.028C128.468 128.554 129.951 128.318 131.599 128.318C133.263 128.318 134.349 128.691 134.856 129.436C135.368 130.168 135.337 131.323 134.763 132.901C134.522 133.56 134.178 134.235 133.729 134.923C133.3 135.597 132.757 136.293 132.099 137.01C131.441 137.727 130.676 138.466 129.804 139.226C128.947 139.987 127.968 140.768 126.867 141.572L126.836 141.658H131.713L130.773 144.24H121.614L122.554 141.658ZM163.014 137.44C162.526 137.44 162.186 137.304 161.995 137.032C161.804 136.759 161.79 136.401 161.952 135.956C162.119 135.497 162.394 135.138 162.778 134.88C163.167 134.607 163.606 134.471 164.095 134.471C164.583 134.471 164.923 134.607 165.114 134.88C165.31 135.138 165.324 135.497 165.157 135.956C164.995 136.401 164.72 136.759 164.331 137.032C163.941 137.304 163.502 137.44 163.014 137.44ZM160.461 144.455C159.194 144.455 158.273 144.218 157.697 143.745C157.127 143.257 156.872 142.468 156.933 141.378C156.994 140.288 157.353 138.839 158.011 137.032L158.481 135.741C159.144 133.919 159.839 132.47 160.566 131.394C161.299 130.304 162.126 129.522 163.046 129.049C163.971 128.561 165.068 128.318 166.334 128.318C167.586 128.318 168.497 128.561 169.068 129.049C169.659 129.522 169.924 130.304 169.863 131.394C169.807 132.47 169.448 133.919 168.785 135.741L168.315 137.032C167.657 138.839 166.962 140.288 166.229 141.378C165.496 142.468 164.66 143.257 163.719 143.745C162.799 144.218 161.713 144.455 160.461 144.455ZM161.432 141.787C161.951 141.787 162.387 141.658 162.741 141.399C163.094 141.141 163.445 140.661 163.792 139.958C164.16 139.241 164.595 138.194 165.096 136.817L165.409 135.956C165.91 134.579 166.235 133.539 166.384 132.836C166.554 132.119 166.556 131.631 166.39 131.373C166.225 131.115 165.882 130.986 165.363 130.986C164.86 130.986 164.423 131.115 164.055 131.373C163.701 131.631 163.341 132.119 162.973 132.836C162.625 133.539 162.201 134.579 161.7 135.956L161.386 136.817C160.885 138.194 160.55 139.241 160.38 139.958C160.231 140.661 160.24 141.141 160.405 141.399C160.586 141.658 160.928 141.787 161.432 141.787ZM177.783 128.318C179.081 128.318 180.035 128.526 180.647 128.942C181.259 129.358 181.56 130.039 181.552 130.986C181.558 131.932 181.274 133.195 180.7 134.772C179.896 136.981 178.93 138.796 177.803 140.216C176.675 141.636 175.345 142.69 173.812 143.379C172.295 144.068 170.516 144.426 168.475 144.455L169.446 141.787C170.377 141.787 171.251 141.651 172.068 141.378C172.905 141.091 173.634 140.704 174.254 140.216C174.879 139.714 175.34 139.14 175.636 138.495H175.544C175.039 138.71 174.579 138.861 174.166 138.947C173.753 139.033 173.326 139.076 172.883 139.076C171.417 139.076 170.485 138.66 170.086 137.828C169.707 136.981 169.838 135.676 170.481 133.912C171.206 131.918 172.13 130.491 173.253 129.63C174.395 128.755 175.906 128.318 177.783 128.318ZM176.82 130.9C176.134 130.9 175.544 131.136 175.051 131.61C174.563 132.069 174.142 132.786 173.787 133.761C173.432 134.737 173.328 135.461 173.477 135.934C173.63 136.393 174.05 136.623 174.737 136.623C175.424 136.623 176.011 136.393 176.499 135.934C176.992 135.461 177.416 134.737 177.771 133.761C178.126 132.786 178.227 132.069 178.073 131.61C177.925 131.136 177.507 130.9 176.82 130.9ZM183.528 144.24L187.953 132.083H187.907L181.605 135.934L182.89 132.406L189.245 128.533H192.542L186.825 144.24H183.528ZM194.977 144.24L199.401 132.083H199.356L193.054 135.934L194.338 132.406L200.694 128.533H203.991L198.274 144.24H194.977ZM225.591 141.658C227.01 140.611 228.227 139.678 229.243 138.861C230.263 138.029 231.114 137.283 231.797 136.623C232.485 135.949 233.028 135.339 233.425 134.794C233.821 134.249 234.109 133.732 234.286 133.245C234.563 132.485 234.591 131.925 234.37 131.567C234.15 131.208 233.665 131.029 232.917 131.029C231.94 131.029 230.691 131.294 229.17 131.825L230.188 129.028C231.505 128.554 232.988 128.318 234.637 128.318C236.301 128.318 237.386 128.691 237.893 129.436C238.405 130.168 238.374 131.323 237.8 132.901C237.56 133.56 237.215 134.235 236.766 134.923C236.338 135.597 235.795 136.293 235.137 137.01C234.479 137.727 233.714 138.466 232.842 139.226C231.985 139.987 231.006 140.768 229.904 141.572L229.873 141.658H234.75L233.81 144.24H224.652L225.591 141.658ZM243.154 137.44C242.666 137.44 242.326 137.304 242.135 137.032C241.944 136.759 241.93 136.401 242.092 135.956C242.259 135.497 242.534 135.138 242.918 134.88C243.308 134.607 243.747 134.471 244.235 134.471C244.723 134.471 245.063 134.607 245.254 134.88C245.45 135.138 245.464 135.497 245.297 135.956C245.136 136.401 244.86 136.759 244.471 137.032C244.082 137.304 243.643 137.44 243.154 137.44ZM240.601 144.455C239.334 144.455 238.413 144.218 237.837 143.745C237.267 143.257 237.012 142.468 237.073 141.378C237.134 140.288 237.493 138.839 238.151 137.032L238.621 135.741C239.284 133.919 239.979 132.47 240.707 131.394C241.439 130.304 242.266 129.522 243.186 129.049C244.112 128.561 245.208 128.318 246.475 128.318C247.726 128.318 248.638 128.561 249.208 129.049C249.799 129.522 250.064 130.304 250.003 131.394C249.947 132.47 249.588 133.919 248.925 135.741L248.455 137.032C247.797 138.839 247.102 140.288 246.369 141.378C245.637 142.468 244.8 143.257 243.859 143.745C242.939 144.218 241.853 144.455 240.601 144.455ZM241.572 141.787C242.091 141.787 242.528 141.658 242.881 141.399C243.235 141.141 243.585 140.661 243.932 139.958C244.3 139.241 244.735 138.194 245.236 136.817L245.549 135.956C246.05 134.579 246.376 133.539 246.525 132.836C246.694 132.119 246.696 131.631 246.53 131.373C246.365 131.115 246.023 130.986 245.504 130.986C245 130.986 244.564 131.115 244.195 131.373C243.841 131.631 243.481 132.119 243.113 132.836C242.765 133.539 242.341 134.579 241.84 135.956L241.527 136.817C241.025 138.194 240.69 139.241 240.521 139.958C240.372 140.661 240.38 141.141 240.546 141.399C240.726 141.658 241.069 141.787 241.572 141.787ZM252.22 144.24L256.644 132.083H256.599L250.297 135.934L251.581 132.406L257.937 128.533H261.234L255.517 144.24H252.22ZM269.372 128.318C270.669 128.318 271.624 128.526 272.236 128.942C272.848 129.358 273.149 130.039 273.141 130.986C273.147 131.932 272.863 133.195 272.289 134.772C271.485 136.981 270.519 138.796 269.392 140.216C268.264 141.636 266.934 142.69 265.401 143.379C263.884 144.068 262.105 144.426 260.064 144.455L261.035 141.787C261.966 141.787 262.84 141.651 263.657 141.378C264.494 141.091 265.222 140.704 265.843 140.216C266.468 139.714 266.929 139.14 267.225 138.495H267.133C266.627 138.71 266.168 138.861 265.755 138.947C265.342 139.033 264.914 139.076 264.472 139.076C263.006 139.076 262.074 138.66 261.675 137.828C261.296 136.981 261.427 135.676 262.069 133.912C262.795 131.918 263.719 130.491 264.841 129.63C265.984 128.755 267.494 128.318 269.372 128.318ZM268.409 130.9C267.722 130.9 267.132 131.136 266.64 131.61C266.152 132.069 265.731 132.786 265.376 133.761C265.021 134.737 264.917 135.461 265.066 135.934C265.219 136.393 265.639 136.623 266.326 136.623C267.013 136.623 267.6 136.393 268.088 135.934C268.581 135.461 269.005 134.737 269.36 133.761C269.715 132.786 269.816 132.069 269.662 131.61C269.514 131.136 269.096 130.9 268.409 130.9ZM294.283 141.658C295.702 140.611 296.919 139.678 297.934 138.861C298.954 138.029 299.806 137.283 300.489 136.623C301.177 135.949 301.719 135.339 302.116 134.794C302.513 134.249 302.8 133.732 302.978 133.245C303.254 132.485 303.282 131.925 303.062 131.567C302.841 131.208 302.357 131.029 301.609 131.029C300.632 131.029 299.383 131.294 297.862 131.825L298.88 129.028C300.197 128.554 301.68 128.318 303.329 128.318C304.992 128.318 306.078 128.691 306.585 129.436C307.097 130.168 307.066 131.323 306.492 132.901C306.252 133.56 305.907 134.235 305.458 134.923C305.029 135.597 304.486 136.293 303.828 137.01C303.17 137.727 302.405 138.466 301.533 139.226C300.676 139.987 299.697 140.768 298.596 141.572L298.565 141.658H303.442L302.502 144.24H293.343L294.283 141.658ZM311.846 137.44C311.357 137.44 311.018 137.304 310.827 137.032C310.636 136.759 310.622 136.401 310.783 135.956C310.95 135.497 311.226 135.138 311.61 134.88C311.999 134.607 312.438 134.471 312.927 134.471C313.415 134.471 313.755 134.607 313.946 134.88C314.142 135.138 314.156 135.497 313.989 135.956C313.827 136.401 313.552 136.759 313.162 137.032C312.773 137.304 312.334 137.44 311.846 137.44ZM309.293 144.455C308.026 144.455 307.105 144.218 306.529 143.745C305.958 143.257 305.704 142.468 305.765 141.378C305.826 140.288 306.185 138.839 306.843 137.032L307.313 135.741C307.976 133.919 308.671 132.47 309.398 131.394C310.131 130.304 310.957 129.522 311.878 129.049C312.803 128.561 313.899 128.318 315.166 128.318C316.418 128.318 317.329 128.561 317.9 129.049C318.491 129.522 318.756 130.304 318.695 131.394C318.639 132.47 318.279 133.919 317.616 135.741L317.147 137.032C316.489 138.839 315.793 140.288 315.061 141.378C314.328 142.468 313.492 143.257 312.551 143.745C311.631 144.218 310.545 144.455 309.293 144.455ZM310.264 141.787C310.783 141.787 311.219 141.658 311.573 141.399C311.926 141.141 312.277 140.661 312.624 139.958C312.992 139.241 313.426 138.194 313.928 136.817L314.241 135.956C314.742 134.579 315.067 133.539 315.216 132.836C315.386 132.119 315.388 131.631 315.222 131.373C315.057 131.115 314.714 130.986 314.195 130.986C313.692 130.986 313.255 131.115 312.887 131.373C312.533 131.631 312.172 132.119 311.804 132.836C311.457 133.539 311.033 134.579 310.532 135.956L310.218 136.817C309.717 138.194 309.382 139.241 309.212 139.958C309.063 140.661 309.072 141.141 309.237 141.399C309.418 141.658 309.76 141.787 310.264 141.787ZM317.18 141.658C318.599 140.611 319.816 139.678 320.831 138.861C321.852 138.029 322.703 137.283 323.386 136.623C324.074 135.949 324.617 135.339 325.013 134.794C325.41 134.249 325.697 133.732 325.875 133.245C326.152 132.485 326.18 131.925 325.959 131.567C325.738 131.208 325.254 131.029 324.506 131.029C323.529 131.029 322.28 131.294 320.759 131.825L321.777 129.028C323.094 128.554 324.577 128.318 326.226 128.318C327.89 128.318 328.975 128.691 329.482 129.436C329.994 130.168 329.963 131.323 329.389 132.901C329.149 133.56 328.804 134.235 328.355 134.923C327.927 135.597 327.383 136.293 326.725 137.01C326.067 137.727 325.302 138.466 324.43 139.226C323.574 139.987 322.595 140.768 321.493 141.572L321.462 141.658H326.339L325.399 144.24H316.24L317.18 141.658ZM332.36 144.24L336.785 132.083H336.739L330.437 135.934L331.721 132.406L338.077 128.533H341.374L335.657 144.24H332.36Z" fill="white"/>
<path d="M384.077 200.061C384.316 199.406 385.075 198.874 385.772 198.874H396.51C397.208 198.874 397.58 199.406 397.342 200.061L394.59 207.621C394.423 208.079 393.991 208.496 393.48 208.693L387.236 211.096C386.837 211.249 386.438 211.249 386.15 211.096L381.655 208.693C381.287 208.496 381.159 208.079 381.325 207.621L384.077 200.061Z" fill="white"/>
<path d="M404.29 200.061C404.528 199.406 405.287 198.874 405.985 198.874H409.143C409.841 198.874 410.213 199.406 409.975 200.061L409.11 202.435C408.872 203.091 408.113 203.622 407.415 203.622H404.257C403.559 203.622 403.187 203.091 403.426 202.435L404.29 200.061Z" fill="white"/>
<path d="M416.923 200.061C417.161 199.406 417.92 198.874 418.618 198.874H429.356C430.054 198.874 430.426 199.406 430.187 200.061L427.595 207.184C427.356 207.839 426.597 208.371 425.9 208.371H415.162C414.464 208.371 414.092 207.839 414.33 207.184L416.923 200.061Z" fill="white"/>
<path d="M379.54 212.526C379.779 211.87 380.538 211.339 381.236 211.339H391.974C392.671 211.339 393.044 211.87 392.805 212.526L390.212 219.648C389.974 220.304 389.215 220.836 388.517 220.836H377.779C377.081 220.836 376.709 220.304 376.948 219.648L379.54 212.526Z" fill="white"/>
<path d="M397.691 207.777C397.93 207.122 398.689 206.59 399.387 206.59H410.125C410.823 206.59 411.195 207.122 410.956 207.777L404.907 224.397C404.668 225.052 403.909 225.584 403.212 225.584H392.474C391.776 225.584 391.404 225.052 391.642 224.397L397.691 207.777Z" fill="white"/>
<path d="M412.386 212.526C412.625 211.87 413.384 211.339 414.081 211.339H424.819C425.517 211.339 425.889 211.87 425.651 212.526L423.058 219.648C422.82 220.304 422.06 220.836 421.363 220.836H410.625C409.927 220.836 409.555 220.304 409.794 219.648L412.386 212.526Z" fill="white"/>
<path d="M375.004 224.99C375.242 224.335 376.001 223.803 376.699 223.803H387.437C388.135 223.803 388.507 224.335 388.268 224.99L385.676 232.113C385.437 232.769 384.678 233.3 383.98 233.3H373.242C372.545 233.3 372.173 232.769 372.411 232.113L375.004 224.99Z" fill="white"/>
<path d="M393.488 229.739C393.727 229.083 394.486 228.552 395.183 228.552H398.342C399.039 228.552 399.411 229.083 399.173 229.739L398.309 232.113C398.07 232.769 397.311 233.3 396.613 233.3H393.455C392.757 233.3 392.385 232.769 392.624 232.113L393.488 229.739Z" fill="white"/>
<path d="M408.008 224.553C408.175 224.095 408.607 223.678 409.119 223.481L415.362 221.079C415.762 220.925 416.161 220.925 416.448 221.079L420.943 223.481C421.311 223.678 421.44 224.095 421.273 224.553L418.521 232.113C418.283 232.769 417.524 233.3 416.826 233.3H406.088C405.39 233.3 405.018 232.769 405.257 232.113L408.008 224.553Z" fill="white"/>
<defs>
<filter id="filter0_b_1_160" x="-4.03631" y="-12.7512" width="537.922" height="287.698" filterUnits="userSpaceOnUse" color-interpolation-filters="sRGB">
<feFlood flood-opacity="0" result="BackgroundImageFix"/>
<feGaussianBlur in="BackgroundImageFix" stdDeviation="6.83767"/>
<feComposite in2="SourceAlpha" operator="in" result="effect1_backgroundBlur_1_160"/>
<feBlend mode="normal" in="SourceGraphic" in2="effect1_backgroundBlur_1_160" result="shape"/>
</filter>
<linearGradient id="paint0_linear_1_160" x1="32.0561" y1="12.5935" x2="264.463" y2="274.767" gradientUnits="userSpaceOnUse">
<stop stop-color="white"/>
<stop offset="1" stop-color="white" stop-opacity="0.55"/>
</linearGradient>
</defs>
</svg>
