<svg width="69" height="60" viewBox="0 0 69 60" fill="none" xmlns="http://www.w3.org/2000/svg">
<path d="M11.8152 1.64886C12.044 0.794849 12.9218 0.288043 13.7758 0.516873L26.9195 4.03872C27.7735 4.26755 28.2803 5.14536 28.0515 5.99937L25.4128 15.8472C25.2529 16.4437 24.7644 16.895 24.1572 17.0071L16.7468 18.3757C16.2725 18.4633 15.7841 18.3324 15.4172 18.0194L9.68385 13.129C9.21406 12.7283 9.01662 12.0932 9.17643 11.4967L11.8152 1.64886Z" fill="white"/>
<path d="M36.5562 8.2782C36.7851 7.4242 37.6629 6.91739 38.5169 7.14622L42.3827 8.18206C43.2367 8.41089 43.7435 9.2887 43.5147 10.1427L42.686 13.2353C42.4572 14.0893 41.5793 14.5962 40.7253 14.3673L36.8595 13.3315C36.0055 13.1027 35.4987 12.2248 35.7276 11.3708L36.5562 8.2782Z" fill="white"/>
<path d="M52.0194 12.4215C52.2482 11.5675 53.126 11.0607 53.98 11.2896L67.1237 14.8114C67.9777 15.0402 68.4845 15.9181 68.2557 16.7721L65.7697 26.05C65.5409 26.904 64.6631 27.4108 63.8091 27.1819L50.6654 23.6601C49.8114 23.4313 49.3046 22.5535 49.5334 21.6994L52.0194 12.4215Z" fill="white"/>
<path d="M7.46465 17.8852C7.69348 17.0312 8.57129 16.5244 9.4253 16.7532L22.569 20.275C23.423 20.5039 23.9298 21.3817 23.701 22.2357L21.215 31.5136C20.9861 32.3676 20.1083 32.8744 19.2543 32.6456L6.11062 29.1237C5.25662 28.8949 4.74981 28.0171 4.97864 27.1631L7.46465 17.8852Z" fill="white"/>
<path d="M29.2241 17.0863C29.4529 16.2323 30.3307 15.7254 31.1848 15.9543L44.3284 19.4761C45.1825 19.705 45.6893 20.5828 45.4604 21.4368L39.6597 43.0852C39.4309 43.9392 38.5531 44.446 37.6991 44.2172L24.5554 40.6953C23.7014 40.4665 23.1946 39.5887 23.4234 38.7347L29.2241 17.0863Z" fill="white"/>
<path d="M47.6689 28.6579C47.8977 27.8039 48.7755 27.2971 49.6295 27.5259L62.7732 31.0477C63.6272 31.2766 64.134 32.1544 63.9052 33.0084L61.4192 42.2863C61.1904 43.1403 60.3126 43.6471 59.4586 43.4183L46.3149 39.8964C45.4609 39.6676 44.954 38.7898 45.1829 37.9358L47.6689 28.6579Z" fill="white"/>
<path d="M3.11414 34.1215C3.34297 33.2675 4.22078 32.7607 5.07479 32.9895L18.2185 36.5114C19.0725 36.7402 19.5793 37.618 19.3505 38.472L16.8645 47.7499C16.6356 48.6039 15.7578 49.1107 14.9038 48.8819L1.76011 45.3601C0.906106 45.1312 0.3993 44.2534 0.628131 43.3994L3.11414 34.1215Z" fill="white"/>
<path d="M26.1979 46.9361C26.4267 46.0821 27.3045 45.5753 28.1585 45.8041L32.0243 46.84C32.8783 47.0688 33.3851 47.9466 33.1563 48.8006L32.3276 51.8933C32.0988 52.7473 31.221 53.2541 30.367 53.0252L26.5012 51.9894C25.6472 51.7606 25.1404 50.8828 25.3692 50.0288L26.1979 46.9361Z" fill="white"/>
<path d="M43.4711 44.3242C43.6309 43.7278 44.1195 43.2765 44.7267 43.1643L52.1371 41.7958C52.6113 41.7082 53.0998 41.8391 53.4667 42.1521L59.2 47.0424C59.6698 47.4431 59.8672 48.0783 59.7074 48.6747L57.0687 58.5226C56.8399 59.3766 55.962 59.8834 55.108 59.6546L41.9643 56.1328C41.1103 55.9039 40.6035 55.0261 40.8324 54.1721L43.4711 44.3242Z" fill="white"/>
</svg>
