<svg width="455" height="335" viewBox="0 0 455 335" fill="none" xmlns="http://www.w3.org/2000/svg">
<rect width="412.27" height="260.381" rx="34.7175" transform="matrix(0.981627 0.190809 0.190809 0.981627 0 0.26123)" fill="#2BB32A" stroke="url(#paint0_linear_18_23)" stroke-opacity="0.5" stroke-width="2.16984"/>
<path d="M80.984 200.038L78.8684 189.154L80.8514 189.539L87.2455 198.3L87.2753 198.305L85.7567 190.493L87.6055 190.852L89.7212 201.736L87.7382 201.351L81.3589 192.593L81.3291 192.587L82.8478 200.4L80.984 200.038ZM93.8958 202.691C93.1205 202.54 92.4686 202.213 91.9402 201.708C91.4197 201.196 91.089 200.577 90.9479 199.851C90.7721 198.947 90.9897 198.32 91.6008 197.97C92.2119 197.62 93.1684 197.571 94.4706 197.825L95.559 198.036C95.4856 197.658 95.3798 197.361 95.2418 197.142C95.1118 196.916 94.9247 196.741 94.6806 196.617C94.4465 196.495 94.1257 196.395 93.7181 196.315C93.2211 196.219 92.7139 196.168 92.1965 196.163C91.689 196.16 91.221 196.213 90.7924 196.321L90.2728 194.828C90.743 194.738 91.2756 194.698 91.8706 194.708C92.4657 194.719 93.0713 194.784 93.6876 194.904C94.4728 195.056 95.1075 195.27 95.5915 195.546C96.0854 195.824 96.4752 196.206 96.761 196.692C97.0467 197.178 97.2611 197.788 97.4041 198.524L98.3547 203.414L96.6102 203.075L96.4214 202.178L96.3916 202.172C96.1831 202.428 95.8447 202.606 95.3764 202.706C94.9062 202.797 94.4127 202.792 93.8958 202.691ZM94.2736 201.387C94.6414 201.459 94.9668 201.46 95.2498 201.391C95.5309 201.311 95.7387 201.175 95.8731 200.981C96.0076 200.787 96.0468 200.546 95.9908 200.258L95.8082 199.318L94.9882 199.159C94.1334 198.993 93.5095 198.982 93.1166 199.125C92.7317 199.261 92.5836 199.557 92.6725 200.014C92.7382 200.352 92.9097 200.644 93.1869 200.889C93.4641 201.134 93.8263 201.3 94.2736 201.387ZM100.317 203.796L98.8104 196.043L100.51 196.373L100.717 197.288L100.747 197.294C100.959 197.01 101.242 196.817 101.595 196.713C101.946 196.6 102.38 196.593 102.896 196.694C103.403 196.792 103.849 196.97 104.234 197.226C104.626 197.475 104.93 197.782 105.145 198.149L105.175 198.155C105.401 197.845 105.692 197.643 106.047 197.55C106.402 197.456 106.843 197.461 107.369 197.563C108.204 197.725 108.854 198.067 109.319 198.588C109.782 199.098 110.105 199.826 110.288 200.77L111.291 205.929L109.517 205.584L108.601 200.873C108.487 200.286 108.309 199.84 108.068 199.535C107.827 199.23 107.498 199.037 107.081 198.956C106.584 198.859 106.223 198.947 105.998 199.219C105.774 199.491 105.715 199.9 105.821 200.447L106.714 205.039L104.925 204.691L103.983 199.846C103.884 199.339 103.705 198.936 103.446 198.637C103.185 198.328 102.861 198.136 102.474 198.06C102.175 198.002 101.917 198.029 101.7 198.139C101.492 198.252 101.34 198.428 101.243 198.668C101.156 198.909 101.146 199.204 101.214 199.551L102.107 204.144L100.317 203.796ZM117.018 207.186C115.646 206.919 114.525 206.366 113.654 205.527C112.783 204.689 112.222 203.623 111.971 202.331C111.728 201.079 111.875 200.16 112.411 199.576C112.958 198.994 113.823 198.817 115.006 199.047C116.149 199.27 117.099 199.779 117.857 200.577C118.614 201.375 119.114 202.395 119.355 203.637C119.382 203.776 119.407 203.93 119.43 204.097C119.453 204.264 119.467 204.386 119.473 204.464L113.121 203.229L112.863 201.902L117.814 202.864L117.623 203.215C117.465 202.399 117.189 201.767 116.796 201.318C116.41 200.86 115.904 200.571 115.278 200.449C114.612 200.319 114.146 200.43 113.879 200.779C113.62 201.121 113.569 201.695 113.726 202.5L113.827 203.022C113.974 203.777 114.282 204.377 114.751 204.823C115.218 205.258 115.854 205.553 116.659 205.71C117.077 205.791 117.516 205.838 117.978 205.851C118.438 205.855 118.838 205.823 119.179 205.755L119.681 207.23C119.332 207.305 118.923 207.341 118.453 207.335C117.983 207.33 117.505 207.28 117.018 207.186Z" fill="#595959"/>
<path d="M69.7592 117.045C68.5764 116.815 67.5141 116.393 66.5723 115.78C65.6305 115.166 64.8499 114.398 64.2303 113.474C63.6207 112.552 63.2029 111.509 62.9769 110.347C62.7489 109.174 62.7783 108.218 63.0653 107.48C63.3602 106.734 63.8916 106.22 64.6595 105.939C65.4274 105.658 66.4028 105.633 67.5856 105.862C68.9374 106.125 70.1922 106.651 71.3499 107.441L71.2363 108.997C70.1103 108.223 69.0206 107.734 67.9669 107.529C67.1817 107.376 66.5317 107.403 66.017 107.609C65.5004 107.805 65.145 108.166 64.9509 108.693C64.7568 109.22 64.7399 109.895 64.9002 110.72C65.0587 111.535 65.3499 112.271 65.774 112.927C66.1961 113.574 66.7263 114.112 67.3647 114.542C68.0011 114.962 68.7119 115.249 69.4972 115.401C70.521 115.6 71.4987 115.513 72.4303 115.139L73.1815 116.864C72.2518 117.247 71.1111 117.308 69.7592 117.045ZM75.1409 117.947L73.6338 110.194L75.3932 110.536L75.6921 112L75.7219 112.006C75.9147 111.718 76.1618 111.489 76.4633 111.318C76.7729 111.139 77.1298 111.032 77.534 110.995C77.9363 110.949 78.371 110.972 78.8382 111.062L79.1454 112.643C78.5192 112.521 77.9708 112.529 77.5003 112.667C77.0398 112.807 76.695 113.051 76.4661 113.399C76.2452 113.739 76.183 114.157 76.2796 114.654L76.9897 118.307L75.1409 117.947ZM85.0272 120.013C83.6555 119.746 82.5343 119.193 81.6635 118.355C80.7927 117.516 80.2317 116.45 79.9805 115.158C79.7371 113.906 79.8838 112.987 80.4206 112.403C80.9673 111.821 81.8321 111.644 83.0149 111.874C84.158 112.097 85.1084 112.606 85.866 113.404C86.6236 114.202 87.1231 115.222 87.3646 116.464C87.3917 116.603 87.4167 116.757 87.4396 116.924C87.4625 117.091 87.4767 117.213 87.4822 117.291L81.1306 116.056L80.8727 114.729L85.8227 115.691L85.6326 116.042C85.4742 115.226 85.1982 114.594 84.8048 114.145C84.4194 113.687 83.9136 113.398 83.2874 113.276C82.6214 113.146 82.155 113.257 81.8883 113.606C81.6295 113.948 81.5784 114.522 81.7349 115.327L81.8364 115.849C81.9832 116.604 82.2912 117.204 82.7602 117.65C83.2274 118.085 83.8635 118.38 84.6687 118.537C85.0861 118.618 85.5257 118.665 85.9874 118.679C86.4471 118.682 86.8473 118.65 87.188 118.582L87.6899 120.057C87.3412 120.132 86.932 120.168 86.4623 120.162C85.9927 120.157 85.5143 120.107 85.0272 120.013ZM92.6047 121.486C91.5709 121.285 90.6972 120.775 89.9835 119.957C89.2698 119.14 88.7893 118.095 88.542 116.822C88.2947 115.55 88.3907 114.617 88.8301 114.023C89.2694 113.43 90.0059 113.233 91.0397 113.434C91.5566 113.535 92.0411 113.715 92.4934 113.975C92.9456 114.235 93.3497 114.567 93.7056 114.971L93.7503 114.98L92.9649 110.939L94.769 111.29L96.8846 122.174L95.17 121.841L94.9634 120.925L94.9336 120.92C94.711 121.202 94.3945 121.393 93.9839 121.495C93.5813 121.589 93.1216 121.586 92.6047 121.486ZM92.792 120.087C93.1796 120.163 93.5071 120.15 93.7744 120.049C94.0516 119.95 94.2526 119.778 94.3775 119.535C94.5023 119.291 94.5309 118.995 94.4632 118.648L94.1908 117.246C94.1213 116.888 93.9709 116.558 93.7399 116.255C93.5068 115.941 93.2258 115.676 92.8967 115.459C92.5676 115.242 92.2042 115.095 91.8066 115.018C91.1804 114.896 90.7358 115.02 90.473 115.39C90.22 115.762 90.1728 116.355 90.3312 117.17C90.4896 117.985 90.7803 118.644 91.2033 119.147C91.6362 119.652 92.1658 119.966 92.792 120.087ZM97.4237 113.499L97.0818 111.739L98.9306 112.099L99.2726 113.858L97.4237 113.499ZM99.1974 122.624L97.6991 114.915L99.5479 115.275L101.046 122.983L99.1974 122.624ZM106.862 124.257C105.948 124.079 105.25 123.762 104.769 123.305C104.288 122.848 103.965 122.192 103.798 121.337L103.016 117.312L101.286 116.975L101.002 115.514L102.732 115.85L102.239 113.316L104.088 113.675L104.581 116.21L107.19 116.717L107.474 118.178L104.865 117.671L105.557 121.234C105.654 121.731 105.801 122.095 105.999 122.324C106.204 122.546 106.516 122.698 106.934 122.779C107.152 122.821 107.377 122.846 107.608 122.852C107.839 122.859 108.042 122.846 108.217 122.813L108.674 124.351C108.355 124.384 108.051 124.392 107.76 124.374C107.47 124.356 107.17 124.317 106.862 124.257ZM119.905 126.792C118.722 126.562 117.66 126.141 116.718 125.527C115.776 124.914 114.996 124.145 114.376 123.221C113.767 122.299 113.349 121.257 113.123 120.094C112.895 118.921 112.924 117.966 113.211 117.227C113.506 116.481 114.038 115.968 114.805 115.687C115.573 115.406 116.549 115.38 117.732 115.61C119.083 115.873 120.338 116.399 121.496 117.188L121.382 118.744C120.256 117.97 119.166 117.481 118.113 117.276C117.328 117.124 116.678 117.15 116.163 117.356C115.646 117.553 115.291 117.914 115.097 118.44C114.903 118.967 114.886 119.643 115.046 120.468C115.205 121.283 115.496 122.019 115.92 122.675C116.342 123.321 116.872 123.859 117.511 124.29C118.147 124.71 118.858 124.996 119.643 125.149C120.667 125.348 121.645 125.26 122.576 124.887L123.327 126.611C122.398 126.995 121.257 127.055 119.905 126.792ZM127.077 128.186C126.302 128.036 125.65 127.708 125.122 127.204C124.601 126.691 124.27 126.072 124.129 125.347C123.954 124.442 124.171 123.815 124.782 123.465C125.393 123.115 126.35 123.067 127.652 123.32L128.74 123.531C128.667 123.154 128.561 122.856 128.423 122.638C128.293 122.411 128.106 122.236 127.862 122.112C127.628 121.99 127.307 121.89 126.9 121.811C126.403 121.714 125.895 121.663 125.378 121.658C124.87 121.655 124.402 121.708 123.974 121.816L123.454 120.323C123.924 120.233 124.457 120.193 125.052 120.203C125.647 120.214 126.253 120.279 126.869 120.399C127.654 120.551 128.289 120.766 128.773 121.041C129.267 121.319 129.657 121.701 129.942 122.187C130.228 122.673 130.443 123.284 130.586 124.019L131.536 128.91L129.792 128.57L129.603 127.673L129.573 127.667C129.365 127.923 129.026 128.101 128.558 128.202C128.088 128.292 127.594 128.287 127.077 128.186ZM127.455 126.882C127.823 126.954 128.148 126.955 128.431 126.886C128.712 126.806 128.92 126.67 129.055 126.476C129.189 126.282 129.228 126.041 129.172 125.753L128.99 124.814L128.17 124.654C127.315 124.488 126.691 124.477 126.298 124.62C125.913 124.756 125.765 125.052 125.854 125.51C125.92 125.848 126.091 126.139 126.368 126.384C126.646 126.629 127.008 126.796 127.455 126.882ZM133.499 129.291L131.992 121.538L133.751 121.88L134.05 123.344L134.08 123.35C134.273 123.062 134.52 122.833 134.821 122.662C135.131 122.483 135.488 122.375 135.892 122.339C136.294 122.293 136.729 122.315 137.196 122.406L137.503 123.987C136.877 123.865 136.329 123.873 135.858 124.011C135.398 124.151 135.053 124.395 134.824 124.743C134.603 125.082 134.541 125.501 134.638 125.998L135.348 129.65L133.499 129.291ZM142.401 131.165C141.367 130.964 140.494 130.455 139.78 129.637C139.066 128.819 138.586 127.774 138.339 126.502C138.091 125.229 138.187 124.296 138.627 123.703C139.066 123.109 139.802 122.913 140.836 123.114C141.353 123.214 141.838 123.394 142.29 123.654C142.742 123.915 143.146 124.247 143.502 124.65L143.547 124.659L142.761 120.619L144.565 120.969L146.681 131.853L144.967 131.52L144.76 130.605L144.73 130.599C144.508 130.881 144.191 131.073 143.78 131.175C143.378 131.269 142.918 131.265 142.401 131.165ZM142.588 129.767C142.976 129.842 143.304 129.829 143.571 129.728C143.848 129.629 144.049 129.458 144.174 129.214C144.299 128.971 144.327 128.675 144.26 128.327L143.987 126.925C143.918 126.568 143.767 126.237 143.536 125.934C143.303 125.621 143.022 125.356 142.693 125.139C142.364 124.922 142.001 124.775 141.603 124.697C140.977 124.576 140.532 124.7 140.269 125.069C140.017 125.441 139.969 126.034 140.128 126.849C140.286 127.665 140.577 128.324 141 128.827C141.433 129.332 141.962 129.645 142.588 129.767ZM153.129 133.107L151.013 122.223L152.996 122.608L159.391 131.369L159.42 131.374L157.902 123.562L159.751 123.921L161.866 134.805L159.883 134.42L153.504 125.662L153.474 125.656L154.993 133.469L153.129 133.107ZM167.577 136.059C166.324 135.815 165.287 135.279 164.466 134.45C163.653 133.613 163.122 132.553 162.873 131.271C162.623 129.988 162.769 129.065 163.31 128.501C163.859 127.928 164.759 127.764 166.012 128.007C167.264 128.251 168.302 128.792 169.125 129.631C169.946 130.46 170.481 131.516 170.73 132.798C170.979 134.08 170.83 135.008 170.281 135.58C169.73 136.142 168.829 136.302 167.577 136.059ZM167.293 134.597C167.978 134.731 168.459 134.618 168.733 134.261C169.006 133.893 169.061 133.286 168.896 132.442C168.732 131.597 168.43 130.926 167.989 130.429C167.546 129.922 166.981 129.602 166.296 129.468C165.62 129.337 165.14 129.454 164.858 129.82C164.583 130.178 164.528 130.779 164.692 131.624C164.856 132.469 165.16 133.145 165.602 133.652C166.053 134.151 166.617 134.466 167.293 134.597ZM172.934 136.956L172.525 134.854L174.643 135.266L175.051 137.368L172.934 136.956Z" fill="#595959"/>
<path d="M211.15 221.24L209.034 210.356L216.31 211.77L216.623 213.381L211.211 212.329L211.756 215.132L216.87 216.126L217.177 217.706L212.063 216.712L212.701 219.992L218.113 221.044L218.426 222.655L211.15 221.24ZM219.621 222.887L221.321 219.459L218.143 215.139L220.171 215.534L222.374 218.745L222.403 218.751L223.481 216.177L225.509 216.571L223.826 219.946L227.046 224.33L225.018 223.936L222.777 220.674L222.747 220.668L221.663 223.284L219.621 222.887ZM231.364 217.566C232.397 217.767 233.271 218.276 233.985 219.094C234.698 219.912 235.179 220.957 235.426 222.229C235.674 223.501 235.578 224.434 235.138 225.028C234.699 225.622 233.962 225.818 232.929 225.617C232.422 225.519 231.937 225.338 231.475 225.076C231.021 224.806 230.617 224.474 230.263 224.08L230.233 224.074L231.018 228.115L229.184 227.759L227.069 216.874L228.813 217.213L229.005 218.126L229.035 218.132C229.265 217.842 229.582 217.65 229.984 217.556C230.387 217.462 230.847 217.465 231.364 217.566ZM231.176 218.964C230.799 218.891 230.471 218.903 230.194 219.003C229.917 219.102 229.716 219.273 229.591 219.517C229.474 219.752 229.45 220.049 229.52 220.407L229.792 221.808C229.86 222.156 230.005 222.486 230.228 222.797C230.461 223.11 230.747 223.376 231.087 223.595C231.426 223.814 231.784 223.96 232.162 224.033C232.798 224.157 233.242 224.033 233.495 223.661C233.748 223.29 233.796 222.696 233.637 221.881C233.479 221.066 233.188 220.407 232.765 219.904C232.342 219.401 231.812 219.088 231.176 218.964ZM237.638 226.389L237.229 224.287L239.346 224.698L239.755 226.801L237.638 226.389Z" fill="#595959"/>
<path d="M220.785 251.146C219.541 250.904 218.541 250.332 217.783 249.431C217.026 248.53 216.489 247.265 216.173 245.638C215.857 244.011 215.925 242.864 216.377 242.198C216.83 241.531 217.678 241.319 218.922 241.561C220.166 241.803 221.162 242.373 221.911 243.273C222.668 244.175 223.205 245.439 223.521 247.066C223.838 248.694 223.77 249.84 223.317 250.507C222.873 251.174 222.029 251.388 220.785 251.146ZM220.509 249.727C221.216 249.865 221.679 249.692 221.897 249.21C222.114 248.728 222.111 247.907 221.885 246.748C221.659 245.581 221.331 244.698 220.903 244.098C220.473 243.49 219.905 243.117 219.198 242.979C218.491 242.842 218.024 243.014 217.798 243.494C217.578 243.968 217.582 244.789 217.809 245.956C218.034 247.115 218.361 247.998 218.791 248.606C219.229 249.216 219.802 249.59 220.509 249.727ZM227.134 243.157C227.901 243.306 228.575 243.568 229.156 243.944C229.737 244.319 230.211 244.796 230.578 245.376C230.953 245.957 231.217 246.64 231.37 247.424C231.598 248.599 231.568 249.581 231.278 250.369C230.996 251.151 230.481 251.711 229.736 252.049C228.99 252.388 228.031 252.476 226.86 252.314L226.328 250.969C227.373 251.115 228.19 251.056 228.778 250.793C229.365 250.522 229.741 250.034 229.908 249.328L229.88 249.311C229.608 249.43 229.306 249.502 228.975 249.528C228.652 249.556 228.287 249.53 227.878 249.45C226.932 249.266 226.133 248.845 225.48 248.185C224.835 247.527 224.418 246.708 224.227 245.728C224.095 245.046 224.122 244.49 224.309 244.059C224.496 243.628 224.828 243.336 225.307 243.183C225.784 243.022 226.393 243.013 227.134 243.157ZM227.4 244.525C226.769 244.402 226.316 244.474 226.04 244.74C225.77 244.999 225.693 245.422 225.807 246.01C225.921 246.598 226.168 247.089 226.548 247.482C226.935 247.869 227.427 248.12 228.023 248.236C228.449 248.319 228.802 248.322 229.082 248.246C229.361 248.16 229.555 247.997 229.663 247.756C229.779 247.508 229.801 247.197 229.728 246.822C229.663 246.489 229.535 246.165 229.342 245.849C229.158 245.534 228.904 245.26 228.579 245.024C228.261 244.782 227.868 244.616 227.4 244.525ZM233.322 253.952L235.859 244.484L237.419 244.787L234.881 254.255L233.322 253.952ZM243.919 255.52L242.453 247.979L242.427 247.974L239.531 249.268L238.8 247.786L242.105 246.19L243.728 246.506L245.542 255.835L243.919 255.52ZM252.131 257.116L250.665 249.576L250.64 249.571L247.743 250.865L247.012 249.382L250.317 247.786L251.94 248.102L253.754 257.431L252.131 257.116Z" fill="#424242"/>
<path d="M85.6728 224.76L83.8594 215.43L86.6709 215.977C88.0426 216.243 89.0868 216.659 89.8034 217.225C90.5285 217.792 90.9846 218.557 91.1718 219.52C91.3556 220.466 91.1863 221.113 90.664 221.463C90.1501 221.814 89.2713 221.868 88.0274 221.626L85.6503 221.164L85.4118 219.938L87.5844 220.36C88.4534 220.529 89.0565 220.531 89.3935 220.367C89.7374 220.196 89.8563 219.838 89.7503 219.293C89.6444 218.748 89.3722 218.318 88.9339 218.003C88.5025 217.681 87.8523 217.436 86.9833 217.267L85.5136 216.981L87.0786 225.033L85.6728 224.76ZM91.1298 225.82L86.07 220.73L87.8464 221.075L92.9573 226.176L91.1298 225.82ZM94.4839 226.472L92.6705 217.143L98.8048 218.335L99.0483 219.588L94.3197 218.669L94.8215 221.25L99.2945 222.12L99.5329 223.346L95.06 222.477L95.6462 225.493L100.375 226.412L100.618 227.665L94.4839 226.472ZM108.322 229.162L106.509 219.833L107.914 220.106L109.728 229.435L108.322 229.162ZM102.571 228.044L100.758 218.715L102.164 218.988L103.977 228.317L102.571 228.044ZM102.449 223.938L102.201 222.66L107.952 223.778L108.2 225.056L102.449 223.938ZM110.986 229.68L112.572 221.011L114.476 221.382L119.677 231.369L118.13 231.069L113.764 222.399L113.739 222.394L112.533 229.981L110.986 229.68ZM112.295 227.684L112.047 226.406L117.223 227.412L117.471 228.69L112.295 227.684ZM120.93 231.613L119.116 222.283L120.65 222.582L126.464 230.475L126.489 230.48L125.123 223.451L126.529 223.724L128.342 233.054L126.808 232.755L120.995 224.862L120.969 224.857L122.335 231.886L120.93 231.613ZM134.096 234.172L132.283 224.843L135.095 225.389C136.466 225.656 137.51 226.072 138.227 226.638C138.952 227.205 139.408 227.97 139.595 228.933C139.779 229.878 139.61 230.526 139.088 230.875C138.574 231.226 137.695 231.281 136.451 231.039L134.074 230.577L133.835 229.35L136.008 229.772C136.877 229.941 137.48 229.944 137.817 229.78C138.161 229.609 138.28 229.251 138.174 228.706C138.068 228.16 137.796 227.73 137.358 227.416C136.926 227.094 136.276 226.849 135.407 226.68L133.937 226.394L135.502 234.445L134.096 234.172ZM139.553 235.233L134.494 230.142L136.27 230.487L141.381 235.588L139.553 235.233ZM141.987 235.706L143.573 227.037L145.478 227.408L150.678 237.395L149.131 237.095L144.765 228.425L144.74 228.42L143.534 236.007L141.987 235.706ZM143.296 233.71L143.048 232.432L148.224 233.438L148.472 234.716L143.296 233.71ZM152.046 237.661L150.232 228.332L151.689 228.615L153.503 237.944L152.046 237.661ZM161.538 239.506L159.725 230.177L161.131 230.45L162.944 239.78L161.538 239.506ZM155.787 238.388L153.974 229.059L155.38 229.332L157.193 238.662L155.787 238.388ZM155.665 234.282L155.417 233.004L161.168 234.122L161.416 235.4L155.665 234.282ZM164.202 240.024L165.788 231.356L167.693 231.726L172.893 241.713L171.346 241.413L166.98 232.743L166.955 232.738L165.749 240.325L164.202 240.024ZM165.511 238.028L165.263 236.75L170.439 237.756L170.687 239.034L165.511 238.028ZM174.146 241.957L172.332 232.628L173.866 232.926L179.68 240.819L179.705 240.824L178.339 233.795L179.745 234.068L181.558 243.398L180.025 243.1L174.211 235.206L174.185 235.201L175.552 242.23L174.146 241.957Z" fill="#424242"/>
<path fill-rule="evenodd" clip-rule="evenodd" d="M71.5894 62.1727C73.6769 60.3307 74.6185 57.2891 73.8946 53.5648C73.1707 49.8405 70.9262 46.1795 67.9305 43.3495C69.7992 41.7009 72.5873 41.0137 75.921 41.6617C82.979 43.0336 89.8131 49.8677 91.185 56.9257C92.5569 63.9837 87.9473 68.5933 80.8893 67.2214C77.5556 66.5734 74.2709 64.7058 71.5894 62.1727ZM71.5894 62.1727C69.7207 63.8213 66.9326 64.5085 63.5989 63.8605C56.5409 62.4886 49.7068 55.6545 48.3349 48.5965C46.963 41.5385 51.5726 36.9289 58.6306 38.3008C61.9643 38.9488 65.249 40.8164 67.9305 43.3495C65.843 45.1915 64.9014 48.2331 65.6253 51.9574C66.3492 55.6817 68.5937 59.3427 71.5894 62.1727Z" fill="#424242"/>
<path fill-rule="evenodd" clip-rule="evenodd" d="M375.315 100.096C375.828 99.7858 376.685 100.085 377.227 100.765C380.115 104.383 383.876 110.327 385.843 116.516C387.823 122.748 388.001 129.309 383.531 133.867C383.118 134.289 382.278 134.131 381.656 133.514C381.034 132.898 380.865 132.056 381.279 131.634C385.177 127.659 385.062 121.968 383.277 116.351C381.479 110.691 378.002 105.19 375.367 101.889C374.824 101.209 374.801 100.407 375.315 100.096ZM370.506 103.847C371.019 103.536 371.875 103.834 372.418 104.513C374.455 107.06 377.101 111.232 378.487 115.587C379.886 119.985 380.016 124.648 376.83 127.881C376.415 128.302 375.576 128.143 374.954 127.526C374.333 126.908 374.165 126.067 374.58 125.646C377.192 122.995 377.124 119.203 375.922 115.423C374.705 111.599 372.344 107.871 370.561 105.641C370.018 104.962 369.993 104.159 370.506 103.847ZM367.108 108.301C367.618 107.986 368.474 108.28 369.02 108.958C370.13 110.336 371.561 112.577 372.313 114.932C373.08 117.332 373.155 119.926 371.368 121.714C370.95 122.131 370.11 121.968 369.49 121.349C368.871 120.729 368.708 119.889 369.125 119.471C370.333 118.263 370.316 116.545 369.749 114.771C369.168 112.953 368.027 111.159 367.172 110.097C366.626 109.42 366.598 108.615 367.108 108.301ZM364.53 113.093C364.041 112.998 363.722 113.317 363.817 113.806C363.912 114.295 364.386 114.768 364.874 114.863C365.363 114.958 365.683 114.639 365.588 114.15C365.493 113.661 365.019 113.188 364.53 113.093ZM361.162 113.29C360.782 111.334 362.059 110.057 364.014 110.438C365.97 110.818 367.863 112.711 368.243 114.666C368.623 116.622 367.346 117.899 365.391 117.519C363.435 117.139 361.542 115.245 361.162 113.29Z" fill="#424242"/>
<path d="M73.2787 150.136L70.9394 138.102L70.8968 138.094L67.0798 141.02L66.4008 137.527L70.2563 134.587L73.3234 135.184L76.3458 150.732L73.2787 150.136ZM83.8847 152.403C82.692 152.171 81.6934 151.779 80.8892 151.226C80.0992 150.676 79.4498 149.901 78.941 148.9C78.4464 147.903 78.0473 146.623 77.7437 145.061C77.3159 142.86 77.2507 141.119 77.5482 139.837C77.843 138.542 78.5205 137.669 79.5808 137.22C80.6411 136.77 82.1057 136.713 83.9745 137.049L84.4879 139.69C83.6359 139.525 82.8967 139.518 82.2703 139.669C81.6412 139.806 81.1676 140.076 80.8497 140.479C80.5317 140.882 80.4079 141.404 80.478 142.046L80.5632 142.063C80.9194 141.927 81.2667 141.851 81.6052 141.835C81.9436 141.819 82.3187 141.851 82.7305 141.931C84.0937 142.196 85.1762 142.809 85.978 143.771C86.7913 144.722 87.3677 146.071 87.7072 147.817C88.0909 149.791 87.9835 151.136 87.3851 151.854C86.7981 152.559 85.6313 152.742 83.8847 152.403ZM83.4092 149.851C84.0482 149.975 84.4726 149.839 84.6825 149.443C84.8896 149.032 84.8993 148.344 84.7116 147.378C84.5239 146.413 84.2368 145.674 83.8503 145.161C83.461 144.635 82.9469 144.309 82.3079 144.185C81.6689 144.061 81.2459 144.204 81.0388 144.615C80.8289 145.011 80.8178 145.692 81.0055 146.658C81.1932 147.624 81.4817 148.37 81.8709 148.896C82.2575 149.408 82.7702 149.727 83.4092 149.851ZM93.1849 147.529C92.7305 147.441 92.3422 147.236 92.0199 146.913C91.6977 146.591 91.4938 146.21 91.4082 145.77C91.3199 145.315 91.3858 144.987 91.6059 144.783C91.8233 144.566 92.1591 144.502 92.6135 144.59C93.0679 144.678 93.4563 144.883 93.7785 145.206C94.098 145.514 94.3019 145.895 94.3902 146.349C94.4758 146.79 94.4099 147.118 94.1925 147.336C93.9752 147.553 93.6393 147.618 93.1849 147.529ZM94.5346 154.473C93.356 154.244 92.3733 153.827 91.5864 153.224C90.7968 152.605 90.1409 151.727 89.6187 150.587C89.0965 149.447 88.6616 147.982 88.3138 146.193L88.0654 144.915C87.7148 143.112 87.5923 141.708 87.6976 140.704C87.8003 139.685 88.1539 139.009 88.7586 138.676C89.3606 138.328 90.2508 138.269 91.4294 138.498C92.5938 138.724 93.5708 139.147 94.3605 139.765C95.1615 140.371 95.8232 141.245 96.3453 142.384C96.8647 143.51 97.2997 144.975 97.6503 146.778L97.8987 148.056C98.2465 149.845 98.369 151.249 98.2664 152.268C98.1638 153.286 97.8044 153.968 97.1883 154.312C96.5836 154.646 95.699 154.699 94.5346 154.473ZM94.0212 151.832C94.504 151.926 94.8413 151.868 95.033 151.66C95.2247 151.451 95.2955 151.007 95.2455 150.328C95.2069 149.637 95.0551 148.61 94.7901 147.247L94.6245 146.395C94.3595 145.032 94.1097 143.993 93.8751 143.277C93.6519 142.551 93.3947 142.036 93.1036 141.734C92.8126 141.431 92.4256 141.233 91.9428 141.139C91.4742 141.048 91.137 141.106 90.9311 141.312C90.7393 141.52 90.6628 141.97 90.7014 142.661C90.7515 143.34 90.909 144.361 91.1739 145.724L91.3396 146.576C91.6045 147.939 91.8486 148.984 92.0718 149.711C92.3065 150.426 92.5693 150.935 92.8604 151.237C93.1657 151.543 93.5526 151.741 94.0212 151.832ZM100.386 152.946C101.15 152.097 101.787 151.333 102.298 150.653C102.805 149.959 103.201 149.326 103.486 148.753C103.768 148.165 103.949 147.62 104.028 147.116C104.108 146.612 104.101 146.119 104.007 145.636C103.861 144.884 103.59 144.298 103.194 143.88C102.799 143.461 102.253 143.184 101.557 143.049C100.649 142.873 99.6275 142.927 98.4942 143.212L97.956 140.443C98.9299 140.182 100.184 140.2 101.717 140.498C103.265 140.799 104.473 141.389 105.34 142.268C106.205 143.133 106.79 144.346 107.093 145.908C107.22 146.562 107.258 147.211 107.206 147.857C107.165 148.491 107.029 149.127 106.798 149.765C106.567 150.404 106.247 151.045 105.84 151.69C105.446 152.338 104.951 152.986 104.353 153.635L104.369 153.72L108.906 154.602L109.403 157.158L100.883 155.502L100.386 152.946ZM135.784 155.81C135.33 155.721 134.942 155.516 134.619 155.194C134.297 154.872 134.093 154.49 134.008 154.05C133.919 153.596 133.985 153.267 134.205 153.064C134.423 152.847 134.759 152.782 135.213 152.87C135.667 152.959 136.056 153.164 136.378 153.486C136.697 153.794 136.901 154.175 136.99 154.63C137.075 155.07 137.009 155.399 136.792 155.616C136.575 155.834 136.239 155.898 135.784 155.81ZM137.134 162.753C135.956 162.524 134.973 162.108 134.186 161.504C133.396 160.886 132.74 160.007 132.218 158.867C131.696 157.727 131.261 156.263 130.913 154.473L130.665 153.195C130.314 151.392 130.192 149.988 130.297 148.984C130.4 147.966 130.753 147.29 131.358 146.956C131.96 146.609 132.85 146.55 134.029 146.779C135.193 147.005 136.17 147.427 136.96 148.045C137.761 148.652 138.423 149.525 138.945 150.665C139.464 151.791 139.899 153.255 140.25 155.059L140.498 156.337C140.846 158.126 140.969 159.53 140.866 160.548C140.763 161.567 140.404 162.248 139.788 162.593C139.183 162.926 138.299 162.98 137.134 162.753ZM136.621 160.112C137.104 160.206 137.441 160.149 137.632 159.94C137.824 159.731 137.895 159.287 137.845 158.608C137.806 157.918 137.655 156.891 137.39 155.527L137.224 154.675C136.959 153.312 136.709 152.273 136.475 151.558C136.251 150.831 135.994 150.317 135.703 150.014C135.412 149.712 135.025 149.514 134.542 149.42C134.074 149.329 133.736 149.386 133.531 149.592C133.339 149.801 133.262 150.25 133.301 150.941C133.351 151.62 133.508 152.642 133.773 154.005L133.939 154.857C134.204 156.22 134.448 157.265 134.671 157.991C134.906 158.706 135.169 159.215 135.46 159.518C135.765 159.823 136.152 160.021 136.621 160.112ZM144.679 148.849C145.886 149.083 146.884 149.476 147.674 150.025C148.464 150.575 149.107 151.349 149.601 152.347C150.11 153.348 150.516 154.629 150.82 156.191C151.245 158.378 151.31 160.119 151.015 161.414C150.721 162.71 150.043 163.582 148.983 164.032C147.937 164.484 146.472 164.541 144.589 164.203L144.076 161.561C144.942 161.73 145.682 161.744 146.297 161.604C146.924 161.452 147.396 161.175 147.714 160.772C148.029 160.355 148.153 159.833 148.086 159.205L148 159.189C147.644 159.324 147.297 159.4 146.958 159.416C146.62 159.433 146.245 159.401 145.833 159.321C144.47 159.056 143.382 158.448 142.568 157.497C141.767 156.535 141.196 155.181 140.856 153.434C140.473 151.461 140.574 150.121 141.161 149.415C141.76 148.698 142.932 148.509 144.679 148.849ZM145.154 151.401C144.515 151.276 144.092 151.42 143.885 151.83C143.675 152.227 143.664 152.908 143.852 153.873C144.04 154.839 144.328 155.585 144.717 156.111C145.104 156.624 145.617 156.942 146.256 157.066C146.895 157.191 147.319 157.054 147.529 156.658C147.736 156.247 147.746 155.559 147.558 154.594C147.37 153.628 147.083 152.889 146.697 152.377C146.307 151.85 145.793 151.525 145.154 151.401ZM158.478 166.697L156.138 154.663L156.096 154.655L152.279 157.581L151.6 154.088L155.455 151.148L158.522 151.745L161.545 167.293L158.478 166.697ZM169.128 168.767L166.788 156.733L166.746 156.725L162.929 159.651L162.25 156.158L166.105 153.219L169.172 153.815L172.195 169.364L169.128 168.767ZM196.235 171.577C196.999 170.728 197.636 169.964 198.146 169.284C198.654 168.59 199.05 167.957 199.335 167.384C199.617 166.796 199.798 166.251 199.877 165.747C199.957 165.244 199.95 164.75 199.856 164.267C199.71 163.515 199.439 162.929 199.043 162.511C198.648 162.092 198.102 161.816 197.406 161.68C196.497 161.504 195.476 161.558 194.343 161.843L193.805 159.074C194.779 158.813 196.033 158.831 197.566 159.129C199.114 159.43 200.322 160.02 201.189 160.899C202.054 161.764 202.639 162.977 202.942 164.539C203.069 165.193 203.107 165.842 203.055 166.488C203.014 167.122 202.878 167.758 202.647 168.397C202.416 169.035 202.096 169.676 201.689 170.321C201.295 170.969 200.8 171.617 200.202 172.266L200.218 172.351L204.755 173.233L205.252 175.789L196.732 174.133L196.235 171.577ZM210.334 170.301C209.879 170.212 209.491 170.007 209.169 169.685C208.846 169.363 208.642 168.981 208.557 168.541C208.469 168.087 208.534 167.758 208.755 167.555C208.972 167.337 209.308 167.273 209.762 167.361C210.217 167.45 210.605 167.655 210.927 167.977C211.247 168.285 211.451 168.666 211.539 169.121C211.624 169.561 211.558 169.89 211.341 170.107C211.124 170.324 210.788 170.389 210.334 170.301ZM211.683 177.244C210.505 177.015 209.522 176.599 208.735 175.995C207.945 175.377 207.29 174.498 206.767 173.358C206.245 172.218 205.81 170.754 205.462 168.964L205.214 167.686C204.863 165.883 204.741 164.479 204.846 163.475C204.949 162.456 205.303 161.781 205.907 161.447C206.509 161.1 207.399 161.04 208.578 161.27C209.742 161.496 210.719 161.918 211.509 162.536C212.31 163.143 212.972 164.016 213.494 165.156C214.013 166.282 214.448 167.746 214.799 169.549L215.047 170.827C215.395 172.617 215.518 174.02 215.415 175.039C215.312 176.057 214.953 176.739 214.337 177.084C213.732 177.417 212.848 177.471 211.683 177.244ZM211.17 174.603C211.653 174.697 211.99 174.64 212.182 174.431C212.373 174.222 212.444 173.778 212.394 173.099C212.356 172.408 212.204 171.381 211.939 170.018L211.773 169.166C211.508 167.803 211.258 166.764 211.024 166.049C210.8 165.322 210.543 164.808 210.252 164.505C209.961 164.203 209.574 164.005 209.091 163.911C208.623 163.82 208.286 163.877 208.08 164.083C207.888 164.292 207.811 164.741 207.85 165.432C207.9 166.111 208.058 167.132 208.323 168.496L208.488 169.348C208.753 170.711 208.997 171.756 209.22 172.482C209.455 173.197 209.718 173.706 210.009 174.009C210.314 174.314 210.701 174.512 211.17 174.603ZM222.377 179.118L220.038 167.084L219.995 167.075L216.178 170.002L215.499 166.509L219.355 163.569L222.422 164.165L225.444 179.714L222.377 179.118ZM229.878 165.41C231.085 165.644 232.083 166.037 232.873 166.586C233.663 167.136 234.306 167.91 234.8 168.908C235.309 169.909 235.715 171.19 236.019 172.752C236.444 174.939 236.509 176.68 236.214 177.975C235.92 179.271 235.242 180.143 234.182 180.593C233.136 181.045 231.671 181.102 229.788 180.764L229.275 178.122C230.141 178.291 230.881 178.305 231.496 178.165C232.123 178.013 232.595 177.736 232.913 177.333C233.228 176.916 233.352 176.394 233.285 175.766L233.199 175.75C232.843 175.885 232.496 175.961 232.157 175.977C231.819 175.994 231.444 175.962 231.032 175.882C229.669 175.617 228.581 175.009 227.767 174.058C226.965 173.096 226.395 171.742 226.055 169.995C225.672 168.022 225.773 166.682 226.36 165.976C226.959 165.259 228.131 165.07 229.878 165.41ZM230.353 167.962C229.714 167.837 229.291 167.981 229.084 168.391C228.874 168.788 228.863 169.469 229.051 170.434C229.239 171.4 229.527 172.146 229.916 172.672C230.303 173.185 230.816 173.503 231.455 173.627C232.094 173.752 232.518 173.615 232.728 173.219C232.935 172.808 232.945 172.12 232.757 171.155C232.569 170.189 232.282 169.45 231.896 168.938C231.506 168.411 230.992 168.086 230.353 167.962ZM260.134 183.998C260.899 183.149 261.536 182.385 262.046 181.705C262.553 181.011 262.949 180.378 263.234 179.805C263.516 179.217 263.697 178.672 263.777 178.168C263.856 177.664 263.849 177.171 263.755 176.688C263.609 175.936 263.338 175.35 262.943 174.932C262.547 174.513 262.001 174.236 261.305 174.101C260.397 173.924 259.376 173.979 258.242 174.264L257.704 171.495C258.678 171.233 259.932 171.252 261.465 171.55C263.013 171.851 264.221 172.441 265.089 173.32C265.954 174.185 266.538 175.398 266.841 176.96C266.968 177.613 267.006 178.263 266.954 178.909C266.913 179.543 266.777 180.179 266.546 180.817C266.315 181.456 265.995 182.097 265.588 182.742C265.195 183.39 264.699 184.038 264.101 184.687L264.117 184.772L268.654 185.654L269.151 188.21L260.631 186.554L260.134 183.998ZM274.233 182.721C273.778 182.633 273.39 182.428 273.068 182.106C272.746 181.783 272.542 181.402 272.456 180.962C272.368 180.507 272.434 180.179 272.654 179.976C272.871 179.758 273.207 179.694 273.661 179.782C274.116 179.87 274.504 180.076 274.826 180.398C275.146 180.706 275.35 181.087 275.438 181.542C275.524 181.982 275.458 182.31 275.24 182.528C275.023 182.745 274.687 182.81 274.233 182.721ZM275.583 189.665C274.404 189.436 273.421 189.02 272.634 188.416C271.845 187.798 271.189 186.919 270.667 185.779C270.144 184.639 269.709 183.174 269.362 181.385L269.113 180.107C268.763 178.304 268.64 176.9 268.746 175.896C268.848 174.877 269.202 174.201 269.807 173.868C270.408 173.52 271.299 173.461 272.477 173.69C273.642 173.917 274.619 174.339 275.408 174.957C276.209 175.563 276.871 176.437 277.393 177.577C277.913 178.702 278.348 180.167 278.698 181.97L278.947 183.248C279.294 185.037 279.417 186.441 279.314 187.46C279.212 188.478 278.852 189.16 278.236 189.505C277.631 189.838 276.747 189.891 275.583 189.665ZM275.069 187.024C275.552 187.118 275.889 187.06 276.081 186.852C276.273 186.643 276.343 186.199 276.293 185.52C276.255 184.829 276.103 183.802 275.838 182.439L275.672 181.587C275.407 180.224 275.158 179.185 274.923 178.47C274.7 177.743 274.443 177.229 274.152 176.926C273.86 176.623 273.474 176.425 272.991 176.331C272.522 176.24 272.185 176.298 271.979 176.504C271.787 176.712 271.711 177.162 271.749 177.853C271.799 178.532 271.957 179.553 272.222 180.916L272.387 181.768C272.652 183.131 272.897 184.176 273.12 184.903C273.354 185.618 273.617 186.127 273.908 186.429C274.214 186.735 274.601 186.933 275.069 187.024ZM281.434 188.138C282.198 187.289 282.835 186.525 283.345 185.845C283.853 185.151 284.249 184.518 284.534 183.945C284.816 183.357 284.997 182.812 285.076 182.308C285.156 181.805 285.149 181.311 285.055 180.828C284.909 180.076 284.638 179.49 284.242 179.072C283.847 178.653 283.301 178.377 282.605 178.241C281.696 178.065 280.675 178.119 279.542 178.404L279.004 175.635C279.978 175.374 281.232 175.392 282.765 175.69C284.313 175.991 285.521 176.581 286.388 177.46C287.253 178.325 287.838 179.538 288.141 181.1C288.268 181.754 288.306 182.403 288.253 183.049C288.213 183.683 288.077 184.319 287.846 184.958C287.615 185.596 287.295 186.237 286.888 186.882C286.494 187.53 285.999 188.178 285.401 188.827L285.417 188.912L289.954 189.794L290.451 192.35L281.931 190.694L281.434 188.138ZM296.926 193.609L294.587 181.575L294.544 181.566L290.727 184.493L290.048 181L293.904 178.06L296.971 178.656L299.993 194.205L296.926 193.609Z" fill="#424242"/>
<path d="M374.648 261.745C374.522 261.096 374.946 260.672 375.595 260.798L385.584 262.74C386.233 262.866 386.861 263.494 386.987 264.143L388.442 271.627C388.53 272.081 388.35 272.443 387.978 272.558L383.446 273.966C383.156 274.056 382.785 273.984 382.436 273.769L376.979 270.42C376.532 270.146 376.191 269.682 376.103 269.229L374.648 261.745Z" fill="#424242"/>
<path d="M393.451 265.4C393.325 264.751 393.748 264.327 394.398 264.453L397.335 265.024C397.984 265.15 398.613 265.778 398.739 266.428L399.196 268.778C399.322 269.427 398.898 269.851 398.249 269.725L395.311 269.153C394.662 269.027 394.034 268.399 393.908 267.75L393.451 265.4Z" fill="#424242"/>
<path d="M405.202 267.684C405.076 267.035 405.5 266.611 406.149 266.737L416.138 268.679C416.787 268.805 417.415 269.433 417.542 270.082L418.912 277.133C419.038 277.782 418.614 278.206 417.965 278.08L407.977 276.138C407.327 276.012 406.699 275.384 406.573 274.735L405.202 267.684Z" fill="#424242"/>
<path d="M377.047 274.084C376.921 273.435 377.344 273.011 377.993 273.137L387.982 275.079C388.631 275.205 389.26 275.833 389.386 276.482L390.756 283.533C390.883 284.182 390.459 284.606 389.81 284.48L379.821 282.538C379.172 282.412 378.543 281.784 378.417 281.135L377.047 274.084Z" fill="#424242"/>
<path d="M391.41 272.353C391.284 271.704 391.708 271.28 392.357 271.406L402.346 273.348C402.995 273.474 403.623 274.102 403.749 274.751L406.947 291.204C407.073 291.853 406.65 292.276 406.001 292.15L396.012 290.209C395.363 290.082 394.734 289.454 394.608 288.805L391.41 272.353Z" fill="#424242"/>
<path d="M407.601 280.023C407.475 279.374 407.899 278.95 408.548 279.076L418.536 281.018C419.185 281.144 419.814 281.772 419.94 282.422L421.311 289.472C421.437 290.121 421.013 290.545 420.364 290.419L410.375 288.478C409.726 288.351 409.098 287.723 408.971 287.074L407.601 280.023Z" fill="#424242"/>
<path d="M379.445 286.423C379.319 285.774 379.743 285.35 380.392 285.476L390.381 287.418C391.03 287.544 391.658 288.173 391.784 288.822L393.155 295.872C393.281 296.522 392.857 296.945 392.208 296.819L382.219 294.878C381.57 294.751 380.942 294.123 380.816 293.474L379.445 286.423Z" fill="#424242"/>
<path d="M399.161 294.779C399.035 294.13 399.459 293.706 400.108 293.832L403.046 294.403C403.695 294.529 404.324 295.157 404.45 295.806L404.907 298.157C405.033 298.806 404.609 299.23 403.96 299.104L401.022 298.532C400.373 298.406 399.744 297.778 399.618 297.129L399.161 294.779Z" fill="#424242"/>
<path d="M409.915 291.929C409.827 291.476 410.007 291.114 410.379 290.998L414.911 289.591C415.201 289.501 415.572 289.573 415.921 289.787L421.378 293.136C421.825 293.411 422.166 293.874 422.254 294.328L423.709 301.812C423.835 302.461 423.411 302.885 422.762 302.758L412.773 300.817C412.124 300.691 411.496 300.062 411.37 299.413L409.915 291.929Z" fill="#424242"/>
<defs>
<linearGradient id="paint0_linear_18_23" x1="30.3778" y1="11.9341" x2="250.617" y2="260.381" gradientUnits="userSpaceOnUse">
<stop stop-color="white"/>
<stop offset="1" stop-color="white" stop-opacity="0.55"/>
</linearGradient>
</defs>
</svg>
