<svg width="172" height="64" viewBox="0 0 172 64" fill="none" xmlns="http://www.w3.org/2000/svg">
<rect x="0.936737" y="-0.00195312" width="170.127" height="64" rx="16" fill="#3D544D"/>
<path d="M17.4861 17.3451C17.1381 17.7003 16.9367 18.2533 16.9367 18.9694V44.5127C16.9367 45.2289 17.1381 45.7818 17.4861 46.137L17.572 46.215L32.2526 31.9071V31.5693L17.572 17.2614L17.4861 17.3451Z" fill="white"/>
<path d="M38.9177 36.6788L34.0296 31.9071V31.5692L38.9236 26.7976L39.0332 26.8596L44.829 30.0749C46.4831 30.9874 46.4831 32.4889 44.829 33.4072L39.0332 36.6167L38.9177 36.6788Z" fill="white"/>
<path d="M38.1447 37.5052L33.1411 32.6267L18.3746 47.0255C18.924 47.5886 19.8198 47.6564 20.8386 47.0933L38.1447 37.5052Z" fill="white"/>
<path d="M38.1447 25.9712L20.8386 16.383C19.8198 15.8257 18.924 15.8936 18.3746 16.4567L33.1411 30.8497L38.1447 25.9712Z" fill="white"/>
<path d="M62.1855 20.4695C62.1855 21.4339 61.8893 22.2064 61.3059 22.7824C60.6351 23.4653 59.7614 23.809 58.6908 23.809C57.6676 23.809 56.7939 23.4596 56.0772 22.7709C55.359 22.0721 55.0007 21.2145 55.0007 20.188C55.0007 19.1614 55.359 18.3038 56.0772 17.6108C56.7939 16.9164 57.6676 16.567 58.6908 16.567C59.2002 16.567 59.6859 16.6695 60.1494 16.86C60.6114 17.0521 60.9875 17.3119 61.26 17.6325L60.641 18.2417C60.1657 17.6945 59.5186 17.4246 58.6908 17.4246C57.9445 17.4246 57.2974 17.6787 56.748 18.1912C56.2046 18.7052 55.9321 19.3708 55.9321 20.188C55.9321 21.0051 56.2046 21.6765 56.748 22.1905C57.2974 22.6972 57.9445 22.9571 58.6908 22.9571C59.4831 22.9571 60.1494 22.6972 60.6751 22.1847C61.0216 21.8454 61.2185 21.3776 61.2704 20.7799H58.6908V19.9454H62.1322C62.1737 20.1259 62.1855 20.3006 62.1855 20.4695Z" fill="white"/>
<path d="M67.6452 17.5762H64.4126V19.7707H67.3268V20.6052H64.4126V22.7997H67.6452V23.6501H63.4975V16.7258H67.6452V17.5762Z" fill="white"/>
<path d="M71.4982 23.6501H70.5831V17.5762H68.6003V16.7258H73.4825V17.5762H71.4982V23.6501Z" fill="white"/>
<path d="M77.0157 23.6501V16.7258H77.9294V23.6501H77.0157Z" fill="white"/>
<path d="M81.9793 23.6501H81.0716V17.5762H79.0814V16.7258H83.9695V17.5762H81.9793V23.6501Z" fill="white"/>
<path d="M93.2127 22.7593C92.5123 23.4596 91.6445 23.809 90.6094 23.809C89.5684 23.809 88.7007 23.4596 88.0003 22.7593C87.3013 22.0605 86.9533 21.2029 86.9533 20.188C86.9533 19.173 87.3013 18.3154 88.0003 17.6166C88.7007 16.9164 89.5684 16.567 90.6094 16.567C91.6386 16.567 92.5064 16.9164 93.2068 17.6224C93.9116 18.3269 94.2596 19.1788 94.2596 20.188C94.2596 21.2029 93.9116 22.0605 93.2127 22.7593ZM88.677 22.1789C89.2042 22.6972 89.8453 22.9571 90.6094 22.9571C91.3676 22.9571 92.0147 22.6972 92.536 22.1789C93.0617 21.6606 93.3282 20.995 93.3282 20.188C93.3282 19.3809 93.0617 18.7153 92.536 18.197C92.0147 17.6787 91.3676 17.4188 90.6094 17.4188C89.8453 17.4188 89.2042 17.6787 88.677 18.197C88.1513 18.7153 87.8848 19.3809 87.8848 20.188C87.8848 20.995 88.1513 21.6606 88.677 22.1789Z" fill="white"/>
<path d="M95.5435 23.6501V16.7258H96.6541L100.107 22.1111H100.147L100.107 20.7799V16.7258H101.021V23.6501H100.067L96.4512 17.9992H96.4112L96.4512 19.3361V23.6501H95.5435Z" fill="white"/>
<path d="M86.7283 33.7624C83.9458 33.7624 81.6728 35.827 81.6728 38.6756C81.6728 41.501 83.9458 43.5873 86.7283 43.5873C89.5166 43.5873 91.7896 41.501 91.7896 38.6756C91.7896 35.827 89.5166 33.7624 86.7283 33.7624ZM86.7283 41.6526C85.2016 41.6526 83.8881 40.424 83.8881 38.6756C83.8881 36.904 85.2016 35.6971 86.7283 35.6971C88.255 35.6971 89.5744 36.904 89.5744 38.6756C89.5744 40.424 88.255 41.6526 86.7283 41.6526ZM75.6978 33.7624C72.9095 33.7624 70.6424 35.827 70.6424 38.6756C70.6424 41.501 72.9095 43.5873 75.6978 43.5873C78.4847 43.5873 80.7532 41.501 80.7532 38.6756C80.7532 35.827 78.4847 33.7624 75.6978 33.7624ZM75.6978 41.6526C74.1696 41.6526 72.8517 40.424 72.8517 38.6756C72.8517 36.904 74.1696 35.6971 75.6978 35.6971C77.2245 35.6971 78.538 36.904 78.538 38.6756C78.538 40.424 77.2245 41.6526 75.6978 41.6526ZM62.572 35.2682V37.356H67.6852C67.5356 38.5225 67.1358 39.3801 66.5228 39.9779C65.7764 40.6997 64.614 41.501 62.572 41.501C59.4253 41.501 56.9613 39.025 56.9613 35.9569C56.9613 32.8889 59.4253 30.4128 62.572 30.4128C64.2734 30.4128 65.5114 31.0611 66.425 31.9014L67.934 30.4301C66.656 29.2405 64.9561 28.3266 62.572 28.3266C58.257 28.3266 54.6305 31.7498 54.6305 35.9569C54.6305 40.1641 58.257 43.5873 62.572 43.5873C64.9043 43.5873 66.656 42.8423 68.0332 41.4447C69.4444 40.0688 69.8842 38.1341 69.8842 36.572C69.8842 36.0869 69.8427 35.6407 69.7687 35.2682H62.572ZM116.245 36.8867C115.829 35.788 114.545 33.7624 111.93 33.7624C109.339 33.7624 107.181 35.7534 107.181 38.6756C107.181 41.4274 109.316 43.5873 112.179 43.5873C114.493 43.5873 115.829 42.2114 116.378 41.4101L114.661 40.294C114.088 41.1112 113.307 41.6526 112.179 41.6526C111.058 41.6526 110.254 41.1516 109.738 40.1641L116.478 37.4455L116.245 36.8867ZM109.374 38.5225C109.316 36.6283 110.883 35.6581 112.006 35.6581C112.885 35.6581 113.631 36.0869 113.88 36.7005L109.374 38.5225ZM103.897 43.2884H106.112V28.8506H103.897V43.2884ZM100.269 34.8568H100.195C99.6971 34.2821 98.7479 33.7624 97.5455 33.7624C95.0222 33.7624 92.7151 35.9223 92.7151 38.6914C92.7151 41.4447 95.0222 43.5873 97.5455 43.5873C98.7479 43.5873 99.6971 43.0632 100.195 42.4713H100.269V43.1758C100.269 45.0542 99.2395 46.0634 97.5796 46.0634C96.2261 46.0634 95.3865 45.1105 95.04 44.3092L93.1135 45.0932C93.6688 46.3955 95.1392 47.998 97.5796 47.998C100.177 47.998 102.368 46.5081 102.368 42.8827V34.0612H100.269V34.8568ZM97.7351 41.6526C96.2084 41.6526 94.9304 40.4067 94.9304 38.6914C94.9304 36.9604 96.2084 35.6971 97.7351 35.6971C99.2395 35.6971 100.426 36.9604 100.426 38.6914C100.426 40.4067 99.2395 41.6526 97.7351 41.6526ZM126.617 28.8506H121.318V43.2884H123.528V37.818H126.617C129.07 37.818 131.477 36.0869 131.477 33.3336C131.477 30.5817 129.064 28.8506 126.617 28.8506ZM126.674 35.8097H123.528V30.8589H126.674C128.324 30.8589 129.266 32.1944 129.266 33.3336C129.266 34.4511 128.324 35.8097 126.674 35.8097ZM140.332 33.735C138.735 33.735 137.075 34.4222 136.393 35.9454L138.353 36.7467C138.775 35.9454 139.551 35.6855 140.372 35.6855C141.518 35.6855 142.68 36.3569 142.698 37.5422V37.6938C142.298 37.4686 141.442 37.1351 140.389 37.1351C138.278 37.1351 136.126 38.2684 136.126 40.3836C136.126 42.3182 137.856 43.5642 139.8 43.5642C141.287 43.5642 142.107 42.9102 142.623 42.1493H142.698V43.2653H144.832V37.727C144.832 35.1672 142.871 33.735 140.332 33.735ZM140.065 41.6469C139.343 41.6469 138.336 41.2975 138.336 40.424C138.336 39.3065 139.591 38.8777 140.678 38.8777C141.651 38.8777 142.107 39.087 142.698 39.3628C142.525 40.6997 141.345 41.6469 140.065 41.6469ZM152.606 34.0511L150.066 40.3099H149.991L147.366 34.0511H144.983L148.928 42.7976L146.677 47.6645H148.986L155.064 34.0511H152.606ZM132.691 43.2884H134.906V28.8506H132.691V43.2884Z" fill="white"/>
</svg>
