<svg width="29" height="46" viewBox="0 0 29 46" fill="none" xmlns="http://www.w3.org/2000/svg">
<path fill-rule="evenodd" clip-rule="evenodd" d="M22.9763 0.174375C23.9116 -0.176322 24.9542 0.297649 25.3049 1.23302C27.1722 6.21352 28.8252 14.2976 27.7419 22.5184C26.6512 30.7954 22.759 39.3188 13.4465 44.7773C12.5847 45.2824 11.4766 44.9933 10.9714 44.1315C10.4663 43.2696 10.7554 42.1615 11.6172 41.6563C19.7391 36.8957 23.1722 29.5071 24.1554 22.0458C25.146 14.5282 23.6215 7.04745 21.9176 2.50301C21.5669 1.56764 22.0409 0.525072 22.9763 0.174375ZM13.6863 4.55285C14.6212 4.20077 15.6644 4.67319 16.0165 5.60804C17.3371 9.11454 18.5059 14.7898 17.7461 20.5739C16.9788 26.4151 14.2171 32.4732 7.58972 36.3439C6.72711 36.8477 5.61942 36.5569 5.11561 35.6943C4.61181 34.8316 4.90268 33.724 5.76528 33.2201C11.1997 30.0462 13.4997 25.1245 14.1594 20.1028C14.8265 15.0241 13.7875 9.95342 12.6311 6.88305C12.2791 5.9482 12.7515 4.90494 13.6863 4.55285ZM5.98194 9.98395C6.91511 9.62743 7.96061 10.0949 8.31713 11.0281C9.04252 12.9267 9.68491 15.9757 9.27813 19.104C8.86359 22.2919 7.3324 25.6623 3.63068 27.7995C2.76556 28.2989 1.65934 28.0025 1.15986 27.1374C0.660385 26.2723 0.956797 25.1661 1.82191 24.6666C4.32296 23.2226 5.38441 20.9938 5.6908 18.6375C6.00494 16.2217 5.49654 13.7815 4.93784 12.3191C4.58132 11.386 5.04878 10.3405 5.98194 9.98395Z" fill="white"/>
</svg>
